<svg id="Ebene_1" data-name="Ebene 1" xmlns="http://www.w3.org/2000/svg" viewBox="0 0 48 48"><defs><style>.cls-1{stroke:#000;stroke-miterlimit:10;stroke-width:0.25px;}.cls-2{fill:red;}</style></defs><title>ages-18plus</title><path class="cls-1" d="M16.37,20h0l-1.53.83-.23-.91,1.92-1h1v8.82H16.37Z"/><path class="cls-1" d="M20.63,25.43a2.52,2.52,0,0,1,1.76-2.36l0,0a2.2,2.2,0,0,1-1.4-2A2.47,2.47,0,0,1,23.7,18.7a2.28,2.28,0,0,1,2.57,2.17,2.24,2.24,0,0,1-1.45,2.06v0a2.45,2.45,0,0,1,1.77,2.29,2.71,2.71,0,0,1-3,2.56C21.75,27.82,20.63,26.72,20.63,25.43Zm4.76-.05c0-1.07-.75-1.59-1.94-1.93a1.91,1.91,0,0,0-1.59,1.82A1.63,1.63,0,0,0,23.62,27,1.6,1.6,0,0,0,25.39,25.38ZM22.1,21c0,.88.67,1.35,1.68,1.63A1.76,1.76,0,0,0,25.13,21a1.38,1.38,0,0,0-1.5-1.44A1.41,1.41,0,0,0,22.1,21Z"/><path class="cls-1" d="M31.58,20.45v3.19h3.07v.82H31.58v3.21h-.87V24.46H27.65v-.82h3.06V20.45Z"/><path class="cls-2" d="M24,40A16,16,0,1,1,40,24,16,16,0,0,1,24,40Zm0-28.8A12.8,12.8,0,1,0,36.8,24,12.81,12.81,0,0,0,24,11.2Z"/></svg>