<svg id="Ebene_1" data-name="Ebene 1" xmlns="http://www.w3.org/2000/svg" viewBox="0 0 48 48"><defs><style>.cls-1{stroke:#000;stroke-miterlimit:10;stroke-width:0.25px;}.cls-2{fill:red;}</style></defs><title>ages-19plus</title><path class="cls-1" d="M16.37,20h0l-1.53.83-.23-.91,1.92-1h1v8.82H16.37Z"/><path class="cls-1" d="M21.44,26.83a4.8,4.8,0,0,0,1,0,3.38,3.38,0,0,0,1.85-.86,3.86,3.86,0,0,0,1.16-2.34h0a2.61,2.61,0,0,1-2.08.95,2.56,2.56,0,0,1-2.6-2.71,3,3,0,0,1,3-3.13c1.81,0,2.92,1.47,2.92,3.72a5.57,5.57,0,0,1-1.52,4.14,4.44,4.44,0,0,1-2.56,1.18,5.75,5.75,0,0,1-1.1.07Zm.43-5.08a1.71,1.71,0,0,0,1.7,1.88,2,2,0,0,0,1.73-.93.74.74,0,0,0,.11-.43c0-1.51-.55-2.66-1.8-2.66C22.59,19.61,21.87,20.5,21.87,21.75Z"/><path class="cls-1" d="M31.58,20.45v3.19h3.07v.82H31.58v3.21h-.87V24.46H27.65v-.82h3.06V20.45Z"/><path class="cls-2" d="M24,40A16,16,0,1,1,40,24,16,16,0,0,1,24,40Zm0-28.8A12.8,12.8,0,1,0,36.8,24,12.81,12.81,0,0,0,24,11.2Z"/></svg>