<svg id="Ebene_1" data-name="Ebene 1" xmlns="http://www.w3.org/2000/svg" viewBox="0 0 48 48"><defs><style>.cls-1{stroke:#000;stroke-miterlimit:10;stroke-width:0.25px;}.cls-2{fill:red;}</style></defs><title>ages-all</title><path class="cls-1" d="M23,23.9c0,3-1.11,4.66-3.06,4.66C18.18,28.56,17,27,17,24s1.27-4.59,3.06-4.59S23,21.09,23,23.9ZM18.18,24c0,2.29.71,3.6,1.79,3.6s1.81-1.43,1.81-3.68-.56-3.6-1.79-3.6C18.94,20.36,18.18,21.64,18.18,24Z"/><path class="cls-1" d="M28,21.19v3.19H31v.81H28v3.22h-.87V25.19H24v-.81h3.07V21.19Z"/><path class="cls-2" d="M24,40A16,16,0,1,1,40,24,16,16,0,0,1,24,40Zm0-28.8A12.8,12.8,0,1,0,36.8,24,12.81,12.81,0,0,0,24,11.2Z"/></svg>