<svg id="Ebene_1" data-name="Ebene 1" xmlns="http://www.w3.org/2000/svg" viewBox="0 0 48 48"><defs><style>.cls-1{stroke:#000;stroke-miterlimit:10;stroke-width:0.25px;}.cls-2{fill:red;}</style></defs><title>ages-21plus</title><path class="cls-1" d="M13.78,27.67v-.73l.93-.91C17,23.88,18,22.74,18,21.41a1.58,1.58,0,0,0-1.75-1.72,3,3,0,0,0-1.88.75L14,19.6a3.85,3.85,0,0,1,2.5-.9,2.48,2.48,0,0,1,2.7,2.57c0,1.62-1.18,2.94-3,4.73l-.71.65v0h4v1Z"/><path class="cls-1" d="M23.34,20h0l-1.53.83-.24-.91,1.93-1h1v8.82H23.34Z"/><path class="cls-1" d="M31.58,20.45v3.19h3.07v.82H31.58v3.21h-.87V24.46H27.65v-.82h3.06V20.45Z"/><path class="cls-2" d="M24,40A16,16,0,1,1,40,24,16,16,0,0,1,24,40Zm0-28.8A12.8,12.8,0,1,0,36.8,24,12.81,12.81,0,0,0,24,11.2Z"/></svg>