<svg id="Ebene_1" data-name="Ebene 1" xmlns="http://www.w3.org/2000/svg" viewBox="0 0 48 48"><defs><style>.cls-1{stroke:#000;stroke-width:0.09px;}</style></defs><title>ambience-trendy</title><g id="layer9"><path id="path1993" class="cls-1" d="M6.54,6.73,40.76,41s1.35,4.47-3.36,3.51c-2.87-2.47-16.11-19.46-16.11-19.46S3.83,21.48,6.54,6.73Z"/><path id="path1995" class="cls-1" d="M24.72,22.6l2.56,2.55,2.95-3.35s1.59,1.6,4-.48c1.84-2.47,8.62-8.61,8.62-8.61l-1-1.12-5.74,5.75-1-1.12,5.51-5.74-1.2-1.2L33.74,15l-1.12-1.19L38.2,8.32,37.09,7.05l-9.26,9.17s-1.11,1.28.16,3.43Z"/><path id="path1997" class="cls-1" d="M20.34,26.67l2.31,2.87L8.77,44.22C7.46,44.45,5,42.05,5.18,41.1Z"/></g><g id="layer10"><g id="g3943"><g id="g4027"><g id="g4025"><path id="path4023" d="M17.84,3.34c-1.66,0-3.64.11-4,.16-2.33.26-3.28,1.14-3.38,3.16-.12,2.58.93,4.42,2.88,5a4.05,4.05,0,0,0,1.56.22,4.5,4.5,0,0,0,1.83-.31,6.13,6.13,0,0,0,2.17-1.36A6.36,6.36,0,0,0,21,6.12c0-.47.06-.54.17-.71a1.2,1.2,0,0,1,.38-.32A1,1,0,0,1,22.16,5a1,1,0,0,1,.6.13,1,1,0,0,1,.37.32c.13.17.14.24.18.73A6.25,6.25,0,0,0,25.16,10a6.17,6.17,0,0,0,3.15,1.86,4.16,4.16,0,0,0,1.17.09,4,4,0,0,0,1.24-.12,4.17,4.17,0,0,0,3.14-3.92,4.66,4.66,0,0,0-.55-3.16,4,4,0,0,0-2.82-1.22c-.94-.09-3-.14-7.42-.15Zm7.06.52a2.16,2.16,0,0,0-1.41,1l-.11.23-.18-.16a1.73,1.73,0,0,0-2.09,0l-.18.16-.12-.25c-.22-.44-.6-.7-1.4-1l-.49-.18h6.47Z"/></g></g></g></g></svg>