<svg id="Ebene_1" data-name="Ebene 1" xmlns="http://www.w3.org/2000/svg" viewBox="0 0 48 48"><defs><style>.cls-1{stroke:#000;stroke-width:0.26px;}</style></defs><title>ambience-classy</title><path d="M28,6.23a5,5,0,0,0-.38-1.94H17.89a5,5,0,0,0-.39,1.94,5.21,5.21,0,0,0,4.6,5.13v6.57a5.21,5.21,0,0,0-2.81,1.23h6.93a5.21,5.21,0,0,0-2.81-1.23V11.36A5.2,5.2,0,0,0,28,6.23ZM18.82,8.17l-.19-.57a3.44,3.44,0,0,1,.19-2.67h7.87a3.44,3.44,0,0,1,.19,2.67l-.19.57Z"/><path id="path1993" class="cls-1" d="M9,11,38.43,40.58s1.17,3.84-2.89,3c-2.47-2.13-13.87-16.76-13.87-16.76S6.63,23.75,9,11Z"/><path id="path1995" class="cls-1" d="M24.62,24.71l2.2,2.2L29.36,24s1.38,1.38,3.44-.41c1.58-2.13,7.42-7.42,7.42-7.42l-.9-1-4.94,4.94-.9-1,4.74-4.94-1-1-4.81,4.94-1-1,4.81-4.74-1-1.1-8,7.9s-1,1.1.14,3Z"/><path id="path1997" class="cls-1" d="M20.84,28.21l2,2.47-12,12.65c-1.12.2-3.25-1.87-3.09-2.68Z"/></svg>