<svg id="Ebene_1" data-name="Ebene 1" xmlns="http://www.w3.org/2000/svg" viewBox="0 0 48 48"><defs><style>.cls-1{fill:none;stroke-linecap:round;stroke-width:2.87px;}.cls-1,.cls-2{stroke:#000;}.cls-2{stroke-width:0.26px;}</style></defs><title>ambience-casual</title><g id="layer5"><rect id="rect1991" class="cls-1" x="4.02" y="3.54" width="39.83" height="41.12"/><path id="path1993" class="cls-2" d="M9,7.38,38.43,36.92s1.16,3.84-2.89,3c-2.47-2.13-13.88-16.76-13.88-16.76S6.62,20.09,9,7.38Z"/><path id="path1995" class="cls-2" d="M24.62,21.05l2.2,2.19,2.54-2.88s1.37,1.37,3.43-.41c1.58-2.13,7.42-7.42,7.42-7.42l-.89-1-5,4.94-.89-1,4.74-4.94-1-1-4.81,4.95-1-1,4.81-4.74-1-1.1-8,7.9s-1,1.1.13,2.95Z"/><path id="path1997" class="cls-2" d="M20.84,24.55l2,2.47L10.88,39.66C9.75,39.87,7.62,37.8,7.79,37Z"/></g></svg>