<svg id="Ebene_1" data-name="Ebene 1" xmlns="http://www.w3.org/2000/svg" viewBox="0 0 48 48"><defs><style>.cls-1{stroke:#000;stroke-width:0.09px;}</style></defs><title>ambience-touristy</title><g id="layer9"><path id="path1993" class="cls-1" d="M8,11.6,39.36,43s1.24,4.09-3.07,3.22C33.65,44,21.52,28.42,21.52,28.42S5.51,25.13,8,11.6Z"/><path id="path1995" class="cls-1" d="M24.66,26.15,27,28.49l2.71-3.07s1.46,1.46,3.65-.44c1.68-2.26,7.9-7.89,7.9-7.89l-.95-1L35,21.33l-.95-1,5-5.26L38,13.94l-5.12,5.27-1-1.1,5.12-5L36,11.9l-8.48,8.4s-1,1.17.15,3.15Z"/><path id="path1997" class="cls-1" d="M20.64,29.88l2.12,2.63L10,46c-1.2.22-3.46-2-3.29-2.85Z"/></g><g id="layer10"><g id="g3943"><g id="g3971"><path id="path3969" d="M29.06,4.43H25.7V3.76a2.13,2.13,0,0,0-2.13-2.14H20.1A2.14,2.14,0,0,0,18,3.76v.67H15.13A2.14,2.14,0,0,0,13,6.57v8.07a2.13,2.13,0,0,0,2.13,2.13H29.06a2.12,2.12,0,0,0,2.12-2.13V6.57A2.13,2.13,0,0,0,29.06,4.43Zm1.06,10.25a1.07,1.07,0,0,1-1.06,1.07H15.13a1.07,1.07,0,0,1-1.07-1.07V6.57A1.07,1.07,0,0,1,15.13,5.5H18A1.06,1.06,0,0,0,19,4.43V3.76a1.07,1.07,0,0,1,1.06-1.07h3.48a1.06,1.06,0,0,1,1.06,1.07v.67A1.07,1.07,0,0,0,25.7,5.5h3.36a1.07,1.07,0,0,1,1.06,1.07ZM21.87,6.86a3.5,3.5,0,1,0,3.47,3.5A3.49,3.49,0,0,0,21.87,6.86Zm0,5.93a2.43,2.43,0,1,1,2.41-2.43A2.44,2.44,0,0,1,21.87,12.79Zm5.54-6.3a.89.89,0,1,0,.88.89A.89.89,0,0,0,27.41,6.49Z"/></g></g></g></svg>