<svg id="Ebene_1" data-name="Ebene 1" xmlns="http://www.w3.org/2000/svg" viewBox="0 0 48 48"><defs><style>.cls-1,.cls-3,.cls-4{stroke:#000;}.cls-1{stroke-width:0.09px;}.cls-2{opacity:0.26;}.cls-3,.cls-4{fill:none;}.cls-3{stroke-linejoin:round;stroke-width:2.87px;}.cls-4{stroke-linecap:round;stroke-width:3px;}</style></defs><title>ambience-romantic</title><g id="layer9"><path id="path1993" class="cls-1" d="M14,9.51,34.15,29.69s.8,2.63-2,2.07C30.49,30.3,22.7,20.31,22.7,20.31S12.42,18.2,14,9.51Z"/><path id="path1995" class="cls-1" d="M24.72,18.85l1.5,1.5,1.73-2s.94.94,2.35-.28A63.26,63.26,0,0,1,35.37,13l-.61-.65-3.38,3.37-.61-.65L34,11.72l-.7-.71L30,14.39l-.66-.7,3.29-3.24L32,9.7l-5.44,5.4a1.71,1.71,0,0,0,.09,2Z"/><path id="path1997" class="cls-1" d="M22.13,21.24l1.37,1.7-8.17,8.63c-.77.14-2.22-1.27-2.11-1.83Z"/></g><g id="layer1-5" class="cls-2"><path id="path2361" class="cls-3" d="M15.12,6C3.74,5.82-6.8,23.63,23.9,42.1a.13.13,0,0,1,.2,0C55.79,23,43.54,4.67,31.77,6.1,27.18,6.66,25,9.21,24,11.4c-1-2.19-3.19-4.74-7.77-5.3A10.34,10.34,0,0,0,15.12,6Z"/></g><path id="path3892" class="cls-4" d="M24,11.4A8.2,8.2,0,0,0,23.08,10,11.08,11.08,0,0,0,15,5.91C8.63,5.5-11.48,19.83,23.9,42.1"/><path id="path3892-7" class="cls-4" d="M24,11.4a10.14,10.14,0,0,1,2.34-2.83A11.12,11.12,0,0,1,33,5.91C39.37,5.5,59.48,19.83,24.1,42.1"/></svg>