<svg id="Ebene_1" data-name="Ebene 1" xmlns="http://www.w3.org/2000/svg" viewBox="0 0 48 48"><defs><style>.cls-1{stroke:#000;stroke-width:0.09px;}</style></defs><title>ambience-intimate</title><path id="path1993" class="cls-1" d="M7.5,9.35,39.83,41.76s1.29,4.22-3.16,3.32C34,42.74,21.44,26.68,21.44,26.68S4.93,23.29,7.5,9.35"/><path id="path1997" class="cls-1" d="M20.54,28.19l2.18,2.71L9.61,44.77c-1.24.23-3.57-2-3.4-2.94Z"/><path id="path1995" class="cls-1" d="M24.68,24.35l2.42,2.41,2.78-3.17s1.51,1.51,3.77-.45C35.39,20.8,41.79,15,41.79,15l-1-1.06-5.43,5.43-1-1.05,5.2-5.43-1.13-1.13L33.2,17.18l-1.05-1.13,5.27-5.2-1.05-1.2-8.75,8.67s-1.05,1.2.16,3.24Z"/><path d="M22.34,17.86l0-.49a4.38,4.38,0,0,1,1.17-3.27,4.13,4.13,0,0,0,1.32-2.58c0-1-.6-1.6-1.79-1.62a3.37,3.37,0,0,0-1.91.58l-.45-1.19a5,5,0,0,1,2.7-.75c2.17,0,3.15,1.34,3.15,2.77a5.12,5.12,0,0,1-1.62,3.28,3.76,3.76,0,0,0-1.08,2.78l0,.49Zm-.42,2.64a1.12,1.12,0,0,1,1.14-1.19,1.18,1.18,0,0,1,0,2.36A1.11,1.11,0,0,1,21.92,20.5Z"/><path d="M16.29,10.55l0-.31A2.78,2.78,0,0,1,17,8.16a2.61,2.61,0,0,0,.84-1.64c0-.61-.39-1-1.14-1a2.11,2.11,0,0,0-1.21.37l-.29-.75a3.14,3.14,0,0,1,1.71-.49,1.78,1.78,0,0,1,2,1.77,3.31,3.31,0,0,1-1,2.09,2.38,2.38,0,0,0-.69,1.76v.31ZM16,12.23a.72.72,0,0,1,.72-.76.71.71,0,0,1,.71.76.69.69,0,0,1-.72.74A.7.7,0,0,1,16,12.23Z"/><path d="M30.12,10.88l0-.31a2.74,2.74,0,0,1,.74-2.07,2.66,2.66,0,0,0,.84-1.65c0-.61-.38-1-1.14-1a2.19,2.19,0,0,0-1.21.37L29,5.44A3.14,3.14,0,0,1,30.76,5a1.77,1.77,0,0,1,2,1.76,3.28,3.28,0,0,1-1,2.09A2.38,2.38,0,0,0,31,10.57l0,.31Zm-.26,1.68a.71.71,0,0,1,.72-.75.7.7,0,0,1,.71.75.72.72,0,1,1-1.43,0Z"/></svg>