<svg id="Ebene_1" data-name="Ebene 1" xmlns="http://www.w3.org/2000/svg" viewBox="0 0 48 48"><defs><style>.cls-1{stroke:#000;stroke-width:0.26px;}</style></defs><title>ambience-upscale</title><path id="path7952" class="cls-1" d="M24,37.23a28.51,28.51,0,0,1,1.48-5.29c1.19-3-.76-3.94-1.14-4,0,0-2.59-.15-2.08,2.72S23.93,34.69,24,37.23Z"/><path id="path7954" class="cls-1" d="M22,36.05s-.22-1-.3-1.43-1.48-2.77-2.51-3.16a2.34,2.34,0,0,0-1.94.23,1.37,1.37,0,0,0,.18,1.67C18.24,34.09,20.92,34,22,36.05Z"/><path id="path7954-1" class="cls-1" d="M25.65,36.17s.22-1,.3-1.43,1.48-2.77,2.51-3.16a2.32,2.32,0,0,1,1.93.23,1.34,1.34,0,0,1-.18,1.66C29.44,34.2,26.75,34.14,25.65,36.17Z"/><path id="path7971" class="cls-1" d="M24,39.61s.39-2.18,4.05-3.36,7.54.93,8.31,1,2.57.23,3.33-1.36-.46-2.49-1.35-2.82-2.31-.16-2.47.72c0,0,.52-.11.72,0a1.06,1.06,0,0,1,.18,1.36c-.41.48-1.54.18-1.54.18s-1.25-.59-.3-2.29,4-.64,4-.64a2.89,2.89,0,0,1,1.57,2.82c-.26,1.93-1.77,3.36-5.29,2.41,0,0,4.77,4.62,6.72,5.08s2.67.26,3.08-.08a2.19,2.19,0,0,0,1.18-2.28c-.16-1.54-2.31-1.46-2.44-.9,0,0,.62.36.56.8a1,1,0,0,1-1,.87c-.41-.05-1.2-.23-1.31-.84a1.73,1.73,0,0,1,1.49-2.13,3.69,3.69,0,0,1,3,1.05A2.12,2.12,0,0,1,47,41.15a3.1,3.1,0,0,1-2.36,2.49,6.76,6.76,0,0,1-4.15-.72,51.16,51.16,0,0,1-5.46-4.31,8,8,0,0,1,.33,2.49,3.76,3.76,0,0,1-1.36,2c-.53.31-2.35.79-3.17.23s-1.93-.64-1.57-2.74,3-1.31,3-1.31,1.07.64.53,1.61-2.07.21-1.66-.84c0,0-.95-.16-1.23,1.1S31.69,43,31.69,43s2.41.08,2.85-1.54a3.7,3.7,0,0,0-1.31-3.77,6.22,6.22,0,0,0-5.36-.56c-2.61,1-2.92,2.36-2.92,2.49s-.59,2,0,2.84a2,2,0,0,0,2,.67c.16-.1,1.52-.9.11-1.62,0,0-.29.54-.57.52s-.87-.41-.56-.95,1.41-.46,1.72-.21A1.49,1.49,0,0,1,28.1,43c-.74,1-2.2.67-2.54.59S24,42.43,24,41.89c0,0-.59,1.59-1.72,1.64s-2.18.44-2.69-1.05,1.13-1.95,1.49-1.92,1.33.28,1,1.31-1.11-.36-1.11-.36-.71.23-.74.67a1.12,1.12,0,0,0,1.26.94c.88-.14,1.61.49,1.92-2s-2.59-3.74-3.21-3.89a7.18,7.18,0,0,0-5.33.35c-2.69,1.23-1,4.59-1,4.59a2,2,0,0,0,2.26.87A2.34,2.34,0,0,0,18,41.43,1.5,1.5,0,0,0,16.77,40s.15,1.08-.64,1.41A.87.87,0,0,1,15,40.28a1.46,1.46,0,0,1,1.69-1.08,2.55,2.55,0,0,1,2.1,1.44A2.42,2.42,0,0,1,18,42.89a2.74,2.74,0,0,1-2.39.77,3.2,3.2,0,0,1-2.76-1.84c-.08-.52-.36-2.41.1-3.08,0,0-4.09,3.62-5,4s-1,1-3.73,1A3,3,0,0,1,1,41.12,2.77,2.77,0,0,1,2.13,38.7a3.18,3.18,0,0,1,3.31,0,1.37,1.37,0,0,1,.25,2.16c-.18.1-1.3.51-1.92-.21s.51-1.23.51-1.23-.48-.56-1.71,0-.52,2.46-.52,2.46.82,1.74,4,.92,6.84-5,6.84-5S9,39.23,7.62,36.12s2.56-4,2.56-4a3.38,3.38,0,0,1,3.13,1.49c1,1.72-1.26,1.92-1.44,1.92s-2-1.2.31-1.71c0,0-.23-1-1.82-.82s-1.82,1.1-1.9,1.3S8,36.36,9.21,37s3,.21,4.48-.31a13.7,13.7,0,0,1,6.08-.48A5.46,5.46,0,0,1,24,39.61Z"/><g id="g8004"><g id="layer5"><path id="path1993" class="cls-1" d="M13.51,8,35.51,30s.87,2.87-2.15,2.26C31.51,30.69,23,19.77,23,19.77S11.77,17.46,13.51,8Z"/><path id="path1995" class="cls-1" d="M25.2,18.18l1.65,1.64,1.89-2.16s1,1,2.57-.3a68.44,68.44,0,0,1,5.53-5.54l-.66-.72-3.69,3.69-.67-.72,3.54-3.69-.77-.77L31,13.31l-.72-.77L33.87,9l-.72-.82L27.2,14.07a1.89,1.89,0,0,0,.11,2.21Z"/><path id="path1997" class="cls-1" d="M22.38,20.79l1.49,1.85L15,32.07c-.84.16-2.43-1.39-2.31-2Z"/></g></g></svg>