<svg id="Ebene_1" data-name="Ebene 1" xmlns="http://www.w3.org/2000/svg" viewBox="0 0 48 48"><defs><style>.cls-1{stroke:#000;stroke-width:0.09px;}</style></defs><title>ambience-hipster</title><path id="path1993" class="cls-1" d="M7.5,8.67,39.83,41.08s1.29,4.22-3.16,3.32C34,42.06,21.44,26,21.44,26S4.93,22.61,7.5,8.67Z"/><path id="path1995" class="cls-1" d="M24.68,23.67l2.42,2.41,2.78-3.17s1.51,1.51,3.77-.45c1.74-2.34,8.14-8.14,8.14-8.14l-1-1.05-5.43,5.42-1-1.05,5.2-5.43-1.13-1.13L33.2,16.51l-1.05-1.13,5.27-5.21L36.37,9l-8.75,8.67s-1.05,1.2.16,3.24Z"/><path id="path1997" class="cls-1" d="M20.54,27.51l2.18,2.71L9.61,44.09c-1.24.23-3.57-2-3.4-2.94Z"/><g id="g3943"><path id="path3941" d="M9,3.53A2,2,0,0,0,7.54,5a3.23,3.23,0,0,0,0,1.24A3,3,0,0,0,7.79,7,8.87,8.87,0,0,0,9.73,9.23a8.57,8.57,0,0,0,3.55,1.58,24.16,24.16,0,0,0,5.35.5,4.72,4.72,0,0,0,1-.07,3,3,0,0,0,1.52-.78,4.64,4.64,0,0,0,1.08-2.75l0-.35,0,.23A4.58,4.58,0,0,0,23.5,10.5a2.91,2.91,0,0,0,1.56.76,21,21,0,0,0,3.35,0A14.25,14.25,0,0,0,33.61,10a7.49,7.49,0,0,0,2.85-2.49A2.87,2.87,0,0,0,37.13,6a2.47,2.47,0,0,0,0-.55A2,2,0,0,0,36.55,4a1.9,1.9,0,0,0-.93-.51,1.52,1.52,0,0,0-.51,0,1.4,1.4,0,0,0-.53.09,1.53,1.53,0,0,0-.7.43,1.31,1.31,0,0,0-.39.62,1,1,0,0,0-.07.47,1.39,1.39,0,0,0,0,.45,1.35,1.35,0,0,0,1,1,1.21,1.21,0,0,0,1.14-.37,1,1,0,0,0,.23-.76l0-.12v.11a.85.85,0,0,1-1,.8A1,1,0,0,1,34,5.22a.93.93,0,0,1,0-.37,1.2,1.2,0,0,1,1.2-1,1.35,1.35,0,0,1,1,.45,1.3,1.3,0,0,1,.46,1,1.92,1.92,0,0,1-.36,1.09,3.25,3.25,0,0,1-.59.58,11.08,11.08,0,0,1-2.33,1.13,3,3,0,0,1-1,.16,3.6,3.6,0,0,1-.56,0,4.71,4.71,0,0,1-1.95-1,13,13,0,0,0-4.64-2.47,5,5,0,0,0-1.51-.19,3.22,3.22,0,0,0-1.17.14l-.15,0-.17,0A5.42,5.42,0,0,0,19,4.92a14.12,14.12,0,0,0-4,2.24,5.5,5.5,0,0,1-1.72,1,2.41,2.41,0,0,1-.93.13,3.12,3.12,0,0,1-1.13-.19A10.76,10.76,0,0,1,8.85,6.94,2.13,2.13,0,0,1,8,5.38a1.32,1.32,0,0,1,.45-1,1.45,1.45,0,0,1,.71-.43,1.23,1.23,0,0,1,1.2.35,1.15,1.15,0,0,1,.2,1.36.91.91,0,0,1-.67.52.87.87,0,0,1-1-.45.51.51,0,0,1-.07-.31c0-.1,0-.16,0-.14a1.77,1.77,0,0,0,0,.56,1.12,1.12,0,0,0,.95.73,1.3,1.3,0,0,0,1.38-.95,1.75,1.75,0,0,0,0-.91,1.7,1.7,0,0,0-.91-1,1.61,1.61,0,0,0-.76-.16,1.38,1.38,0,0,0-.53,0Z"/></g></svg>