<svg id="Ebene_1" data-name="Ebene 1" xmlns="http://www.w3.org/2000/svg" viewBox="0 0 48 48"><defs><style>.cls-1{stroke:#000;stroke-width:0.09px;}</style></defs><title>ambience-divey</title><path id="path1993" class="cls-1" d="M8.22,7.17,38.88,37.59s1.21,4-3,3.12c-2.55-2.2-14.58-17.25-14.58-17.25.43,0-2.11-3.26-5.5-4.18.1,1.07-1.56-.64-3.36-3.27,5.33,4-3.76-6.2-4.25-8.84Z"/><path id="path1995" class="cls-1" d="M24.64,21.23l2.27,2.27L29.15,19s1.8,3,3.92,1.14c1.63-2.2,7.65-7.66,7.65-7.66l-.92-1-5.1,5.11-6.08,1.77,10.05-7.87L37.61,9.4l-7.54,7.26,1.59-3.22,4.95-4.89-1-1.13-7,8.71s-2.25.57-1.11,2.48Z"/><path id="path1997" class="cls-1" d="M20.75,24.84l2.05,2.55-12.33,13c-1.16.21-3.35-1.93-3.19-2.76Z"/></svg>