<svg id="Ebene_1" data-name="Ebene 1" xmlns="http://www.w3.org/2000/svg" viewBox="0 0 48 48"><title>attire-dressy</title><path d="M26,20.43a6.8,6.8,0,0,1-5.24,0h0L10,40.21l11.24.89a22.06,22.06,0,0,0,4.3,0L38,40.21Z"/><path d="M24.56,19.13a1.21,1.21,0,0,0-2.34,0,8.92,8.92,0,0,1-1.15-.2l-.22.8a10.62,10.62,0,0,0,1.57.23,1.23,1.23,0,0,0,1,.47,1.22,1.22,0,0,0,1-.47,10.75,10.75,0,0,0,1.58-.23l-.22-.8A9.38,9.38,0,0,1,24.56,19.13Z"/><path d="M21,17.37a10.54,10.54,0,0,0,4.87,0l1.82-4.28a2.1,2.1,0,0,0,.61-1.45A2.18,2.18,0,0,0,27,9.73a2.58,2.58,0,0,0,0-.29,3.21,3.21,0,0,0-1.49-2.65,2.06,2.06,0,0,1,.28,1c0,1.22-1.09,3.85-2.44,3.85S21,9,21,7.79a2.05,2.05,0,0,1,.27-1,3.21,3.21,0,0,0-1.49,2.65,2.58,2.58,0,0,0,0,.29,2.18,2.18,0,0,0-1.25,1.91,2.07,2.07,0,0,0,.62,1.45Z"/></svg>