<svg id="Ebene_1" data-name="Ebene 1" xmlns="http://www.w3.org/2000/svg" viewBox="0 0 48 48"><defs><style>.cls-1{fill:#fff;}</style></defs><title>attire-formal</title><path d="M33.82,36.28H36.5L34.71,9.83,27.57,7.94V7L24,24.94,20.43,7v.94L13.29,9.83,11.5,36.28h2.68l1.52-15,1.16,5.53L14.18,37.22l8,3.78L24,33.44,25.79,41l8-3.78L31.14,26.83,32.3,21.3ZM28.46,16.44l2.68-2.83.9,1v.94Z"/><polygon points="24 21.17 25.79 11.72 24.89 9.83 25.79 7.94 22.21 7.94 23.11 9.83 22.21 11.72 24 21.17"/><polygon class="cls-1" points="32.04 14.56 31.14 13.61 28.46 16.44 32.04 15.5 32.04 14.56"/></svg>