<svg id="Ebene_1" data-name="Ebene 1" xmlns="http://www.w3.org/2000/svg" viewBox="0 0 48 48"><defs><style>.cls-1{fill:#fff;}.cls-2{fill:gray;}</style></defs><title>byob-yes-corkage</title><rect x="16.5" y="24.5" width="3" height="7"/><path d="M19.35,20.35l-1.7-1.7a.51.51,0,0,1-.15-.36V11.5h1V10A.52.52,0,0,0,18,9.5H13a.52.52,0,0,0-.52.52V11.5h1v6.79a.51.51,0,0,1-.15.36l-1.7,1.7a.51.51,0,0,0-.15.36V36a.52.52,0,0,0,.52.52h7A.52.52,0,0,0,19.5,36V32.5H16a.5.5,0,0,1-.5-.5V24a.5.5,0,0,1,.5-.5h3.5V20.71A.51.51,0,0,0,19.35,20.35Z"/><path d="M32.5,21.72a5.86,5.86,0,0,0-.44-2.22H20.94a5.86,5.86,0,0,0-.44,2.22,6,6,0,0,0,5.25,5.86v7.51a6,6,0,0,0-3.21,1.41h7.92a6,6,0,0,0-3.21-1.41V27.58A6,6,0,0,0,32.5,21.72ZM22,23.93l-.22-.64A4,4,0,0,1,22,20.24h9a4,4,0,0,1,.22,3.05l-.22.64Z"/><path class="cls-1" d="M22.09,23.81l-.19-.56a3.81,3.81,0,0,1,.18-2.89h8.84a3.81,3.81,0,0,1,.18,2.89l-.19.56Z"/><path d="M30.84,20.49A3.61,3.61,0,0,1,31,23.21l-.16.47H22.18L22,23.21a3.61,3.61,0,0,1,.14-2.72h8.68m.16-.25H22a4,4,0,0,0-.22,3.05l.22.64h9l.22-.64A4,4,0,0,0,31,20.24Z"/><path class="cls-2" d="M34.91,30.5H30.09a1.59,1.59,0,0,0-1.59,1.59v4.82a1.59,1.59,0,0,0,1.59,1.59h4.82a1.59,1.59,0,0,0,1.59-1.59V32.09A1.59,1.59,0,0,0,34.91,30.5Zm-2.16,6.36a2.31,2.31,0,0,1-1.64-.61,2,2,0,0,1-.58-1.18H30v-.34h.46v-.1c0-.11,0-.21,0-.31H30V34h.53a2.1,2.1,0,0,1,.66-1.16,2.37,2.37,0,0,1,1.61-.57,2.65,2.65,0,0,1,1.07.22l-.16.45a2.17,2.17,0,0,0-.91-.19,1.51,1.51,0,0,0-1.06.38,1.48,1.48,0,0,0-.49.87h2.26v.34H31.21a2.64,2.64,0,0,0,0,.29v.12h2.35v.34H31.25a1.51,1.51,0,0,0,.44.9,1.74,1.74,0,0,0,1.14.4,2.35,2.35,0,0,0,1-.23l.14.43A2.52,2.52,0,0,1,32.75,36.86Z"/></svg>