<svg id="Ebene_1" data-name="Ebene 1" xmlns="http://www.w3.org/2000/svg" viewBox="0 0 48 48"><defs><style>.cls-1{fill:none;}.cls-2{fill:#fff;}.cls-3{fill:red;}</style></defs><title>byob-no</title><path class="cls-1" d="M28.23,28.58l0,0v0Z"/><path class="cls-1" d="M32,36.84l-2.26-3v2.21A6.16,6.16,0,0,1,32,36.84Z"/><rect x="19" y="25.5" width="3" height="7"/><path d="M20,12.5h1V11a.52.52,0,0,0-.52-.52h-5A.52.52,0,0,0,15,11v.14l5,6.58Z"/><path d="M16,19.29a.51.51,0,0,1-.15.36l-1.7,1.7a.51.51,0,0,0-.15.36V37a.52.52,0,0,0,.52.52h7A.52.52,0,0,0,22,37V33.5H18.5A.5.5,0,0,1,18,33V25a.5.5,0,0,1,.5-.5H22v-.82l-6-7.9Z"/><path d="M32,36.84a6.16,6.16,0,0,0-2.26-.75V33.88l-1.5-2v4.19A6,6,0,0,0,25,37.5h7.9a1,1,0,0,1-.74-.38Z"/><path d="M24.5,21.24h9a4,4,0,0,1,.22,3.05l-.22.64h-8l2.76,3.65h0v0l1.5,2v-2A6,6,0,0,0,35,22.72a5.86,5.86,0,0,0-.44-2.22H23.44a5.69,5.69,0,0,0-.36,1.3l1,1.33A4,4,0,0,1,24.5,21.24Z"/><path class="cls-2" d="M25.53,24.81l-1.34-1.76a4.05,4.05,0,0,1,.39-1.69h8.84a3.81,3.81,0,0,1,.18,2.89l-.19.56Z"/><path d="M33.34,21.49a3.61,3.61,0,0,1,.14,2.72l-.16.47H25.59L24.34,23a3.62,3.62,0,0,1,.32-1.55h8.68m.16-.25h-9a4,4,0,0,0-.41,1.89l1.38,1.8h8l.22-.64a4,4,0,0,0-.22-3.05Z"/><path class="cls-3" d="M29.75,30.57l-1.5-2,0,0-2.76-3.65-1.38-1.8-1-1.33L20,17.74l-5-6.58-.2-.27a1,1,0,0,0-1.41-.19,1,1,0,0,0-.19,1.41L16,15.78l6,7.9,6.25,8.22,1.5,2,2.26,3,.19.27a1,1,0,0,0,.74.38H33a1.08,1.08,0,0,0,.61-.2,1,1,0,0,0,.19-1.41Z"/></svg>