<svg id="Ebene_1" data-name="Ebene 1" xmlns="http://www.w3.org/2000/svg" viewBox="0 0 48 48"><defs><style>.cls-1{fill:#fff;}</style></defs><title>byob-free</title><rect x="18.5" y="25.5" width="3" height="7"/><path d="M21.35,21.35l-1.7-1.7a.51.51,0,0,1-.15-.36V12.5h1V11A.52.52,0,0,0,20,10.5H15a.52.52,0,0,0-.52.52V12.5h1v6.79a.51.51,0,0,1-.15.36l-1.7,1.7a.51.51,0,0,0-.15.36V37a.52.52,0,0,0,.52.52h7A.52.52,0,0,0,21.5,37V33.5H18a.5.5,0,0,1-.5-.5V25a.5.5,0,0,1,.5-.5h3.5V21.71A.51.51,0,0,0,21.35,21.35Z"/><path d="M34.5,22.72a5.86,5.86,0,0,0-.44-2.22H22.94a5.86,5.86,0,0,0-.44,2.22,6,6,0,0,0,5.25,5.86v7.51a6,6,0,0,0-3.21,1.41h7.92a6,6,0,0,0-3.21-1.41V28.58A6,6,0,0,0,34.5,22.72ZM24,24.93l-.22-.64A4,4,0,0,1,24,21.24h9a4,4,0,0,1,.22,3.05l-.22.64Z"/><path class="cls-1" d="M24.09,24.81l-.19-.56a3.81,3.81,0,0,1,.18-2.89h8.84a3.81,3.81,0,0,1,.18,2.89l-.19.56Z"/><path d="M32.84,21.49A3.61,3.61,0,0,1,33,24.21l-.16.47H24.18L24,24.21a3.61,3.61,0,0,1,.14-2.72h8.68m.16-.25H24a4,4,0,0,0-.22,3.05l.22.64h9l.22-.64A4,4,0,0,0,33,21.24Z"/></svg>