<svg id="Ebene_1" data-name="Ebene 1" xmlns="http://www.w3.org/2000/svg" viewBox="0 0 48 48"><defs><style>.cls-1{stroke:#000;stroke-width:0.26px;}</style></defs><title>diet-halal</title><g id="layer12"><path id="path7787" class="cls-1" d="M4.8,24.22s-2.38,4.33.79,5.63,4.67.71,4.67.71S15,30.18,14.39,24a68,68,0,0,0-2.33-11.72l1.66-2.08s.34,2.41,1.75,2.91c0,0-1,1.55-.91,2.34S16,23,15.89,23.34s.54,5.71-2,7.88A7.45,7.45,0,0,1,8.22,33c-.46,0-4.17-.5-5.09-3.12S4.8,24.22,4.8,24.22Z"/><path id="path7803" class="cls-1" d="M15.87,15.48s7.76,3.23,6.9,10.05a7.62,7.62,0,0,0-5.67-5.75C15.14,19.21,15.87,15.48,15.87,15.48Z"/><path id="path7807" class="cls-1" d="M13.12,32.52s13.45-2.24,14.33-19.16c0,0,.71-5.43,2.48,14.15,0,0,.53,2.59,9.49-.53,0,0-4-3.36-7.78-.18,0,0,1.59-4.19,3.42-4.3a10,10,0,0,1,5.66,1.76,10,10,0,0,0,6.13,1.36l-1.53,3.07a12.7,12.7,0,0,0-3.66-.24c-1.35.24-6.07,2.77-8.9,2.6a5.27,5.27,0,0,1-4.66-2.89c-.35-.95-.35-9.38-.35-9.38S25.15,28,23.86,29.1a12,12,0,0,1-10.74,3.42Z"/></g></svg>