<svg id="Ebene_1" data-name="Ebene 1" xmlns="http://www.w3.org/2000/svg" viewBox="0 0 48 48"><defs><style>.cls-1{stroke:#000;stroke-width:0.26px;}.cls-2{fill:#030000;stroke:#f50000;stroke-linecap:round;stroke-width:5px;}</style></defs><title>diet-glutenfree</title><g id="layer12"><path id="path7820" class="cls-1" d="M42.63,38.23a33,33,0,0,1-13.09-2,21.6,21.6,0,0,0,13,2.74Z"/><path id="path7822" class="cls-1" d="M20.94,38.18s2-3.85,5.08-3.27c2.5.46.91,3.06.9,2.83C26.92,37.74,25.58,39,20.94,38.18Z"/><path id="path7822-5" class="cls-1" d="M15.6,33.71s3-3.09,5.81-1.65c2.26,1.18,0,3.2,0,3,0,0-1.65.82-5.85-1.33Z"/><path id="path7822-59" class="cls-1" d="M11.33,28.41s3.69-2.28,6-.21c1.9,1.68-.79,3.09-.68,2.89C16.69,31.09,14.89,31.5,11.33,28.41Z"/><path id="path7822-2" class="cls-1" d="M9.23,21.76s4.23-1,5.79,1.74c1.26,2.21-1.74,2.68-1.57,2.53C13.45,26,11.61,25.83,9.23,21.76Z"/><path id="path7822-51" class="cls-1" d="M8.46,14.4s4.33.27,5.06,3.31c.59,2.47-2.43,2.08-2.23,2C11.29,19.69,9.59,19,8.46,14.4Z"/><path id="path7822-57" class="cls-1" d="M9.94,7.32s3.93,1.83,3.5,4.93c-.36,2.51-3,1.05-2.8,1,0,0-1.32-1.29-.7-6Z"/><path id="path7822-8" class="cls-1" d="M18.21,5s1.27,4.15-1.33,5.9c-2.1,1.41-2.79-1.55-2.63-1.39C14.25,9.46,14.32,7.61,18.21,5Z"/><path id="path7822-1" class="cls-1" d="M21.17,12.56s-2.69,3.4-5.61,2.27c-2.36-.93-.32-3.18-.35-3,0,0,1.55-1,6,.69Z"/><path id="path7822-3" class="cls-1" d="M20.68,16.25s-1.22,4.16-4.35,4.19c-2.54,0-1.49-2.83-1.44-2.61,0,0,1.08-1.5,5.79-1.58Z"/><path id="path7822-87" class="cls-1" d="M21.06,19.65S21.22,24,18.26,25c-2.4.83-2.31-2.21-2.19-2,0,0,.54-1.76,5-3.33Z"/><path id="path7822-26" class="cls-1" d="M22.67,23.07s1.07,4.2-1.61,5.82c-2.17,1.32-2.72-1.67-2.56-1.51C18.5,27.38,18.65,25.54,22.67,23.07Z"/><path id="path7822-39" class="cls-1" d="M24.84,25.67s2.21,3.73.1,6c-1.71,1.88-3.08-.84-2.88-.73C22.06,31,21.68,29.17,24.84,25.67Z"/><path id="path7822-22" class="cls-1" d="M29,28.09s2.41,3.61.43,6c-1.61,2-3.12-.67-2.92-.57C26.55,33.55,26.08,31.76,29,28.09Z"/><path id="path7924" class="cls-2" d="M41.35,40.24,6.38,6.72"/></g></svg>