<svg id="Ebene_1" data-name="Ebene 1" xmlns="http://www.w3.org/2000/svg" viewBox="0 0 48 48"><defs><style>.cls-1{isolation:isolate;}.cls-2{stroke:#000;stroke-width:0.26px;}.cls-3{fill:#030000;stroke:#f50000;stroke-linecap:round;stroke-width:5px;}</style></defs><title>diet-dairyfree</title><g id="layer7"><g id="text2571" class="cls-1"><g class="cls-1"><path d="M28.82,39.39l-8.4-.12,0-2.54,5.75-1.44-5.7-1.59,0-2.54,8.39.12,0,1.58-6.61-.1,6.58,1.77,0,1.63-6.63,1.56,6.6.1Z"/><path d="M22.06,29.51l-1.49,0,0-1.61,1.48,0Zm6.9.1-6.08-.09,0-1.61L29,28Z"/><path d="M29,26.36l-8.39-.13,0-1.61,8.4.13Z"/><path d="M29.06,23.15,20.67,23l0-1.61,4.46.07L23,19.57l0-2,2.19,2.11,3.9-2.17,0,1.74-2.75,1.48.77.77,1.95,0Z"/></g></g></g><g id="layer6"><path id="path2562" class="cls-2" d="M18,14.47l2.41,2.2s1.34-4.61,1.77-4.45S24.58,10,22,9.28l-.06-1.45h5.84l.05,1.45s-2.84,1.07-.27,2.94c4.5,9.91,3.32,15.37,3.32,15.37l2.95,3v-8.4a25.09,25.09,0,0,0-3.59-10.81c1.64-4.67,0-5.51-1.55-6.43,0,0-7.23-.75-8.84.8s-.26,5.2-.26,5.2Z"/></g><path id="path2564" class="cls-2" d="M16.14,21.68l2.77,2.76,0,14.65s-.06,1.32,1,1.44c1.24.14,9.47,0,9.47,0a1.3,1.3,0,0,0,1.47-1.25,12.33,12.33,0,0,0,0-3l2.87,2.91s-.22,3.52-3.56,4a77.65,77.65,0,0,1-10.67.12c-1.61-.45-3.11-1.12-3.52-4l.22-17.64Z"/><path id="path7924" class="cls-3" d="M37.6,37.46,11.83,10.85"/></svg>