<svg id="Ebene_1" data-name="Ebene 1" xmlns="http://www.w3.org/2000/svg" viewBox="0 0 48 48"><defs><style>.cls-1{fill:none;stroke:#080000;stroke-linecap:round;stroke-width:1.06px;}.cls-2{isolation:isolate;}</style></defs><title>diet-koscher</title><path id="path4038" class="cls-1" d="M41.56,34l-18.08-.25L6.4,34.15l9.26-15.53,8.22-15,8.83,15.78Z"/><path id="path4038-0" class="cls-1" d="M23.93,43.86,15.16,28.05,6.36,13.41l18.09.31,17.07-.3-9.31,15.5Z"/><g id="text7760" class="cls-2"><g class="cls-2"><path d="M15,25.65V21.51h.8v2.2l.93-1.06h1l-1,1.1,1.1,1.9H16.9l-.75-1.35-.37.39v1Z"/><path d="M18,24.11a1.67,1.67,0,0,1,.2-.77,1.35,1.35,0,0,1,.55-.56,1.67,1.67,0,0,1,.8-.2A1.48,1.48,0,0,1,20.7,23a1.51,1.51,0,0,1,.44,1.11,1.55,1.55,0,0,1-.44,1.13,1.48,1.48,0,0,1-1.11.45,1.66,1.66,0,0,1-.78-.19,1.24,1.24,0,0,1-.57-.54A1.84,1.84,0,0,1,18,24.11Zm.82,0a1,1,0,0,0,.21.68.68.68,0,0,0,1,0,1,1,0,0,0,.21-.68,1,1,0,0,0-.21-.68.68.68,0,0,0-1,0A1,1,0,0,0,18.86,24.15Z"/><path d="M21.48,24.79l.8-.12a.58.58,0,0,0,.2.36.72.72,0,0,0,.44.11.75.75,0,0,0,.46-.11.25.25,0,0,0,.11-.21.2.2,0,0,0-.06-.15.6.6,0,0,0-.27-.1A4.35,4.35,0,0,1,22,24.18a.77.77,0,0,1-.36-.68.83.83,0,0,1,.31-.65,1.4,1.4,0,0,1,1-.27,1.62,1.62,0,0,1,.92.21,1,1,0,0,1,.41.59l-.75.14a.44.44,0,0,0-.18-.27.69.69,0,0,0-.38-.1.84.84,0,0,0-.45.09.19.19,0,0,0-.09.16.17.17,0,0,0,.08.15,3.4,3.4,0,0,0,.74.22,2.2,2.2,0,0,1,.88.35.72.72,0,0,1,.25.59.9.9,0,0,1-.34.71,1.51,1.51,0,0,1-1,.3,1.64,1.64,0,0,1-1-.25A1.13,1.13,0,0,1,21.48,24.79Z"/><path d="M25.77,21.51V23a1.16,1.16,0,0,1,1.41-.34.73.73,0,0,1,.33.26,1,1,0,0,1,.15.35,2.81,2.81,0,0,1,0,.59v1.76h-.79V24.07a2.23,2.23,0,0,0-.05-.6.38.38,0,0,0-.15-.2.55.55,0,0,0-.29-.08.6.6,0,0,0-.35.1.52.52,0,0,0-.23.29,1.69,1.69,0,0,0-.07.57v1.5H25V21.51Z"/><path d="M30.24,24.7l.8.13a1.34,1.34,0,0,1-.49.66,1.42,1.42,0,0,1-.82.23,1.35,1.35,0,0,1-1.16-.51,1.8,1.8,0,0,1-.29-1A1.64,1.64,0,0,1,28.67,23a1.25,1.25,0,0,1,1-.43,1.33,1.33,0,0,1,1.06.45,2,2,0,0,1,.37,1.35h-2a.78.78,0,0,0,.19.55.6.6,0,0,0,.46.19.46.46,0,0,0,.31-.1A.53.53,0,0,0,30.24,24.7Zm.05-.81a.81.81,0,0,0-.18-.52.57.57,0,0,0-.84,0,.77.77,0,0,0-.17.51Z"/><path d="M32.48,25.65h-.79v-3h.74v.43a1.2,1.2,0,0,1,.34-.4.65.65,0,0,1,.34-.1,1,1,0,0,1,.52.15l-.24.7A.69.69,0,0,0,33,23.3a.45.45,0,0,0-.28.09.57.57,0,0,0-.18.33,4.22,4.22,0,0,0-.07,1Z"/></g></g></svg>