<svg id="Ebene_1" data-name="Ebene 1" xmlns="http://www.w3.org/2000/svg" viewBox="0 0 48 48"><defs><style>.cls-1,.cls-2,.cls-3,.cls-4,.cls-5{stroke:#000;}.cls-1{stroke-width:1.17px;}.cls-2,.cls-4,.cls-5{fill:none;}.cls-2{stroke-width:2.37px;}.cls-3{stroke-width:0.26px;}.cls-4,.cls-5{stroke-linecap:round;}.cls-4{stroke-width:1.27px;}.cls-5{stroke-width:1.36px;}</style></defs><title>goodfor-breakfast</title><g id="layer2"><path id="path831" class="cls-1" d="M1.89,13.66l15-.06s.47,6.61-4.87,8.81-8.81-3-8.81-3S1.42,16.27,1.89,13.66Z"/><path id="path833" class="cls-2" d="M16.56,15.34s3.19-.64,3.24,0a4.21,4.21,0,0,1-4.23,4.12C16.15,17.2,16.66,16.91,16.56,15.34Z"/><path id="path835" class="cls-3" d="M1.65,23.69H17.14s.18-1.23-.89-1.23l-13.8-.09s-.93.09-.8,1.32Z"/><path id="path841" class="cls-4" d="M9.12,8.81s.93.17-.09,2a1.7,1.7,0,0,0,.6,2.11"/><path id="path843" class="cls-5" d="M11.11,6.41s-.9.72.14,2.29c.68,1-.56,1.81-.56,1.81"/><path id="path847" class="cls-3" d="M15,27.43s-6.78,5.65-5.22,9.8S17,41.69,17,41.69,37,40.59,42.5,30.1c4.63-8.79-11.56-9.63-11.56-9.63s.4,8.2-.41,7.45S27,21.43,27,21.43l-2.61.81s.67,8.12-.31,8.23S20.59,24,20.59,24l-1.92,1s.58,8.67-.35,8.41S15,27.43,15,27.43Z"/></g></svg>