<svg id="Ebene_1" data-name="Ebene 1" xmlns="http://www.w3.org/2000/svg" viewBox="0 0 48 48"><defs><style>.cls-1,.cls-2,.cls-3,.cls-4{stroke:#000;}.cls-1{stroke-width:0.09px;}.cls-2,.cls-3{fill:none;}.cls-2,.cls-3,.cls-4{stroke-linecap:round;}.cls-2{stroke-width:0.79px;}.cls-3,.cls-4{stroke-width:1.39px;}</style></defs><title>goodfor-lunch</title><g id="layer9"><path id="path1993" class="cls-1" d="M16,19.67,31.42,35.16s.61,2-1.52,1.58C28.61,35.62,22.63,28,22.63,28S14.74,26.33,16,19.67Z"/><path id="path1995" class="cls-1" d="M24.18,26.84,25.33,28l1.33-1.51s.72.72,1.8-.22a49.21,49.21,0,0,1,3.89-3.89l-.47-.5-2.59,2.59-.47-.5,2.49-2.6-.54-.54-2.52,2.6-.51-.54,2.52-2.49-.5-.58L25.58,24a1.32,1.32,0,0,0,.07,1.55Z"/><path id="path1997" class="cls-1" d="M22.2,28.67l1,1.3L17,36.6c-.59.1-1.71-1-1.62-1.41Z"/></g><path id="path3767" class="cls-2" d="M36.8,27.28a13.28,13.28,0,1,1,0-.22"/><path id="path3767-8" class="cls-3" d="M41.6,27A18,18,0,1,1,21.75,11,17.93,17.93,0,0,1,41.6,27"/><g id="layer10"><path id="path3866" class="cls-4" d="M27.74,14.79l1.47,3.76L25.79,16.4l-.45,4-2-3.49-2.26,3.34-.18-4-3.56,1.91L19,14.48l-4,0,3.22-2.44-3.59-1.84,4-.66-2.32-3.3,3.83,1.27-.52-4,2.8,2.91,1.4-3.79,1.14,3.88,3-2.71-.79,4,3.91-1L28.5,9.92l3.93.94-3.71,1.59,3.05,2.65Z"/></g></svg>