<svg id="Ebene_1" data-name="Ebene 1" xmlns="http://www.w3.org/2000/svg" viewBox="0 0 48 48"><defs><style>.cls-1,.cls-2,.cls-3,.cls-4{stroke:#000;}.cls-1{stroke-width:0.09px;}.cls-2,.cls-3{fill:none;}.cls-2,.cls-3,.cls-4{stroke-linecap:round;}.cls-2{stroke-width:0.79px;}.cls-3,.cls-4{stroke-width:1.39px;}</style></defs><title>goodfor-latenight</title><g id="layer9"><path id="path1993" class="cls-1" d="M15.57,18.21,31.78,34.47s.65,2.11-1.58,1.66c-1.36-1.17-7.64-9.22-7.64-9.22s-8.28-1.71-7-8.7Z"/><path id="path1995" class="cls-1" d="M24.19,25.74l1.21,1.2,1.4-1.58s.75.75,1.88-.23a50.23,50.23,0,0,1,4.09-4.08l-.5-.53-2.72,2.72-.49-.53L31.67,20l-.57-.57-2.64,2.72-.53-.56L30.57,19l-.52-.61-4.39,4.35a1.38,1.38,0,0,0,.08,1.63Z"/><path id="path1997" class="cls-1" d="M22.11,27.66,23.2,29l-6.57,7c-.62.11-1.79-1-1.7-1.48Z"/></g><path id="path3767" class="cls-2" d="M37.43,26.2a13.86,13.86,0,1,1,0-.23"/><path id="path3767-8" class="cls-3" d="M42.47,25.87A18.94,18.94,0,0,1,4.79,29.76a18.94,18.94,0,0,1,37.67-3.94"/><g id="layer10"><path id="path3785" class="cls-4" d="M23.21,2.5a8.27,8.27,0,0,0-.86,0,8.59,8.59,0,0,0,1.92,17.08,8.16,8.16,0,0,0,1.94-.45,10.07,10.07,0,0,1-3.71-6.63,10,10,0,0,1,4.26-9.34,8.5,8.5,0,0,0-3.55-.71Z"/><path id="path3854" class="cls-4" d="M31.15,7l-.68-.75-1,.13L30,5.5l-.43-.91,1,.21.74-.7.1,1,.89.48L31.33,6Z"/><path id="path3856" class="cls-4" d="M33.89,11.69l-1.37.14L31.87,13l-.57-1.25L30,11.54l1-.92-.18-1.37L32,9.94l1.24-.59-.28,1.34Z"/><path id="path3858" class="cls-4" d="M26.81,16.26l.8-1L27.22,14l1.23.45,1.06-.76,0,1.31,1.05.77-1.26.36-.42,1.25-.73-1.09Z"/></g></svg>