<svg id="Ebene_1" data-name="Ebene 1" xmlns="http://www.w3.org/2000/svg" viewBox="0 0 48 48"><defs><style>.cls-1,.cls-2,.cls-3,.cls-4{stroke:#000;}.cls-1{stroke-width:0.09px;}.cls-2,.cls-3{fill:none;}.cls-2,.cls-3,.cls-4{stroke-linecap:round;}.cls-2{stroke-width:0.79px;}.cls-3,.cls-4{stroke-width:1.39px;}</style></defs><title>goodfor-dinner</title><g id="layer9"><path id="path1993" class="cls-1" d="M15.56,17.79,32.07,34.34s.65,2.15-1.62,1.69c-1.38-1.19-7.77-9.39-7.77-9.39s-8.43-1.73-7.12-8.85Z"/><path id="path1995" class="cls-1" d="M24.33,25.45l1.23,1.23L27,25.06s.77.77,1.92-.23a52.52,52.52,0,0,1,4.16-4.16l-.5-.54L29.8,22.91l-.5-.54L32,19.6,31.38,19l-2.7,2.77-.54-.58,2.7-2.65-.54-.62-4.47,4.43A1.39,1.39,0,0,0,25.91,24Z"/><path id="path1997" class="cls-1" d="M22.22,27.41l1.11,1.38-6.7,7.09c-.63.11-1.82-1.05-1.73-1.5Z"/></g><path id="path3767" class="cls-2" d="M37.82,25.92a14,14,0,1,1,0-.24"/><path id="path3767-8" class="cls-3" d="M43,25.58a19.29,19.29,0,0,1-38.37,4,19.29,19.29,0,0,1,38.37-4"/><g id="layer10"><path id="path3785" class="cls-4" d="M23.34,1.78a8.75,8.75,0,1,0,1.08,17.45,8.93,8.93,0,0,0,2-.45A10.29,10.29,0,0,1,22.62,12,10.21,10.21,0,0,1,27,2.51a8.64,8.64,0,0,0-3.61-.73Z"/></g></svg>