<svg id="Ebene_1" data-name="Ebene 1" xmlns="http://www.w3.org/2000/svg" viewBox="0 0 48 48"><defs><style>.cls-1,.cls-2,.cls-3{stroke:#000;}.cls-1{stroke-width:0.86px;}.cls-2{fill:#fff;}.cls-2,.cls-3{stroke-width:1.97px;}.cls-3{stroke-linecap:round;}</style></defs><title>goodfor-brunch</title><g id="layer4"><path id="path1424" class="cls-1" d="M41.74,16.12l-.06,21.05a3.36,3.36,0,0,1-2.55,3.56c-2.82.74-24.66.17-24.66.17L12.94,16.24s-5.09-3.51,0-7.24S29.8,6.51,29.8,6.51s9.28.28,12,2.37c2.48,1.91,3.85,3.57,0,7.24Z"/></g><path id="path1420" class="cls-2" d="M9.44,18.56l8.42-4S21,12.79,23.13,12.9s6.27-.06,8,4.3a21.87,21.87,0,0,1,.79,11.48,28.4,28.4,0,0,1-2.66,6.11S23,40.9,20.07,40.5,12.43,42.15,8.3,38.3s-4.69-5.66-4.69-5.66-3-7.47,5.83-14.08Z"/><path id="path1422" class="cls-3" d="M23.66,27.42a5.56,5.56,0,0,1-4.77,6.15,5.44,5.44,0,0,1-6-4.9,5.55,5.55,0,0,1,4.67-6.22,5.43,5.43,0,0,1,6,4.79"/></svg>