<svg id="Ebene_1" data-name="Ebene 1" xmlns="http://www.w3.org/2000/svg" viewBox="0 0 48 48"><defs><style>.cls-1{fill:#bbb;}</style></defs><title>icon-placeholder</title><path class="cls-1" d="M42.56,13.24A21,21,0,0,1,45.44,24a21,21,0,0,1-2.88,10.76,21.34,21.34,0,0,1-7.8,7.8A21,21,0,0,1,24,45.44a21,21,0,0,1-10.76-2.87,21.33,21.33,0,0,1-7.8-7.8A21,21,0,0,1,2.56,24,21,21,0,0,1,5.43,13.24a21.33,21.33,0,0,1,7.8-7.8A21,21,0,0,1,24,2.56,21,21,0,0,1,34.76,5.44,21.34,21.34,0,0,1,42.56,13.24Zm-7.84,5.4a7.5,7.5,0,0,0-1.55-4.55,10.87,10.87,0,0,0-8.61-4.38A11.4,11.4,0,0,0,14.2,15.65a.8.8,0,0,0,.22,1.17l3.68,2.79a.79.79,0,0,0,.53.17.82.82,0,0,0,.7-.34,13.93,13.93,0,0,1,2.4-2.57,4.05,4.05,0,0,1,2.4-.67,4.1,4.1,0,0,1,2.39.72,2,2,0,0,1,1,1.65,2.51,2.51,0,0,1-.56,1.7,5.66,5.66,0,0,1-1.9,1.26A9.56,9.56,0,0,0,21.89,24a5.17,5.17,0,0,0-1.47,3.5v1a.86.86,0,0,0,.89.89h5.36a.86.86,0,0,0,.89-.89,2.66,2.66,0,0,1,.6-1.38,4.74,4.74,0,0,1,1.52-1.38q.89-.5,1.37-.79a11.61,11.61,0,0,0,1.28-1,6.44,6.44,0,0,0,1.24-1.34,7.29,7.29,0,0,0,.78-1.69A7,7,0,0,0,34.72,18.64ZM27.57,37.4V32a.86.86,0,0,0-.89-.89H21.32a.86.86,0,0,0-.89.89V37.4a.86.86,0,0,0,.89.89h5.36a.88.88,0,0,0,.64-.25A.87.87,0,0,0,27.57,37.4Z"/></svg>