<svg id="Ebene_1" data-name="Ebene 1" xmlns="http://www.w3.org/2000/svg" viewBox="0 0 48 48"><defs><style>.cls-1{fill:#fff;}.cls-2{fill:#bbb;}</style></defs><title>icon-placeholder</title><path class="cls-1" d="M26.68,31.15H21.32a.84.84,0,0,0-.64.25.86.86,0,0,0-.25.64V37.4a.87.87,0,0,0,.89.9h5.36a.87.87,0,0,0,.64-.26.84.84,0,0,0,.25-.64V32a.86.86,0,0,0-.89-.89Z"/><path class="cls-1" d="M29.3,10.85a10.6,10.6,0,0,0-4.74-1.14A11.4,11.4,0,0,0,14.2,15.65a.8.8,0,0,0,.22,1.18l3.69,2.79a.8.8,0,0,0,.53.17.84.84,0,0,0,.7-.34,13.83,13.83,0,0,1,2.4-2.57,4,4,0,0,1,2.4-.67,4.07,4.07,0,0,1,2.39.73,2,2,0,0,1,1,1.64A2.48,2.48,0,0,1,27,20.29a5.59,5.59,0,0,1-1.89,1.25A9.52,9.52,0,0,0,21.89,24a5.15,5.15,0,0,0-1.46,3.5v1a.86.86,0,0,0,.25.64.84.84,0,0,0,.64.25h5.36a.86.86,0,0,0,.89-.89,2.7,2.7,0,0,1,.6-1.39,4.91,4.91,0,0,1,1.52-1.38c.6-.33,1.06-.6,1.37-.79a11.56,11.56,0,0,0,1.29-1,6.29,6.29,0,0,0,1.24-1.34,7.23,7.23,0,0,0,.78-1.69,7.09,7.09,0,0,0,.35-2.26,7.51,7.51,0,0,0-1.55-4.55A10.45,10.45,0,0,0,29.3,10.85Z"/><path class="cls-2" d="M45.44,24a20.93,20.93,0,0,0-2.88-10.76,21.15,21.15,0,0,0-7.8-7.8c-.26-.16-.54-.3-.8-.44A21,21,0,0,0,24,2.56,21,21,0,0,0,14,5c-.27.14-.54.28-.8.44a21.25,21.25,0,0,0-7.81,7.8,22,22,0,0,0-1.43,3A21.49,21.49,0,0,0,5.43,34.76,21.88,21.88,0,0,0,8.66,39a21.49,21.49,0,0,0,4.58,3.57A21,21,0,0,0,24,45.44a21,21,0,0,0,10.76-2.87,21.53,21.53,0,0,0,7.8-7.81A20.93,20.93,0,0,0,45.44,24ZM34.72,18.64a7.09,7.09,0,0,1-.35,2.26,7.23,7.23,0,0,1-.78,1.69,6.29,6.29,0,0,1-1.24,1.34,11.56,11.56,0,0,1-1.29,1c-.31.19-.77.46-1.37.79a4.91,4.91,0,0,0-1.52,1.38,2.7,2.7,0,0,0-.6,1.39.86.86,0,0,1-.89.89H21.32a.84.84,0,0,1-.64-.25.86.86,0,0,1-.25-.64v-1A5.15,5.15,0,0,1,21.89,24a9.52,9.52,0,0,1,3.23-2.42A5.59,5.59,0,0,0,27,20.29a2.48,2.48,0,0,0,.56-1.71,2,2,0,0,0-1-1.64,4.07,4.07,0,0,0-2.39-.73,4,4,0,0,0-2.4.67,13.83,13.83,0,0,0-2.4,2.57.84.84,0,0,1-.7.34.8.8,0,0,1-.53-.17l-3.69-2.79a.8.8,0,0,1-.22-1.18A11.4,11.4,0,0,1,24.56,9.71a10.6,10.6,0,0,1,4.74,1.14,10.45,10.45,0,0,1,3.87,3.24A7.51,7.51,0,0,1,34.72,18.64ZM27.57,32V37.4a.84.84,0,0,1-.25.64.87.87,0,0,1-.64.26H21.32a.87.87,0,0,1-.89-.9V32a.86.86,0,0,1,.25-.64.84.84,0,0,1,.64-.25h5.36a.86.86,0,0,1,.89.89Z"/></svg>