<svg id="Ebene_1" data-name="Ebene 1" xmlns="http://www.w3.org/2000/svg" viewBox="0 0 48 48"><defs><style>.cls-1,.cls-3,.cls-4{fill:none;}.cls-1,.cls-2,.cls-3,.cls-4{stroke:#000;stroke-miterlimit:10;}.cls-1{stroke-width:3px;}.cls-2,.cls-3{stroke-width:0.5px;}</style></defs><title>music-jukebox</title><polyline class="cls-1" points="39.28 45.03 39.28 18.57 8.79 18.57 8.79 45.5"/><path class="cls-1" d="M24,18.57H39.28C39.28,9.75,32.4,2.5,24,2.5s-15.2,7.2-15.24,16Z"/><line class="cls-1" x1="7.24" y1="44.5" x2="40.76" y2="44.92"/><path class="cls-2" d="M22,11.05c0,.66-1,1.19-2.12,1.19s-2.13-.53-2.13-1.19,1-1.18,2.13-1.18S22,10.4,22,11.05Z"/><path class="cls-3" d="M22,11.05V5.13a5.64,5.64,0,0,0,2.83,1.18,5.58,5.58,0,0,0,1.42,0"/><path class="cls-2" d="M28.34,15.71c-.24.72-1.49,1.07-2.8.77s-2.17-1.13-1.93-1.86,1.49-1.07,2.79-.77S28.57,15,28.34,15.71Z"/><path class="cls-3" d="M28.17,15.71,30,10a5,5,0,0,0,2.36,1.77,5.48,5.48,0,0,0,1.36.32"/><rect class="cls-4" x="13.23" y="22.02" width="21.81" height="19.49" rx="2.41"/><line class="cls-3" x1="13.23" y1="35.17" x2="18.24" y2="41.44"/><line class="cls-3" x1="13.23" y1="30.59" x2="22.05" y2="41.63"/><line class="cls-3" x1="13.23" y1="27.3" x2="24.56" y2="41.48"/><line class="cls-3" x1="13.65" y1="23.33" x2="28.06" y2="41.36"/><line class="cls-3" x1="16.22" y1="22.02" x2="31.69" y2="41.39"/><line class="cls-3" x1="19.35" y1="22.02" x2="34.24" y2="40.66"/><line class="cls-3" x1="22.59" y1="22.02" x2="34.97" y2="37.52"/><line class="cls-3" x1="25.88" y1="22.02" x2="34.98" y2="33.41"/><line class="cls-3" x1="28.78" y1="22.02" x2="35.01" y2="29.81"/><line class="cls-3" x1="31.79" y1="22.02" x2="35.02" y2="26.07"/><line class="cls-3" x1="13.88" y1="40.25" x2="28.46" y2="22"/><line class="cls-3" x1="17.13" y1="41.5" x2="32.74" y2="21.96"/><line class="cls-3" x1="21.44" y1="41.5" x2="35.05" y2="24.46"/><line class="cls-3" x1="25.32" y1="41.5" x2="35.07" y2="29.3"/><line class="cls-3" x1="29.44" y1="41.5" x2="35.08" y2="34.44"/><line class="cls-3" x1="13.23" y1="35.4" x2="23.95" y2="21.98"/><line class="cls-3" x1="13.23" y1="31.13" x2="20.54" y2="21.98"/><line class="cls-3" x1="13.23" y1="26.55" x2="16.87" y2="22"/></svg>