<svg id="Ebene_1" data-name="Ebene 1" xmlns="http://www.w3.org/2000/svg" viewBox="0 0 48 48"><defs><style>.cls-1{stroke:#000;}.cls-1,.cls-2,.cls-3{stroke-miterlimit:10;}.cls-2{fill:#fff;}.cls-2,.cls-3{stroke:#fff;stroke-width:0.5px;}.cls-3{fill:none;}</style></defs><title>music-video</title><rect class="cls-1" x="4.79" y="14.5" width="31" height="19" rx="2.31"/><polygon class="cls-1" points="31.4 24 43.21 33.24 43.21 14.76 31.4 24"/><path class="cls-2" d="M17.1,24.24c0,.93-1.13,1.68-2.53,1.68S12,25.17,12,24.24s1.13-1.69,2.53-1.69S17.1,23.31,17.1,24.24Z"/><path class="cls-3" d="M17.1,24.24V15.81a5.94,5.94,0,0,0,5,1.69"/><path class="cls-2" d="M23,30.86c-.25.9-1.54,1.33-2.89,1s-2.23-1.4-2-2.3,1.54-1.32,2.88-.95S23.19,30,23,30.86Z"/><path class="cls-3" d="M23,30.86l2.22-8.13A6.32,6.32,0,0,0,28,25.25a6.16,6.16,0,0,0,1.62.45"/></svg>