<svg id="Ebene_1" data-name="Ebene 1" xmlns="http://www.w3.org/2000/svg" viewBox="0 0 48 48"><defs><style>.cls-1{fill:red;stroke:red;stroke-miterlimit:10;stroke-width:0.5px;}</style></defs><title>music-live</title><path class="cls-1" d="M7.35,4.93a2.7,2.7,0,1,1-2.7-2.7A2.7,2.7,0,0,1,7.35,4.93Z"/><path d="M10.25,2.68h.94v5H14.3v.6H10.25Z"/><path d="M16.29,2.68V8.26h-.94V2.68Z"/><path d="M19.53,8.26,17.15,2.68h1L19.3,5.43c.31.75.58,1.43.78,2.09h0c.21-.65.51-1.35.83-2.08l1.23-2.76h1L20.56,8.26Z"/><path d="M27.73,5.64H24.89v2h3.16v.6H24V2.68h3.93v.6h-3V5.05h2.84Z"/><path d="M17.27,46.67H14.82a1.65,1.65,0,0,0-.42-.16,12.49,12.49,0,0,1-10-8.08,25.21,25.21,0,0,1-.84-3V32.94a22.05,22.05,0,0,1,.86-3,10.25,10.25,0,0,1,9.44-6.56c1.63-.09,3.11-.45,3.9-2A7.6,7.6,0,0,1,27.33,18a.94.94,0,0,0,.81-.08c2.3-2.26,4.56-4.54,6.83-6.81-.8-1.15-.88-1.79-.32-2.38s1.23-.53,2.4.24l1.77-1.78c-1-1.27-.94-1.87.25-2.77.43-.27.52-.21.94,0l.86.74c1.15-.87,1.68-.83,2.65.13l1.33,1.32c1.1,1.11,1.14,1.5.28,2.83l.71.81c.22.3.34.57,0,.94-.88,1.19-1.5,1.25-2.6.39l-2,1.66c.8,1,.88,1.74.33,2.32s-1.21.53-2.5-.28c-2.12,2.14-4.24,4.31-6.41,6.44a1.25,1.25,0,0,0-.35,1.54,7.25,7.25,0,0,1-2.92,8.87,4.92,4.92,0,0,0-2.54,4.47,10.23,10.23,0,0,1-4.41,8.11A12.61,12.61,0,0,1,17.27,46.67Zm5.24-15.62a3.34,3.34,0,1,0-3.35-3.31A3.34,3.34,0,0,0,22.51,31.05Zm-6.05,9.44,1.87-1.76-6.86-6.87L9.66,33.69Z"/></svg>