<svg id="Ebene_1" data-name="Ebene 1" xmlns="http://www.w3.org/2000/svg" viewBox="0 0 48 48"><defs><style>.cls-1{fill:#fdfdfd;}.cls-2{fill:#f7f7f7;}</style></defs><title>music-dj</title><path d="M31.17,28.7c-1.24-1.07-2.4-1.45-3.66-.64S26.17,30,26.42,31.32c.4,2.11.64,4.25,1,6.36.19,1,0,1.43-1,1.69A19.25,19.25,0,1,1,40.69,17.73c.08.5.1,1,.14,1.51s.14.83-.5.89c-.47,0-.83.16-1-.54a2.1,2.1,0,0,0-2.18-1.72A2.18,2.18,0,0,0,34.9,19.5c-.16.49-.36.51-.87.44a2.33,2.33,0,0,0-2.85,2.48C31.14,24.44,31.17,26.45,31.17,28.7Z"/><path d="M45.48,32.14c0,2,0,3.93,0,5.9a8.47,8.47,0,0,1-7.61,8.45,8.33,8.33,0,0,1-9-7.05c-.55-2.92-1-5.86-1.43-8.79a1.46,1.46,0,0,1,1.28-1.9c1-.15,1.54.44,1.71,1.38s.28,2.08.49,3.11c.1.48-.05,1.27.75,1.24s.58-.79.58-1.28c0-3.29,0-6.59,0-9.88,0-.32,0-.64,0-1,.07-.76.4-1.35,1.24-1.37s1.3.57,1.31,1.41c0,2.7,0,5.4,0,8.1,0,.58-.46,1.66.54,1.65.82,0,.41-1,.42-1.61,0-3.2,0-6.4,0-9.6,0-1,0-2,1.32-2s1.23,1,1.23,1.89q0,4.53,0,9.06c0,.27,0,.55,0,.82s-.09.93.52.94.48-.55.48-.92c0-2.15,0-4.3,0-6.45V22.81c0-.87.25-1.59,1.26-1.61s1.28.68,1.28,1.57V30c0,.46,0,.92,0,1.37s-.24,1.3.55,1.3.45-.78.45-1.23c0-1.92,0-3.84,0-5.76,0-.94.28-1.7,1.34-1.68s1.21.78,1.2,1.65c0,2.15,0,4.3,0,6.45Z"/><path class="cls-1" d="M15.13,20.67a6.58,6.58,0,1,1,13.16.07,6.62,6.62,0,0,1-6.7,6.55A6.55,6.55,0,0,1,15.13,20.67Z"/><path d="M21.72,25.64a4.94,4.94,0,0,1-.12-9.88,4.94,4.94,0,1,1,.12,9.88Z"/><path class="cls-2" d="M21.78,21.88c-.85,0-1.3-.49-1.28-1.21a1.19,1.19,0,0,1,2.38,0A1.13,1.13,0,0,1,21.78,21.88Z"/></svg>