<svg id="Ebene_1" data-name="Ebene 1" xmlns="http://www.w3.org/2000/svg" viewBox="0 0 48 48"><defs><style>.cls-1,.cls-2,.cls-3{stroke:#000;stroke-miterlimit:10;stroke-width:0.5px;}.cls-2{fill:#fff;}.cls-3{fill:none;}</style></defs><title>music-background</title><rect class="cls-1" x="6.29" y="7" width="24" height="34" rx="1.22"/><circle class="cls-2" cx="18.29" cy="31" r="8"/><path class="cls-2" d="M22.29,15a4,4,0,1,1-4-4A4,4,0,0,1,22.29,15Z"/><circle class="cls-1" cx="18.29" cy="31" r="4"/><ellipse class="cls-1" cx="32.79" cy="14" rx="1.5" ry="1"/><path class="cls-3" d="M34.29,14V9a3.7,3.7,0,0,0,2,1,3.33,3.33,0,0,0,1,0"/><path class="cls-1" d="M37.76,17.93c-.15.53-.91.79-1.71.57s-1.33-.83-1.18-1.36.91-.79,1.71-.57S37.91,17.4,37.76,17.93Z"/><path class="cls-3" d="M37.76,17.93l1.32-4.82a3.73,3.73,0,0,0,1.67,1.49,3.15,3.15,0,0,0,1,.26"/></svg>