<svg id="Ebene_1" data-name="Ebene 1" xmlns="http://www.w3.org/2000/svg" viewBox="0 0 48 48"><title>smoking-yes</title><rect x="8" y="29.27" width="26.43" height="3.96"/><rect x="35.83" y="29.27" width="1.39" height="3.96"/><rect x="38.61" y="29.27" width="1.39" height="3.96"/><path d="M36.52,28.61a.7.7,0,0,1-.68-.53l-.06-.29A7.51,7.51,0,0,0,28.34,22a8,8,0,0,1-7.8-5.77.66.66,0,0,1,.51-.8.69.69,0,0,1,.84.48,6.58,6.58,0,0,0,6.45,4.77,8.89,8.89,0,0,1,8.8,6.84l.06.29a.65.65,0,0,1-.54.77Z"/><path d="M39.11,28.56a.68.68,0,0,1-.64-.48l-1.1-3.64c-.22-.55-.3-.59-1.1-.9a3.19,3.19,0,0,1-1.76-1.65L33.61,20a1,1,0,0,0-.81-.39c-.74,0-1.71,0-2.41.06-.43,0-.76,0-.9,0a6.15,6.15,0,0,1-4.2-1.2,2.71,2.71,0,0,1-1.07-2.14v-.87a.67.67,0,1,1,1.34,0v.87a1.36,1.36,0,0,0,.54,1.08,4.73,4.73,0,0,0,3.28.93l.95,0c.73,0,1.73-.08,2.49-.07a2.36,2.36,0,0,1,2,1.09l.94,2a1.88,1.88,0,0,0,1,1A2.56,2.56,0,0,1,38.63,24l1.12,3.7a.66.66,0,0,1-.45.83A.58.58,0,0,1,39.11,28.56Z"/></svg>