<svg id="Ebene_1" data-name="Ebene 1" xmlns="http://www.w3.org/2000/svg" viewBox="0 0 48 48"><defs><style>.cls-1{fill:red;}</style></defs><title>smoking-no</title><polygon points="8 25.18 8 28.59 27.77 28.59 24.6 25.18 8 25.18"/><polygon points="34.44 28.59 34.44 25.18 29.16 25.18 32.32 28.59 34.44 28.59"/><rect x="35.83" y="25.18" width="1.39" height="3.4"/><rect x="38.61" y="25.18" width="1.39" height="3.4"/><path d="M28.34,18.94c3.61,0,6.73,2.09,7.44,5l.06.25a.68.68,0,0,0,.68.46h.14a.58.58,0,0,0,.54-.67l-.06-.25c-.83-3.41-4.53-5.88-8.8-5.88-3.05,0-5.71-1.69-6.45-4.11a.71.71,0,0,0-.84-.41.57.57,0,0,0-.51.68C21.44,16.9,24.65,18.94,28.34,18.94Z"/><path class="cls-1" d="M32.32,28.59l-3.16-3.41L16.5,11.57a2,2,0,0,0-2.5-.23,1.38,1.38,0,0,0-.28,2.14L24.6,25.18l3.17,3.41,7.29,7.84a1.91,1.91,0,0,0,1.39.57,2,2,0,0,0,1.11-.33,1.4,1.4,0,0,0,.27-2.16Z"/><path d="M39.11,24.57a.58.58,0,0,0,.19,0,.56.56,0,0,0,.45-.72l-1.12-3.18a2.49,2.49,0,0,0-1.88-1.46,1.79,1.79,0,0,1-1-.83l-.94-1.73a2.46,2.46,0,0,0-2-.94c-.76,0-1.76,0-2.49.06-.39,0-.7,0-.95,0A5.29,5.29,0,0,1,26.1,15a1.13,1.13,0,0,1-.54-.93v-.76a.68.68,0,0,0-1.34,0v.76a2.24,2.24,0,0,0,1.07,1.84,7,7,0,0,0,4.2,1c.14,0,.47,0,.9,0,.7,0,1.67-.07,2.41-.06a1.08,1.08,0,0,1,.81.34l.9,1.66a3.06,3.06,0,0,0,1.76,1.42c.8.26.88.3,1.1.77l1.1,3.14A.68.68,0,0,0,39.11,24.57Z"/></svg>