<svg id="Ebene_1" data-name="Ebene 1" xmlns="http://www.w3.org/2000/svg" viewBox="0 0 48 48"><defs><style>.cls-1{fill:gray;}</style></defs><title>smoking-outdoor</title><rect x="9.8" y="29.96" width="23.79" height="4.01"/><rect x="34.84" y="29.96" width="1.25" height="4.01"/><rect x="37.35" y="29.96" width="1.25" height="4.01"/><path d="M35.47,29.29a.64.64,0,0,1-.61-.54l-.06-.29a7,7,0,0,0-6.69-5.85,7.33,7.33,0,0,1-7-5.85.68.68,0,0,1,.45-.81.62.62,0,0,1,.76.49,6.07,6.07,0,0,0,5.81,4.84A8.24,8.24,0,0,1,36,28.2l0,.29a.67.67,0,0,1-.49.79Z"/><path d="M37.8,29.24a.62.62,0,0,1-.58-.48l-1-3.69c-.2-.55-.28-.6-1-.91a3,3,0,0,1-1.59-1.67l-.81-1.95a.9.9,0,0,0-.73-.41c-.66,0-1.54,0-2.17.07-.39,0-.69,0-.81,0A5.11,5.11,0,0,1,25.36,19a2.89,2.89,0,0,1-1-2.17V16a.6.6,0,1,1,1.2,0v.89a1.47,1.47,0,0,0,.49,1.1,4,4,0,0,0,2.95.93l.86,0c.65,0,1.56-.08,2.24-.06a2.08,2.08,0,0,1,1.76,1.09l.85,2a1.78,1.78,0,0,0,.92,1,2.46,2.46,0,0,1,1.7,1.72l1,3.75a.7.7,0,0,1-.41.84A.47.47,0,0,1,37.8,29.24Z"/><path class="cls-1" d="M19.91,14H12.09a2.87,2.87,0,0,0-2.69,3v8.8a2.87,2.87,0,0,0,2.69,3h7.82a2.87,2.87,0,0,0,2.69-3v-8.8A2.87,2.87,0,0,0,19.91,14ZM15.59,27.49h-.83v-5.3l-1-.9.27-.35.69.65V20.5a2.37,2.37,0,0,1-2.06-2.29,2.48,2.48,0,0,1,4.95,0,2.37,2.37,0,0,1-2.06,2.29v2.32l1.94-1.55.24.38-2.18,1.74Z"/></svg>