<svg id="Ebene_1" data-name="Ebene 1" xmlns="http://www.w3.org/2000/svg" viewBox="0 0 48 48"><title>smoke-no</title><path d="M15.73,28.08V20h1.14l2.59,4.09a23,23,0,0,1,1.45,2.63h0c-.1-1.08-.12-2.06-.12-3.32V20h1v8.08H20.74L18.17,24a25.83,25.83,0,0,1-1.51-2.7h0c.06,1,.08,2,.08,3.33v3.45Z"/><path d="M28.84,25.13A2.84,2.84,0,0,1,26,28.21a2.76,2.76,0,0,1-2.78-3A2.83,2.83,0,0,1,26,22.14,2.75,2.75,0,0,1,28.84,25.13Zm-4.61.06c0,1.27.73,2.23,1.76,2.23s1.76-.95,1.76-2.25c0-1-.49-2.23-1.74-2.23S24.24,24.08,24.24,25.18Z"/></svg>