<svg id="Ebene_1" data-name="Ebene 1" xmlns="http://www.w3.org/2000/svg" viewBox="0 0 48 48"><defs><style>.cls-1{fill:red;}</style></defs><title>wifi-no</title><path d="M14.17,20.39a1,1,0,0,0,0,1.41,1,1,0,0,0,1.41,0,12.48,12.48,0,0,1,2.54-1.92l-1.26-1.57A14.26,14.26,0,0,0,14.17,20.39Z"/><path d="M33.83,20.39a13.92,13.92,0,0,0-15.15-3L20,19A11.92,11.92,0,0,1,32.42,21.8a1,1,0,0,0,1.41,0A1,1,0,0,0,33.83,20.39Z"/><path d="M24,23a7.8,7.8,0,0,1,5.52,2.29,1,1,0,0,0,1.41,0,1,1,0,0,0,0-1.41A9.7,9.7,0,0,0,24,21a10,10,0,0,0-2.2.26l1.42,1.78C23.48,23,23.74,23,24,23Z"/><path d="M17.07,23.89a1,1,0,0,0,1.41,1.41,8,8,0,0,1,2.6-1.72L19.79,22A9.82,9.82,0,0,0,17.07,23.89Z"/><path d="M20,27.38a1,1,0,0,0,1.42,1.42,3.7,3.7,0,0,1,3.06-1l-1.57-2A5.77,5.77,0,0,0,20,27.38Z"/><path d="M28,28.8a1,1,0,0,0,0-1.42A5.63,5.63,0,0,0,25.54,26l2.35,2.94A1.1,1.1,0,0,0,28,28.8Z"/><path d="M24,30.5a1,1,0,0,0,0,2h0a1,1,0,0,0,0-2Z"/><path class="cls-1" d="M17.48,15.88a1,1,0,1,0-1.56,1.24l.94,1.19,1.26,1.57L19.79,22l1.29,1.61,1.8,2.24,1.57,2,3.47,4.33a1,1,0,0,0,.78.38,1,1,0,0,0,.62-.22,1,1,0,0,0,.16-1.4l-1.59-2L25.54,26l-2.32-2.9L21.8,21.27,20,19l-1.32-1.65Z"/></svg>