<svg id="Ebene_1" data-name="Ebene 1" xmlns="http://www.w3.org/2000/svg" viewBox="0 0 48 48"><title>wifi-yes</title><path d="M33.83,20a13.92,13.92,0,0,0-19.66,0,1,1,0,1,0,1.41,1.41,11.93,11.93,0,0,1,16.84,0,1,1,0,0,0,1.41,0A1,1,0,0,0,33.83,20Z"/><path d="M24,20.6a9.7,9.7,0,0,0-6.93,2.88,1,1,0,1,0,1.41,1.41,7.8,7.8,0,0,1,11,0,1,1,0,0,0,1.41,0,1,1,0,0,0,0-1.41A9.7,9.7,0,0,0,24,20.6Z"/><path d="M24,25.3A5.66,5.66,0,0,0,20,27a1,1,0,0,0,0,1.41,1,1,0,0,0,1.42,0,3.79,3.79,0,0,1,5.22,0A1,1,0,0,0,28,27,5.66,5.66,0,0,0,24,25.3Z"/><path d="M24,30.09a1,1,0,1,0,0,2h0a1,1,0,0,0,0-2Z"/></svg>