<svg id="Ebene_1" data-name="Ebene 1" xmlns="http://www.w3.org/2000/svg" viewBox="0 0 48 48"><defs><style>.cls-1{fill:gray;}.cls-2{fill:#fff;}</style></defs><title>wifi-paid</title><path d="M32.13,21.39a1,1,0,0,0,1.41,0,1,1,0,0,0,0-1.41,13.92,13.92,0,0,0-19.66,0,1,1,0,0,0,0,1.41,1,1,0,0,0,1.42,0A11.91,11.91,0,0,1,32.13,21.39Z"/><path d="M30.64,23.48a9.78,9.78,0,0,0-13.86,0,1,1,0,1,0,1.41,1.41,7.78,7.78,0,0,1,10.09-.8h2.64A.91.91,0,0,0,30.64,23.48Z"/><path d="M23.71,25.3a5.62,5.62,0,0,0-4,1.67,1,1,0,0,0,1.41,1.41,3.79,3.79,0,0,1,5.22,0l.09.06V26A5.61,5.61,0,0,0,23.71,25.3Z"/><path d="M23.71,30.09a1,1,0,1,0,0,2h0a1,1,0,0,0,0-2Z"/><path class="cls-1" d="M32.82,24.09H28a1.59,1.59,0,0,0-1.59,1.59V30.5A1.59,1.59,0,0,0,28,32.09h4.82a1.59,1.59,0,0,0,1.59-1.59V25.68A1.59,1.59,0,0,0,32.82,24.09Zm-2.15,6.36A2.32,2.32,0,0,1,29,29.83a1.9,1.9,0,0,1-.58-1.17h-.5v-.34h.46v-.1a2.85,2.85,0,0,1,0-.31h-.48v-.35h.53a2,2,0,0,1,.67-1.15,2.28,2.28,0,0,1,1.6-.57,2.49,2.49,0,0,1,1.07.22l-.16.45a2.15,2.15,0,0,0-.9-.19,1.56,1.56,0,0,0-1.07.37,1.51,1.51,0,0,0-.49.87h2.26v.35H29.12a2.64,2.64,0,0,0,0,.29v.12h2.35v.34H29.16a1.53,1.53,0,0,0,.44.89,1.7,1.7,0,0,0,1.15.4,2.36,2.36,0,0,0,1-.22l.14.43A2.5,2.5,0,0,1,30.67,30.45Z"/><path class="cls-2" d="M30.75,30a1.7,1.7,0,0,1-1.15-.4,1.53,1.53,0,0,1-.44-.89h2.29v-.34H29.1V28.2a2.64,2.64,0,0,1,0-.29h2.33v-.35H29.19a1.51,1.51,0,0,1,.49-.87,1.56,1.56,0,0,1,1.07-.37,2.15,2.15,0,0,1,.9.19l.16-.45a2.49,2.49,0,0,0-1.07-.22,2.28,2.28,0,0,0-1.6.57,2,2,0,0,0-.67,1.15h-.53v.35h.48a2.85,2.85,0,0,0,0,.31v.1h-.46v.34h.5A1.9,1.9,0,0,0,29,29.83a2.32,2.32,0,0,0,1.65.62,2.5,2.5,0,0,0,1.2-.29l-.14-.43A2.36,2.36,0,0,1,30.75,30Z"/></svg>