<svg id="Ebene_1" data-name="Ebene 1" xmlns="http://www.w3.org/2000/svg" viewBox="0 0 48 48"><defs><style>.cls-1,.cls-2{font-size:6px;}.cls-1,.cls-2,.cls-5{font-family:Arial-BoldMT, Arial;font-weight:700;}.cls-1{letter-spacing:-0.04em;}.cls-3{fill:none;stroke:#000;stroke-linejoin:round;}.cls-3,.cls-4{stroke-linecap:round;}.cls-4{fill:red;stroke:#fff;stroke-miterlimit:10;}.cls-5{font-size:5px;fill:#fff;}.cls-6{letter-spacing:-0.02em;}</style></defs><title> control-holding_member_control</title><circle cx="38.16" cy="14.47" r="2.36"/><path d="M14.52,39a2.37,2.37,0,1,1-2.37-2.37A2.37,2.37,0,0,1,14.52,39Z"/><text class="cls-1" transform="translate(7.48 36.07)">A</text><text class="cls-2" transform="translate(33.36 11.76)">B</text><path class="cls-3" d="M12.91,35.76s2.08-8.48,4.5-10.09C21,23.25,31.07,29,34.82,26.82c1.27-.75,1.88-4.07,2.16-6.52"/><polygon points="38.77 21.03 37.2 17.58 35 20.67 38.77 21.03"/><polygon class="cls-4" points="27.14 18.66 20.7 18.66 16.14 23.22 16.14 29.66 20.7 34.22 27.14 34.22 31.7 29.66 31.7 23.22 27.14 18.66"/><text class="cls-5" transform="translate(17.16 28.25)">S<tspan class="cls-6" x="3.33" y="0">T</tspan><tspan x="6.3" y="0">O</tspan><tspan class="cls-6" x="10.19" y="0">P</tspan></text></svg>