<svg id="Ebene_1" data-name="Ebene 1" xmlns="http://www.w3.org/2000/svg" viewBox="0 0 48 48"><defs><style>.cls-1{fill:gray;}.cls-2{fill:none;stroke:gray;stroke-miterlimit:10;}.cls-3{stroke:#000;stroke-width:0.26px;}</style></defs><title>cladding-metal_cladding</title><path class="cls-1" d="M44.08,26.09v18H3.92V29.18A34.15,34.15,0,0,1,7.54,25c2.43-2.35,5.14-4,7.87-3.6a5.58,5.58,0,0,1,1.58.45A10,10,0,0,1,20.5,25a27.33,27.33,0,0,0,3.62,4.14,9.65,9.65,0,0,0,2.45,1.55c2.6,1.12,6.31,1.28,11.8-1.29A44.86,44.86,0,0,0,44.08,26.09Z"/><polygon class="cls-2" points="44.08 26.09 44.08 44.09 3.92 44.09 3.92 29.18 3.92 24.98 3.92 17.84 3.92 10.69 3.92 3.92 16.99 3.92 31.24 3.92 44.08 3.92 44.08 10.69 44.08 17.84 44.08 24.98 44.08 26.09"/><polyline class="cls-2" points="3.92 10.69 9.87 10.69 16.99 10.69 24.12 10.69 31.24 10.69 38.37 10.69 44.08 10.69"/><polyline class="cls-2" points="3.92 17.84 9.87 17.84 16.99 17.84 24.12 17.84 31.24 17.84 38.37 17.84 44.08 17.84"/><polyline class="cls-2" points="20.5 24.98 24.12 24.98 31.24 24.98 38.37 24.98 44.08 24.98"/><line class="cls-2" x1="7.54" y1="24.98" x2="3.92" y2="24.98"/><line class="cls-2" x1="16.99" y1="10.69" x2="16.99" y2="3.92"/><line class="cls-2" x1="16.99" y1="21.83" x2="16.99" y2="17.84"/><line class="cls-2" x1="31.24" y1="10.69" x2="31.24" y2="3.92"/><line class="cls-2" x1="31.24" y1="24.98" x2="31.24" y2="17.84"/><line class="cls-2" x1="38.37" y1="29.38" x2="38.37" y2="24.98"/><line class="cls-2" x1="38.37" y1="17.84" x2="38.37" y2="10.69"/><line class="cls-2" x1="9.87" y1="17.84" x2="9.87" y2="10.69"/><line class="cls-2" x1="24.12" y1="29.12" x2="24.12" y2="24.98"/><line class="cls-2" x1="24.12" y1="17.84" x2="24.12" y2="10.69"/><path class="cls-2" d="M3.92,29.18A34.15,34.15,0,0,1,7.54,25c2.43-2.35,5.14-4,7.87-3.6a5.58,5.58,0,0,1,1.58.45A10,10,0,0,1,20.5,25a27.33,27.33,0,0,0,3.62,4.14,9.65,9.65,0,0,0,2.45,1.55c2.6,1.12,6.31,1.28,11.8-1.29a44.86,44.86,0,0,0,5.71-3.29"/><path id="path927" class="cls-3" d="M27.43,32H13.21v.64H6.55a5.16,5.16,0,0,0,2.6,3,6.67,6.67,0,0,0,2.58.49,4.61,4.61,0,0,1,2.6.71c.07.08,1.43.75.89,2.89s-3.2,2-3.49,2v1H24.45v-1s-2.23-.37-3-1.88-1.2-3.26.41-5,5.6-2.06,5.6-2.06Z"/></svg>