<svg id="Ebene_1" data-name="Ebene 1" xmlns="http://www.w3.org/2000/svg" viewBox="0 0 48 48"><defs><style>.cls-1{fill:gray;}.cls-2,.cls-3{fill:none;}.cls-2{stroke:gray;stroke-miterlimit:10;}.cls-4{isolation:isolate;font-size:3.12px;font-family:Arial-BoldMT, Arial;font-weight:700;letter-spacing:-0.07em;}.cls-5{letter-spacing:-0.04em;}</style></defs><title>cladding-plastic_cladding</title><path class="cls-1" d="M43.69,26.09v18H3.53V29.18A34.15,34.15,0,0,1,7.15,25c2.43-2.35,5.14-4,7.87-3.6a5.58,5.58,0,0,1,1.58.45A10,10,0,0,1,20.11,25a27.33,27.33,0,0,0,3.62,4.14,9.65,9.65,0,0,0,2.45,1.55c2.6,1.12,6.31,1.28,11.8-1.29A44.86,44.86,0,0,0,43.69,26.09Z"/><polygon class="cls-2" points="43.69 26.09 43.69 44.09 3.53 44.09 3.53 29.18 3.53 24.98 3.53 17.84 3.53 10.69 3.53 3.92 16.6 3.92 30.85 3.92 43.69 3.92 43.69 10.69 43.69 17.84 43.69 24.98 43.69 26.09"/><polyline class="cls-2" points="3.53 10.69 9.48 10.69 16.6 10.69 23.73 10.69 30.85 10.69 37.98 10.69 43.69 10.69"/><polyline class="cls-2" points="3.53 17.84 9.48 17.84 16.6 17.84 23.73 17.84 30.85 17.84 37.98 17.84 43.69 17.84"/><polyline class="cls-2" points="20.11 24.98 23.73 24.98 30.85 24.98 37.98 24.98 43.69 24.98"/><line class="cls-2" x1="7.15" y1="24.98" x2="3.53" y2="24.98"/><line class="cls-2" x1="16.6" y1="10.69" x2="16.6" y2="3.92"/><line class="cls-2" x1="16.6" y1="21.83" x2="16.6" y2="17.84"/><line class="cls-2" x1="30.85" y1="10.69" x2="30.85" y2="3.92"/><line class="cls-2" x1="30.85" y1="24.98" x2="30.85" y2="17.84"/><line class="cls-2" x1="37.98" y1="29.38" x2="37.98" y2="24.98"/><line class="cls-2" x1="37.98" y1="17.84" x2="37.98" y2="10.69"/><line class="cls-2" x1="9.48" y1="17.84" x2="9.48" y2="10.69"/><line class="cls-2" x1="23.73" y1="29.12" x2="23.73" y2="24.98"/><line class="cls-2" x1="23.73" y1="17.84" x2="23.73" y2="10.69"/><path class="cls-2" d="M3.53,29.18A34.15,34.15,0,0,1,7.15,25c2.43-2.35,5.14-4,7.87-3.6a5.58,5.58,0,0,1,1.58.45A10,10,0,0,1,20.11,25a27.33,27.33,0,0,0,3.62,4.14,9.65,9.65,0,0,0,2.45,1.55c2.6,1.12,6.31,1.28,11.8-1.29a44.86,44.86,0,0,0,5.71-3.29"/><g id="Zeichenfläche"><path d="M9.43,32.65l-4.09,0,1.5.94c-.28.52-1,1.74-.93,2.34a2.49,2.49,0,0,0,.28.85,26.42,26.42,0,0,0,2.47,3.56,32.88,32.88,0,0,0,4.86.13l.08-3.32-4.29,0a3.33,3.33,0,0,1,.2-1c.1-.19.45-.73.45-.73l1.58.73Z"/><path d="M17.43,31.37l2.18-3.46L18,28.67c-.29-.52-.9-1.83-1.47-2.06a2.5,2.5,0,0,0-.87-.22,25,25,0,0,0-4.33.14,33.14,33.14,0,0,0-2.74,4l2.75,1.87,2.36-3.58a3.54,3.54,0,0,1,.71.7c.1.18.37.77.37.77l-1.47.93Z"/><path d="M15,38.79l2.07,3.53.06-1.76c.6,0,2,0,2.5-.36a2.34,2.34,0,0,0,.6-.67,25.18,25.18,0,0,0,1.87-3.91,33.75,33.75,0,0,0-2.3-4.27l-2.92,1.57L19,36.66A3.26,3.26,0,0,1,18,37c-.22,0-.86,0-.86,0L17,35.22Z"/><rect class="cls-3" x="12.1" y="32.84" width="4.45" height="2.27"/><text class="cls-4" transform="translate(12.1 35.06)">P<tspan class="cls-5" x="1.85" y="0">A</tspan></text></g></svg>