<svg id="Ebene_1" data-name="Ebene 1" xmlns="http://www.w3.org/2000/svg" viewBox="0 0 48 48"><defs><style>.cls-1{fill:none;stroke:#000;stroke-linecap:round;stroke-linejoin:round;stroke-width:2px;}.cls-2{fill:gray;}</style></defs><title>condition-new</title><polygon class="cls-1" points="33.28 37.67 13.38 37.67 13.38 27.98 13.24 17.77 33.28 17.77 33.28 37.67"/><polyline class="cls-1" points="23.55 11.2 23.52 17.77 33.28 17.77 32.36 11.2 15.04 11.2 13.24 17.77"/><line class="cls-1" x1="20.63" y1="21.08" x2="25.75" y2="21.08"/><polygon class="cls-2" points="16.5 22.29 15.8 21.5 14.96 22.15 15.51 21.22 14.63 20.65 15.65 20.89 15.95 19.86 16.04 20.89 17.11 20.88 16.15 21.3 16.5 22.29"/><polygon class="cls-2" points="23.82 27.08 23.12 26.29 22.29 26.93 22.83 26.01 21.95 25.43 22.97 25.67 23.27 24.65 23.36 25.68 24.43 25.67 23.48 26.08 23.82 27.08"/><polygon class="cls-2" points="17.68 31.99 16.99 31.2 16.15 31.85 16.7 30.92 15.81 30.35 16.84 30.59 17.14 29.56 17.23 30.59 18.29 30.58 17.34 31 17.68 31.99"/><polygon class="cls-2" points="10.88 22.29 10.19 21.5 9.35 22.15 9.9 21.22 9.02 20.65 10.04 20.89 10.34 19.86 10.43 20.89 11.49 20.88 10.54 21.3 10.88 22.29"/><polygon class="cls-2" points="34.79 18.98 34.1 18.19 33.26 18.84 33.8 17.91 32.92 17.34 33.95 17.58 34.25 16.55 34.34 17.58 35.4 17.57 34.45 17.99 34.79 18.98"/><polygon class="cls-2" points="34.33 30.78 33.64 29.99 32.8 30.63 33.35 29.71 32.47 29.13 33.49 29.37 33.79 28.35 33.88 29.38 34.94 29.37 33.99 29.78 34.33 30.78"/><polygon class="cls-2" points="26.46 38.88 25.77 38.09 24.93 38.74 25.48 37.81 24.6 37.24 25.62 37.48 25.92 36.45 26.01 37.48 27.07 37.47 26.12 37.89 26.46 38.88"/><polygon class="cls-2" points="25.06 13.63 24.36 12.84 23.53 13.48 24.07 12.56 23.19 11.98 24.21 12.22 24.51 11.2 24.6 12.23 25.67 12.22 24.71 12.63 25.06 13.63"/><polygon class="cls-2" points="15.26 13.63 14.56 12.84 13.73 13.48 14.27 12.56 13.39 11.98 14.41 12.22 14.71 11.2 14.8 12.23 15.87 12.22 14.92 12.63 15.26 13.63"/><polygon class="cls-2" points="21.5 22.29 20.8 21.5 19.96 22.15 20.51 21.22 19.63 20.65 20.65 20.89 20.95 19.86 21.04 20.89 22.11 20.88 21.15 21.3 21.5 22.29"/><polygon class="cls-2" points="29.46 24.65 28.76 23.86 27.93 24.51 28.47 23.58 27.59 23.01 28.61 23.25 28.91 22.22 29 23.25 30.07 23.24 29.12 23.66 29.46 24.65"/><polygon class="cls-2" points="26.98 33.76 26.29 32.97 25.45 33.61 26 32.69 25.11 32.11 26.14 32.35 26.44 31.33 26.53 32.36 27.59 32.34 26.64 32.76 26.98 33.76"/><polygon class="cls-2" points="33.91 11.54 33.21 10.76 32.38 11.4 32.92 10.47 32.04 9.9 33.06 10.14 33.36 9.12 33.45 10.15 34.52 10.13 33.56 10.55 33.91 11.54"/><polygon class="cls-2" points="38.38 34.97 37.68 34.18 36.84 34.83 37.39 33.9 36.51 33.33 37.53 33.57 37.83 32.54 37.92 33.57 38.98 33.56 38.03 33.98 38.38 34.97"/></svg>