<svg id="Ebene_1" data-name="Ebene 1" xmlns="http://www.w3.org/2000/svg" viewBox="0 0 48 48"><defs><style>.cls-1,.cls-2{font-size:6px;font-family:Arial-BoldMT, Arial;font-weight:700;}.cls-1{letter-spacing:-0.04em;}.cls-3,.cls-4{fill:none;stroke:#000;stroke-miterlimit:10;stroke-width:0.5px;}.cls-4{stroke-dasharray:1.86 1.86;}</style></defs><title>control-point_control</title><path d="M40.52,13.93a2.37,2.37,0,1,1-2.36-2.36A2.37,2.37,0,0,1,40.52,13.93Z"/><path d="M14.52,39.61a2.37,2.37,0,1,1-2.37-2.36A2.37,2.37,0,0,1,14.52,39.61Z"/><text class="cls-1" transform="translate(7.48 36.66)">A</text><text class="cls-2" transform="translate(32.86 11.17)">B</text><line class="cls-3" x1="12.56" y1="35.64" x2="12.56" y2="34.64"/><line class="cls-4" x1="12.56" y1="32.78" x2="12.56" y2="18.82"/><line class="cls-3" x1="12.56" y1="17.88" x2="12.56" y2="16.88"/><polygon points="14.21 17.37 12.56 14.52 10.91 17.37 14.21 17.37"/><line class="cls-3" x1="13.61" y1="14.52" x2="14.61" y2="14.52"/><line class="cls-4" x1="16.48" y1="14.52" x2="30.44" y2="14.52"/><line class="cls-3" x1="31.37" y1="14.52" x2="32.37" y2="14.52"/><polygon points="31.89 16.16 34.74 14.52 31.89 12.87 31.89 16.16"/></svg>