<svg id="Ebene_1" data-name="Ebene 1" xmlns="http://www.w3.org/2000/svg" viewBox="0 0 48 48"><defs><style>.cls-1,.cls-2{font-size:3.81px;}.cls-1,.cls-2,.cls-3{font-family:Arial-BoldMT, Arial;font-weight:700;}.cls-1{letter-spacing:-0.04em;}.cls-3{font-size:3.18px;}.cls-3,.cls-6{fill:red;}.cls-4,.cls-5,.cls-7,.cls-8,.cls-9{fill:none;}.cls-4,.cls-7,.cls-8{stroke:#000;}.cls-4,.cls-5,.cls-9{stroke-linecap:round;}.cls-4{stroke-linejoin:round;stroke-width:0.64px;}.cls-5,.cls-9{stroke:red;}.cls-5,.cls-7,.cls-8,.cls-9{stroke-miterlimit:10;}.cls-5{stroke-width:0.32px;}.cls-7{stroke-width:2px;}.cls-8{stroke-width:1.11px;}.cls-9{stroke-width:0.7px;}</style></defs><title>control-management_control</title><circle cx="32.4" cy="22.44" r="1.5" transform="translate(5.04 50.81) rotate(-80.74)"/><circle cx="15.89" cy="38.03" r="1.5"/><text class="cls-1" transform="translate(12.92 36.15)">A</text><text class="cls-2" transform="translate(29.35 20.72)">B</text><text class="cls-3" transform="translate(14.16 30.28)">v</text><path class="cls-4" d="M16.37,36s1.32-5.39,2.86-6.41c2.3-1.54,8.67,2.14,11.06.73.8-.47,1.18-2.59,1.36-4.14"/><polygon points="32.78 26.61 31.8 24.41 30.39 26.37 32.78 26.61"/><line class="cls-5" x1="16.37" y1="26.96" x2="16.37" y2="34.86"/><polygon class="cls-6" points="15.61 34.64 16.37 35.96 17.13 34.64 15.61 34.64"/><rect class="cls-7" x="10.38" y="15.58" width="26.77" height="26.77"/><line class="cls-8" x1="12" y1="5.65" x2="12" y2="9.67"/><polygon points="10.07 9.11 12 12.46 13.93 9.11 10.07 9.11"/><line class="cls-8" x1="20.06" y1="5.65" x2="20.06" y2="9.67"/><polygon points="18.12 9.11 20.05 12.46 21.99 9.11 18.12 9.11"/><line class="cls-8" x1="28.11" y1="5.65" x2="28.11" y2="9.67"/><polygon points="26.18 9.11 28.11 12.46 30.04 9.11 26.18 9.11"/><line class="cls-8" x1="36.16" y1="5.65" x2="36.16" y2="9.67"/><polygon points="34.23 9.11 36.16 12.46 38.09 9.11 34.23 9.11"/><line class="cls-9" x1="10.55" y1="11" x2="13.46" y2="13.91"/><line class="cls-9" x1="13.46" y1="11" x2="10.55" y2="13.91"/><line class="cls-9" x1="18.6" y1="11" x2="21.51" y2="13.91"/><line class="cls-9" x1="21.51" y1="11" x2="18.6" y2="13.91"/><line class="cls-9" x1="26.66" y1="11" x2="29.56" y2="13.91"/><line class="cls-9" x1="29.56" y1="11" x2="26.66" y2="13.91"/><line class="cls-9" x1="34.71" y1="11" x2="37.62" y2="13.91"/><line class="cls-9" x1="37.62" y1="11" x2="34.71" y2="13.91"/></svg>