<svg id="Ebene_1" data-name="Ebene 1" xmlns="http://www.w3.org/2000/svg" viewBox="0 0 48 48"><defs><style>.cls-1,.cls-2{font-size:6px;}.cls-1,.cls-10,.cls-2,.cls-3,.cls-8,.cls-9{font-family:Arial-BoldMT, Arial;font-weight:700;}.cls-1{letter-spacing:-0.04em;}.cls-3{font-size:5px;}.cls-10,.cls-3,.cls-6{fill:red;}.cls-11,.cls-12,.cls-4,.cls-5{fill:none;stroke-linecap:round;}.cls-11,.cls-4,.cls-7{stroke:#000;stroke-linejoin:round;}.cls-12,.cls-5{stroke:red;stroke-miterlimit:10;}.cls-5{stroke-width:0.5px;}.cls-7{fill:#fff;}.cls-8,.cls-9{font-size:1.25px;}.cls-8{letter-spacing:-0.04em;}.cls-10{font-size:1.04px;}.cls-11{stroke-width:0.21px;}.cls-12{stroke-width:0.1px;}</style></defs><title>control-program_control</title><circle cx="38.16" cy="15.78" r="2.36"/><circle cx="12.15" cy="40.32" r="2.36"/><text class="cls-1" transform="translate(7.48 37.37)">A</text><text class="cls-2" transform="translate(33.36 13.07)">B</text><text class="cls-3" transform="translate(9.44 28.12)">v</text><path class="cls-4" d="M12.91,37.06S15,28.58,17.41,27c3.63-2.42,13.66,3.37,17.41,1.15,1.27-.74,1.88-4.07,2.16-6.51"/><polygon points="38.77 22.33 37.2 18.89 35 21.97 38.77 22.33"/><line class="cls-5" x1="12.91" y1="22.9" x2="12.91" y2="35.34"/><polygon class="cls-6" points="11.71 34.99 12.91 37.06 14.11 34.99 11.71 34.99"/><rect class="cls-7" x="8.52" y="5.31" width="13.4" height="9.29"/><rect x="13.82" y="15.59" width="2.81" height="2.81"/><path d="M12.09,18.19h6.38a.55.55,0,0,1,.55.55v1.08a0,0,0,0,1,0,0H11.43a0,0,0,0,1,0,0v-1A.66.66,0,0,1,12.09,18.19Z"/><path d="M18.1,7.83a.49.49,0,0,1-1,0,.49.49,0,0,1,1,0Z"/><path d="M12.7,12.92a.49.49,0,1,1-.49-.49A.49.49,0,0,1,12.7,12.92Z"/><text class="cls-8" transform="translate(11.24 12.31)">A</text><text class="cls-9" transform="translate(16.61 7.26)">B</text><text class="cls-10" transform="translate(11.65 10.39)">v</text><path class="cls-11" d="M12.37,12.25s.43-1.77.93-2.1c.75-.5,2.84.7,3.62.24.26-.16.38-.85.44-1.35"/><polygon points="17.73 9.19 17.41 8.47 16.95 9.11 17.73 9.19"/><line class="cls-12" x1="12.37" y1="9.31" x2="12.37" y2="11.89"/><polygon class="cls-6" points="12.12 11.81 12.37 12.24 12.61 11.81 12.12 11.81"/></svg>