<svg id="Ebene_1" data-name="Ebene 1" xmlns="http://www.w3.org/2000/svg" viewBox="0 0 48 48"><defs><style>.cls-1,.cls-2{fill:none;}.cls-1{stroke:#999;stroke-linecap:round;stroke-miterlimit:10;stroke-width:2px;}.cls-2{stroke:#000;stroke-linejoin:round;}</style></defs><title>cooling-oil-cooling</title><line class="cls-1" x1="24.33" y1="24" x2="24.33" y2="5.67"/><line class="cls-1" x1="24.33" y1="42.33" x2="24.33" y2="24"/><line class="cls-1" x1="24.33" y1="24" x2="37.3" y2="36.96"/><line class="cls-1" x1="11.37" y1="11.04" x2="24.33" y2="24"/><line class="cls-1" x1="24.33" y1="24" x2="11.37" y2="36.96"/><line class="cls-1" x1="37.3" y1="11.04" x2="24.33" y2="24"/><line class="cls-1" x1="24.33" y1="24" x2="42.67" y2="24"/><line class="cls-1" x1="19.33" y1="5.67" x2="24.28" y2="10.61"/><line class="cls-1" x1="29.33" y1="5.67" x2="24.39" y2="10.61"/><line class="cls-1" x1="29.28" y1="42.33" x2="24.33" y2="37.39"/><line class="cls-1" x1="19.28" y1="42.33" x2="24.23" y2="37.39"/><line class="cls-1" x1="19.33" y1="8.99" x2="24.28" y2="13.94"/><line class="cls-1" x1="29.33" y1="8.99" x2="24.39" y2="13.94"/><line class="cls-1" x1="29.28" y1="38.58" x2="24.33" y2="33.63"/><line class="cls-1" x1="19.28" y1="38.58" x2="24.23" y2="33.63"/><line class="cls-1" x1="42.67" y1="18.74" x2="37.72" y2="23.68"/><line class="cls-1" x1="42.67" y1="28.74" x2="37.72" y2="23.79"/><line class="cls-1" x1="39.02" y1="19" x2="34.08" y2="23.95"/><line class="cls-1" x1="39.02" y1="29" x2="34.08" y2="24.05"/><line class="cls-1" x1="6" y1="29" x2="10.95" y2="24.05"/><line class="cls-1" x1="6" y1="19" x2="10.95" y2="23.95"/><line class="cls-1" x1="9.88" y1="29" x2="14.82" y2="24.05"/><line class="cls-1" x1="9.88" y1="19" x2="14.82" y2="23.95"/><line class="cls-1" x1="7.82" y1="14.56" x2="14.82" y2="14.56"/><line class="cls-1" x1="14.89" y1="7.49" x2="14.89" y2="14.48"/><line class="cls-1" x1="33.81" y1="7.45" x2="33.81" y2="14.45"/><line class="cls-1" x1="40.88" y1="14.52" x2="33.89" y2="14.52"/><line class="cls-1" x1="40.09" y1="32.68" x2="33.09" y2="32.68"/><line class="cls-1" x1="33.01" y1="39.75" x2="33.01" y2="32.75"/><line class="cls-1" x1="14.85" y1="40.55" x2="14.85" y2="33.55"/><line class="cls-1" x1="7.78" y1="33.48" x2="14.78" y2="33.48"/><line class="cls-1" x1="5.16" y1="24" x2="23.49" y2="24"/><polygon points="29.12 24.97 28.37 22.25 27.95 20.71 20.57 20.71 19.08 20.71 11.7 20.71 11.7 22.57 11.7 28.55 11.7 30.69 30.67 30.69 30.68 30.68 29.12 24.97"/><polygon points="38.75 20.39 30.68 30.68 30.67 30.69 29.12 24.97 28.37 22.25 37.79 18.96 38.75 20.39"/><polygon points="20.57 20.71 20.57 19.81 20.57 18.95 19.08 18.95 19.08 19.81 19.08 20.71 20.57 20.71"/><polygon points="20.57 19.81 22.84 19.81 22.84 18.95 20.57 18.95 19.08 18.95 16.82 18.95 16.82 19.81 19.08 19.81 20.57 19.81"/><polyline class="cls-2" points="11.7 22.57 8.08 22.57 8.08 28.55 11.7 28.55"/><polygon points="37.79 18.96 40.28 18.95 40.28 20.39 38.75 20.39 37.79 18.96"/><path d="M39.84,31.08c-2.21-.42-2.64-2.44-1.52-4.42.53-.94,1.07-1.88,1.55-2.85.21-.42.25-.91.43-1.38a11.69,11.69,0,0,0,2,4.36c1.09,1.86.58,3.88-1.57,4.29A2.6,2.6,0,0,1,39.84,31.08Z"/></svg>