<svg id="Ebene_1" data-name="Ebene 1" xmlns="http://www.w3.org/2000/svg" viewBox="0 0 48 48"><defs><style>.cls-1,.cls-2,.cls-3,.cls-4{fill:none;}.cls-1,.cls-2,.cls-4{stroke:#000;stroke-width:2px;}.cls-1,.cls-2{stroke-miterlimit:10;}.cls-2,.cls-4{stroke-linecap:round;}.cls-3{stroke:#fff;stroke-width:0.25px;}</style></defs><title>data-dual</title><circle class="cls-1" cx="14.51" cy="15.05" r="10.5"/><line class="cls-2" x1="14.51" y1="7.06" x2="14.51" y2="15.05"/><line class="cls-2" x1="17.74" y1="18.29" x2="14.51" y2="15.05"/><polygon points="43.99 29.83 44 35.25 43.36 35.83 42.77 35.25 42.77 29.83 43.41 29.23 43.99 29.83"/><polygon points="43.94 36.76 43.94 42.18 43.3 42.76 42.72 42.18 42.72 36.76 43.35 36.16 43.94 36.76"/><polygon points="34.95 29.82 34.95 35.23 34.31 35.82 33.73 35.23 33.72 29.82 33.78 29.76 34.36 29.21 34.95 29.82"/><polygon points="34.89 36.75 34.89 42.16 34.25 42.75 33.67 42.17 33.67 36.75 34.31 36.15 34.89 36.75"/><polygon points="33.65 28.4 34.23 29.04 33.65 29.62 28.23 29.63 27.63 28.99 28.23 28.41 33.65 28.4"/><polygon points="33.55 42.28 34.09 42.87 33.5 43.45 28.09 43.45 27.49 42.81 28.09 42.23 33.5 42.23 33.55 42.28"/><polygon points="28.05 29.77 28.05 35.18 27.42 35.77 26.83 35.19 26.83 29.77 27.46 29.17 28.05 29.77"/><polygon points="27.99 36.63 28 42.05 27.96 42.09 27.36 42.63 26.78 42.05 26.77 36.63 27.41 36.03 27.99 36.63"/><polygon class="cls-3" points="28.23 29.63 27.63 28.99 28.23 28.41 33.65 28.4 34.23 29.04 33.65 29.62 28.23 29.63"/><polygon class="cls-3" points="33.78 29.76 34.36 29.21 34.95 29.82 34.95 35.23 34.31 35.82 33.73 35.23 33.72 29.82 33.78 29.76"/><polygon class="cls-3" points="28.05 29.77 28.05 35.18 27.42 35.77 26.83 35.19 26.83 29.77 27.46 29.17 28.05 29.77"/><polygon class="cls-3" points="28.09 42.23 33.5 42.23 33.55 42.28 34.09 42.87 33.5 43.45 28.09 43.45 27.49 42.81 28.09 42.23"/><polygon class="cls-3" points="27.41 36.03 27.99 36.63 28 42.05 27.96 42.09 27.36 42.63 26.78 42.05 26.77 36.63 27.41 36.03"/><polygon class="cls-3" points="34.31 36.15 34.89 36.75 34.89 42.16 34.25 42.75 33.67 42.17 33.67 36.75 34.31 36.15"/><polygon class="cls-3" points="44 35.25 43.36 35.83 42.77 35.25 42.77 29.83 43.41 29.23 43.99 29.83 44 35.25"/><polygon class="cls-3" points="43.94 42.18 43.3 42.76 42.72 42.18 42.72 36.76 43.35 36.16 43.94 36.76 43.94 42.18"/><line class="cls-4" x1="42.39" y1="7.37" x2="9.06" y2="40.7"/></svg>