<svg id="Ebene_1" data-name="Ebene 1" xmlns="http://www.w3.org/2000/svg" viewBox="0 0 48 48"><defs><style>.cls-1,.cls-2,.cls-3,.cls-4,.cls-5,.cls-6,.cls-7{fill:none;stroke:#000;}.cls-1,.cls-2,.cls-5,.cls-6,.cls-7{stroke-linecap:round;}.cls-1{stroke-width:1.16px;}.cls-2{stroke-width:1.26px;}.cls-3,.cls-6{stroke-linejoin:round;}.cls-3{stroke-width:1.38px;}.cls-4{stroke-width:1.36px;}.cls-5{stroke-width:0.96px;}.cls-6{stroke-width:1.21px;}.cls-7{stroke-width:1.2px;}</style></defs><title>material_in_use-wood</title><path id="path850" class="cls-1" d="M16.16,4.92V18"/><path id="path854" class="cls-2" d="M32.28,5.2V41.9"/><path id="path856" class="cls-3" d="M32.34,5.13C33,6,29.89,6.8,25.44,6.92s-8.58-.47-9.23-1.34,2.43-1.66,6.88-1.79,8.58.47,9.24,1.33"/><path id="path858" class="cls-4" d="M16.11,41.9s6.3,4.92,16.23,0"/><path id="path860" class="cls-5" d="M17.91,19.22l-5.4-3.13"/><path id="path862" class="cls-5" d="M16.11,27.16,10.6,20.78"/><path id="path864" class="cls-6" d="M13.44,18.94c-.35,1.31-1.36,2.22-2.25,2s-1.35-1.42-1-2.73,1.35-2.23,2.25-2,1.34,1.41,1,2.72"/><path id="path850-1" class="cls-7" d="M16.16,27.16V41.9"/></svg>