<svg id="Ebene_1" data-name="Ebene 1" xmlns="http://www.w3.org/2000/svg" viewBox="0 0 48 48"><defs><style>.cls-1{fill:none;stroke:#000;}.cls-1,.cls-2{stroke-miterlimit:10;stroke-width:0.25px;}.cls-2{stroke:#fff;}</style></defs><title>mode-manual</title><path d="M36.32,16.53A14.92,14.92,0,0,1,38.18,21a3.63,3.63,0,0,0-3.2,3.6H33.07a10,10,0,0,0-10-10V12.77a3.63,3.63,0,0,0,3.6-3.2,15.2,15.2,0,0,1,4.51,1.87,3.63,3.63,0,0,0,5.1,5.09Z"/><path d="M38.18,28.24a15.08,15.08,0,0,1-2,4.67,3.63,3.63,0,0,0-5.16,5,15.09,15.09,0,0,1-4.53,1.81,3.64,3.64,0,0,0-3.61-3.24l0-1.91h.15a10,10,0,0,0,10-10H35A3.63,3.63,0,0,0,38.18,28.24Z"/><path d="M23.11,12.77v1.91a10,10,0,0,0-10,10H11.24A3.62,3.62,0,0,0,8,21,14.92,14.92,0,0,1,9.9,16.53,3.63,3.63,0,0,0,15,11.44a15.2,15.2,0,0,1,4.51-1.87A3.63,3.63,0,0,0,23.11,12.77Z"/><path d="M23,34.6l0,1.91a3.64,3.64,0,0,0-3.6,3.16A15.2,15.2,0,0,1,15,37.84a3.63,3.63,0,0,0-5.1-5.09A14.92,14.92,0,0,1,8,28.24a3.62,3.62,0,0,0,3.2-3.6h1.91A10,10,0,0,0,23,34.6Z"/><path class="cls-1" d="M33.07,24.64a10,10,0,0,1-10,10H23a10,10,0,1,1,10.11-10Z"/><path class="cls-1" d="M23.11,12.77a3.63,3.63,0,0,0,3.6-3.2,15.2,15.2,0,0,1,4.51,1.87,3.63,3.63,0,0,0,5.1,5.09A14.92,14.92,0,0,1,38.18,21a3.62,3.62,0,0,0,0,7.2,15.08,15.08,0,0,1-2,4.67,3.63,3.63,0,0,0-5.16,5,15.09,15.09,0,0,1-4.53,1.81,3.63,3.63,0,0,0-7.21-.08A15.2,15.2,0,0,1,15,37.84a3.63,3.63,0,0,0-5.1-5.09A14.92,14.92,0,0,1,8,28.24,3.63,3.63,0,0,0,8,21,14.92,14.92,0,0,1,9.9,16.53,3.63,3.63,0,0,0,15,11.44a15.2,15.2,0,0,1,4.51-1.87A3.63,3.63,0,0,0,23.11,12.77Z"/><g id="Ebene_2" data-name="Ebene 2"><path class="cls-2" d="M15.31,35.6,35.8,16.19a6.65,6.65,0,0,0,7.81-1.37,8.11,8.11,0,0,0,2.21-6.74L40.6,12.89c-.57.55-1.27.88-1.82.31L35.6,9.84a1.43,1.43,0,0,1,.06-2l5.15-4.89a7,7,0,0,0-6.94,1.64c-3.92,3.91-1.78,7.72-1.78,7.72L11.6,31.68a7.08,7.08,0,0,0-9.83,7.86l5-4.77a1.44,1.44,0,0,1,2,0L12,38.18a1.43,1.43,0,0,1-.06,2L6.93,45a7.07,7.07,0,0,0,8.38-9.39Z"/></g></svg>