<svg id="Ebene_1" data-name="Ebene 1" xmlns="http://www.w3.org/2000/svg" viewBox="0 0 48 48"><defs><style>.cls-1{fill:none;stroke:#000;stroke-miterlimit:10;stroke-width:0.25px;}</style></defs><title>mode-fully-automatic</title><path d="M15.8,15.61a3.64,3.64,0,0,0,.28-4.81,15.2,15.2,0,0,1,4.51-1.87,3.62,3.62,0,0,0,7.2,0A15.2,15.2,0,0,1,32.3,10.8a3.63,3.63,0,0,0,5.1,5.09,14.92,14.92,0,0,1,1.86,4.51,3.63,3.63,0,0,0,0,7.2,15.08,15.08,0,0,1-2,4.67,3.63,3.63,0,0,0-5.16,5,15.09,15.09,0,0,1-4.53,1.81A3.63,3.63,0,0,0,20.4,39a15.2,15.2,0,0,1-4.32-1.83A3.63,3.63,0,0,0,11,32.11,14.92,14.92,0,0,1,9.12,27.6a3.63,3.63,0,0,0,0-7.2A14.92,14.92,0,0,1,11,15.89,3.65,3.65,0,0,0,15.8,15.61ZM14.23,24a10,10,0,1,0,10-10A10,10,0,0,0,14.23,24Z"/><circle class="cls-1" cx="24.19" cy="24" r="9.96"/><path class="cls-1" d="M37.4,15.89a14.92,14.92,0,0,1,1.86,4.51,3.63,3.63,0,0,0,0,7.2,15.08,15.08,0,0,1-2,4.67,3.63,3.63,0,0,0-5.16,5,15.09,15.09,0,0,1-4.53,1.81A3.63,3.63,0,0,0,20.4,39a15.2,15.2,0,0,1-4.32-1.83A3.63,3.63,0,0,0,11,32.11,14.92,14.92,0,0,1,9.12,27.6a3.63,3.63,0,0,0,0-7.2A14.92,14.92,0,0,1,11,15.89a3.63,3.63,0,0,0,5.1-5.09,15.2,15.2,0,0,1,4.51-1.87,3.62,3.62,0,0,0,7.2,0A15.2,15.2,0,0,1,32.3,10.8a3.63,3.63,0,0,0,5.1,5.09Z"/></svg>