<svg id="Ebene_1" data-name="Ebene 1" xmlns="http://www.w3.org/2000/svg" viewBox="0 0 48 48"><defs><style>.cls-1{fill:none;stroke:#000;stroke-miterlimit:10;stroke-width:0.25px;}</style></defs><title>operation-rolling-mill</title><path d="M19.86,15.54a4.29,4.29,0,1,0,4.28-4.29A4.28,4.28,0,0,0,19.86,15.54Zm-2.81,0a7.1,7.1,0,1,1,7.09,7.09A7.1,7.1,0,0,1,17.05,15.54Z"/><path d="M24.14,28.19a4.29,4.29,0,1,0,4.29,4.28A4.28,4.28,0,0,0,24.14,28.19Zm-7.09,4.28a7.1,7.1,0,1,1,7.09,7.1A7.1,7.1,0,0,1,17.05,32.47Z"/><polygon points="18.05 22.45 19.85 23 28.14 23 29.94 22.45 44.09 22.45 44.09 25.5 29.85 25.5 28.14 25 19.85 25 18.14 25.5 3.9 25.5 3.9 22.45 18.05 22.45"/><path class="cls-1" d="M31.24,15.54a7.1,7.1,0,1,1-7.1-7.1A7.1,7.1,0,0,1,31.24,15.54Z"/><path class="cls-1" d="M28.43,15.54a4.29,4.29,0,1,1-4.29-4.29A4.29,4.29,0,0,1,28.43,15.54Z"/><path class="cls-1" d="M31.24,32.47a7.1,7.1,0,1,1-7.1-7.09A7.1,7.1,0,0,1,31.24,32.47Z"/><path class="cls-1" d="M28.43,32.47a4.29,4.29,0,1,1-4.29-4.28A4.29,4.29,0,0,1,28.43,32.47Z"/><polygon class="cls-1" points="28.14 25 29.85 25.5 44.09 25.5 44.09 22.45 29.94 22.45 28.14 23 19.85 23 18.05 22.45 3.9 22.45 3.9 25.5 18.14 25.5 19.85 25 28.14 25"/></svg>