<svg id="Ebene_1" data-name="Ebene 1" xmlns="http://www.w3.org/2000/svg" viewBox="0 0 48 48"><defs><style>.cls-1{fill:#7e7e7e;stroke:#000;stroke-miterlimit:10;stroke-width:0.5px;}</style></defs><title>protection-dust_protection</title><path class="cls-1" d="M24,46.46C27.06,44.52,33.3,41,37,34.86,44.19,23.19,39.94,3,39.94,3A5.73,5.73,0,0,1,37,4.42a23.54,23.54,0,0,1-13-2.9,23.5,23.5,0,0,1-13,2.9A5.73,5.73,0,0,1,8.05,3S3.79,23.19,11,34.86C14.69,41,20.93,44.52,24,46.46Z"/><rect x="11.56" y="16.56" width="6.94" height="2.19"/><rect x="19.29" y="16.56" width="2.19" height="2.19"/><path d="M25.2,16.55v2.19H22.37v-2.2Z"/><rect x="9.16" y="21.18" width="6.94" height="2.19"/><rect x="16.89" y="21.18" width="2.19" height="2.19"/><rect x="19.97" y="21.18" width="6.81" height="2.19"/><rect x="16.09" y="25.66" width="6.94" height="2.19"/><rect x="23.83" y="25.66" width="2.19" height="2.19"/><rect x="26.91" y="25.76" width="4.56" height="2.19"/><rect x="26.99" y="21.18" width="6.94" height="2.19"/><polygon points="35.28 23.26 35.28 23.37 34.73 23.37 34.73 21.18 35.28 21.18 35.28 21.31 35.28 23.26"/><path d="M25,18.75h.17a4.47,4.47,0,1,0-4.64-4.5H22.7v0A2.34,2.34,0,1,1,25,16.56"/><path d="M35.27,23.37h.17a4.47,4.47,0,1,0-4.63-4.5h2.13v0a2.34,2.34,0,1,1,2.33,2.33"/><path d="M31.46,25.76h.17A4.47,4.47,0,1,1,27,30.27h2.14v0A2.34,2.34,0,1,0,31.46,28"/><rect x="30.38" y="12.43" width="2.19" height="2.19"/><rect x="16.89" y="10.53" width="2.19" height="2.19"/><rect x="34.85" y="24.12" width="2.19" height="2.19"/><rect x="21.94" y="30.79" width="2.19" height="2.19"/><rect x="12.31" y="27.95" width="2.19" height="2.19"/></svg>