<svg id="Ebene_1" data-name="Ebene 1" xmlns="http://www.w3.org/2000/svg" viewBox="0 0 48 48"><defs><style>.cls-1{fill:#7e7e7e;stroke-miterlimit:10;stroke-width:0.5px;}.cls-1,.cls-2{stroke:#000;}.cls-2{fill:none;stroke-linejoin:round;}</style></defs><title>protection-lubricating_protection</title><path class="cls-1" d="M24.7,47.24c3.07-1.93,9.31-5.49,13.05-11.59C44.9,24,40.65,3.76,40.65,3.76a5.78,5.78,0,0,1-2.9,1.45,23.54,23.54,0,0,1-13-2.9,23.54,23.54,0,0,1-13,2.9,5.78,5.78,0,0,1-2.9-1.45S4.5,24,11.65,35.65C15.39,41.75,21.63,45.31,24.7,47.24Z"/><polygon points="28.16 22.06 27.58 19.96 27.25 18.78 21.56 18.78 20.42 18.78 14.73 18.78 14.73 20.21 14.73 24.82 14.73 26.47 29.36 26.47 29.36 26.46 28.16 22.06"/><polygon points="35.58 18.53 29.36 26.46 29.36 26.47 28.16 22.06 27.58 19.96 34.85 17.43 35.58 18.53"/><polygon points="21.56 18.78 21.56 18.08 21.56 17.42 20.42 17.42 20.42 18.08 20.42 18.78 21.56 18.78"/><polygon points="21.56 18.08 23.32 18.08 23.32 17.42 21.56 17.42 20.42 17.42 18.67 17.42 18.67 18.08 20.42 18.08 21.56 18.08"/><polyline class="cls-2" points="14.72 20.21 11.94 20.21 11.94 24.82 14.72 24.82"/><polygon points="34.85 17.43 36.77 17.42 36.77 18.53 35.58 18.53 34.85 17.43"/><path d="M36.42,26.77c-1.7-.32-2-1.88-1.17-3.4.41-.73.83-1.45,1.2-2.2.16-.33.19-.71.33-1.07a9,9,0,0,0,1.53,3.36c.84,1.44.45,3-1.21,3.31A1.56,1.56,0,0,1,36.42,26.77Z"/></svg>