<svg id="Ebene_1" data-name="Ebene 1" xmlns="http://www.w3.org/2000/svg" viewBox="0 0 48 48"><defs><style>.cls-1{fill:#7e7e7e;stroke:#000;stroke-miterlimit:10;stroke-width:0.5px;}</style></defs><title>protection-fire_protection</title><path class="cls-1" d="M24.58,46.38c3.07-1.94,9.31-5.5,13.05-11.6,7.15-11.67,2.9-31.89,2.9-31.89a5.73,5.73,0,0,1-2.9,1.45,23.56,23.56,0,0,1-13.05-2.9,23.5,23.5,0,0,1-13,2.9,5.73,5.73,0,0,1-2.9-1.45s-4.25,20.22,2.9,31.89C15.28,40.88,21.52,44.44,24.58,46.38Z"/><path d="M19.2,13c1.77,1.93,1.9,4.18,1.62,6.74a8,8,0,0,0,2.2-6.9c-.45-2.52-2-4.41-3.86-6.14,3.39.26,8.48,2.55,10.71,6.52s1.87,8.31.74,12.8c2.73-1.62,2.78-4.17,2.92-6.85a12.62,12.62,0,0,1,1.71,4.6c1.27,7.19-6.05,12.72-11.06,12.71-5.19,0-10.43-4.91-10.39-10,0-2.56,1.28-4.67,2.83-6.6A9.72,9.72,0,0,0,19,15.52,21.8,21.8,0,0,0,19.2,13Z"/></svg>