<svg id="Ebene_1" data-name="Ebene 1" xmlns="http://www.w3.org/2000/svg" viewBox="0 0 48 48"><defs><style>.cls-1{fill:#7e7e7e;stroke:#000;stroke-miterlimit:10;stroke-width:0.5px;}</style></defs><title>protection-water_protection</title><path class="cls-1" d="M24,46.47c3.07-1.94,9.31-5.5,13-11.6C44.2,23.21,40,3,40,3a5.78,5.78,0,0,1-2.9,1.45,23.54,23.54,0,0,1-13-2.9,23.54,23.54,0,0,1-13,2.9A5.78,5.78,0,0,1,8.05,3S3.8,23.21,11,34.87C14.69,41,20.93,44.53,24,46.47Z"/><path d="M22.4,38.25C14.52,36.76,13,29.51,17,22.45c1.92-3.37,3.85-6.74,5.55-10.22.74-1.49.91-3.25,1.54-4.93.73,6,4.22,10.63,7.11,15.59,3.9,6.67,2.08,13.9-5.62,15.36A8.55,8.55,0,0,1,22.4,38.25Z"/></svg>