<svg id="Ebene_1" data-name="Ebene 1" xmlns="http://www.w3.org/2000/svg" viewBox="0 0 48 48"><defs><style>.cls-1{fill:gray;}.cls-2,.cls-3,.cls-4,.cls-5,.cls-6,.cls-7,.cls-8,.cls-9{fill:none;}.cls-2{stroke:gray;stroke-miterlimit:10;}.cls-3,.cls-4,.cls-5,.cls-6,.cls-7,.cls-8,.cls-9{stroke:#000;}.cls-3,.cls-4,.cls-7,.cls-8,.cls-9{stroke-linecap:round;}.cls-3{stroke-width:1.16px;}.cls-4{stroke-width:1.26px;}.cls-5,.cls-8{stroke-linejoin:round;}.cls-5{stroke-width:1.38px;}.cls-6{stroke-width:1.36px;}.cls-7{stroke-width:0.96px;}.cls-8{stroke-width:1.21px;}.cls-9{stroke-width:1.2px;}</style></defs><title>cladding-wood-cladding</title><path class="cls-1" d="M44.08,26.09v18H3.92V29.18A34.15,34.15,0,0,1,7.54,25c2.43-2.35,5.14-4,7.87-3.6a5.58,5.58,0,0,1,1.58.45A10,10,0,0,1,20.5,25a27.33,27.33,0,0,0,3.62,4.14,9.65,9.65,0,0,0,2.45,1.55c2.6,1.12,6.31,1.28,11.8-1.29A44.86,44.86,0,0,0,44.08,26.09Z"/><polygon class="cls-2" points="44.08 26.09 44.08 44.09 3.92 44.09 3.92 29.18 3.92 24.98 3.92 17.84 3.92 10.69 3.92 3.92 16.99 3.92 31.24 3.92 44.08 3.92 44.08 10.69 44.08 17.84 44.08 24.98 44.08 26.09"/><polyline class="cls-2" points="3.92 10.69 9.87 10.69 16.99 10.69 24.12 10.69 31.24 10.69 38.37 10.69 44.08 10.69"/><polyline class="cls-2" points="3.92 17.84 9.87 17.84 16.99 17.84 24.12 17.84 31.24 17.84 38.37 17.84 44.08 17.84"/><polyline class="cls-2" points="20.5 24.98 24.12 24.98 31.24 24.98 38.37 24.98 44.08 24.98"/><line class="cls-2" x1="7.54" y1="24.98" x2="3.92" y2="24.98"/><line class="cls-2" x1="16.99" y1="10.69" x2="16.99" y2="3.92"/><line class="cls-2" x1="16.99" y1="21.83" x2="16.99" y2="17.84"/><line class="cls-2" x1="31.24" y1="10.69" x2="31.24" y2="3.92"/><line class="cls-2" x1="31.24" y1="24.98" x2="31.24" y2="17.84"/><line class="cls-2" x1="38.37" y1="29.38" x2="38.37" y2="24.98"/><line class="cls-2" x1="38.37" y1="17.84" x2="38.37" y2="10.69"/><line class="cls-2" x1="9.87" y1="17.84" x2="9.87" y2="10.69"/><line class="cls-2" x1="24.12" y1="29.12" x2="24.12" y2="24.98"/><line class="cls-2" x1="24.12" y1="17.84" x2="24.12" y2="10.69"/><path class="cls-2" d="M3.92,29.18A34.15,34.15,0,0,1,7.54,25c2.43-2.35,5.14-4,7.87-3.6a5.58,5.58,0,0,1,1.58.45A10,10,0,0,1,20.5,25a27.33,27.33,0,0,0,3.62,4.14,9.65,9.65,0,0,0,2.45,1.55c2.6,1.12,6.31,1.28,11.8-1.29a44.86,44.86,0,0,0,5.71-3.29"/><path id="path850" class="cls-3" d="M29.86,32.19H21.44"/><path id="path854" class="cls-4" d="M29.68,42.58H6"/><path id="path856" class="cls-5" d="M29.73,42.62c-.56.41-1.08-1.58-1.16-4.45s.31-5.53.87-6,1.07,1.57,1.16,4.43-.31,5.54-.86,6"/><path id="path858" class="cls-6" d="M6,32.16S2.85,36.22,6,42.62"/><path id="path860" class="cls-7" d="M20.64,33.32l2-3.48"/><path id="path862" class="cls-7" d="M15.53,32.16l4.11-3.56"/><path id="path864" class="cls-8" d="M20.83,30.43c-.85-.22-1.43-.87-1.31-1.45s.91-.87,1.76-.64,1.43.87,1.31,1.45-.91.87-1.75.65"/><path id="path850-1" class="cls-9" d="M15.52,32.19H6"/></svg>