<svg id="Ebene_1" data-name="Ebene 1" xmlns="http://www.w3.org/2000/svg" viewBox="0 0 48 48"><defs><style>.cls-1{fill:gray;}.cls-2{fill:none;stroke:gray;stroke-miterlimit:10;}.cls-3{font-size:16.58px;font-family:Arial-BoldMT, Arial;font-weight:700;}</style></defs><title>cladding-alluminium_cladding</title><path class="cls-1" d="M44.08,26.35v18H3.92V29.44a34.15,34.15,0,0,1,3.62-4.2c2.43-2.35,5.14-4,7.87-3.6a5.58,5.58,0,0,1,1.58.45,10,10,0,0,1,3.51,3.15,27.33,27.33,0,0,0,3.62,4.14,9.65,9.65,0,0,0,2.45,1.55c2.6,1.12,6.31,1.28,11.8-1.29A44.86,44.86,0,0,0,44.08,26.35Z"/><polygon class="cls-2" points="44.08 26.35 44.08 44.35 3.92 44.35 3.92 29.44 3.92 25.24 3.92 18.1 3.92 10.95 3.92 4.18 16.99 4.18 31.24 4.18 44.08 4.18 44.08 10.95 44.08 18.1 44.08 25.24 44.08 26.35"/><polyline class="cls-2" points="3.92 10.95 9.87 10.95 16.99 10.95 24.12 10.95 31.24 10.95 38.37 10.95 44.08 10.95"/><polyline class="cls-2" points="3.92 18.1 9.87 18.1 16.99 18.1 24.12 18.1 31.24 18.1 38.37 18.1 44.08 18.1"/><polyline class="cls-2" points="20.5 25.24 24.12 25.24 31.24 25.24 38.37 25.24 44.08 25.24"/><line class="cls-2" x1="7.54" y1="25.24" x2="3.92" y2="25.24"/><line class="cls-2" x1="16.99" y1="10.95" x2="16.99" y2="4.18"/><line class="cls-2" x1="16.99" y1="22.09" x2="16.99" y2="18.1"/><line class="cls-2" x1="31.24" y1="10.95" x2="31.24" y2="4.18"/><line class="cls-2" x1="31.24" y1="25.24" x2="31.24" y2="18.1"/><line class="cls-2" x1="38.37" y1="29.64" x2="38.37" y2="25.24"/><line class="cls-2" x1="38.37" y1="18.1" x2="38.37" y2="10.95"/><line class="cls-2" x1="9.87" y1="18.1" x2="9.87" y2="10.95"/><line class="cls-2" x1="24.12" y1="29.38" x2="24.12" y2="25.24"/><line class="cls-2" x1="24.12" y1="18.1" x2="24.12" y2="10.95"/><path class="cls-2" d="M3.92,29.44a34.15,34.15,0,0,1,3.62-4.2c2.43-2.35,5.14-4,7.87-3.6a5.58,5.58,0,0,1,1.58.45,10,10,0,0,1,3.51,3.15,27.33,27.33,0,0,0,3.62,4.14,9.65,9.65,0,0,0,2.45,1.55c2.6,1.12,6.31,1.28,11.8-1.29a44.86,44.86,0,0,0,5.71-3.29"/><text class="cls-3" transform="translate(5.73 41.58)">Al</text></svg>