<svg id="Ebene_1" data-name="Ebene 1" xmlns="http://www.w3.org/2000/svg" viewBox="0 0 48 48"><defs><style>.cls-1{fill:none;stroke:#000;stroke-linecap:round;stroke-linejoin:round;stroke-width:2px;}</style></defs><title>condition-damaged</title><polyline class="cls-1" points="14.11 27.71 14.11 27.55 13.98 17.33 24.26 17.33 34.01 17.33 34.01 24.99"/><polyline class="cls-1" points="34.01 28.99 34.01 37.24 14.11 37.24 14.11 31.71"/><polyline class="cls-1" points="25.67 11.03 24.26 17.33 34.02 17.33 33.17 11.26 17.51 10.76 13.98 17.33"/><line class="cls-1" x1="21.37" y1="20.64" x2="26.49" y2="20.64"/><polyline class="cls-1" points="14.12 27.71 17.95 24.83 22.14 27.89 27.2 24.64 30.73 28.18 34.02 24.99"/><polyline class="cls-1" points="14.12 31.71 17.95 28.83 22.14 31.89 27.2 28.64 30.73 32.17 34.02 28.99"/></svg>