<svg id="Ebene_1" data-name="Ebene 1" xmlns="http://www.w3.org/2000/svg" viewBox="0 0 48 48"><defs><style>.cls-1{fill:none;stroke:#999;stroke-linecap:round;stroke-miterlimit:10;stroke-width:2px;}.cls-2{font-size:19px;}.cls-2,.cls-3{font-family:Arial-BoldMT, Arial;font-weight:700;}.cls-3{font-size:9px;}</style></defs><title>cooling-nitrogen_cooling</title><line class="cls-1" x1="24" y1="24" x2="24" y2="5.67"/><line class="cls-1" x1="24" y1="42.33" x2="24" y2="24"/><line class="cls-1" x1="24" y1="24" x2="36.96" y2="36.96"/><line class="cls-1" x1="11.04" y1="11.04" x2="24" y2="24"/><line class="cls-1" x1="24" y1="24" x2="11.04" y2="36.96"/><line class="cls-1" x1="36.96" y1="11.04" x2="24" y2="24"/><line class="cls-1" x1="24" y1="24" x2="42.33" y2="24"/><text class="cls-2" transform="translate(15.83 28.54)">N</text><line class="cls-1" x1="19" y1="5.67" x2="23.95" y2="10.61"/><line class="cls-1" x1="29" y1="5.67" x2="24.05" y2="10.61"/><line class="cls-1" x1="28.95" y1="42.33" x2="24" y2="37.39"/><line class="cls-1" x1="18.95" y1="42.33" x2="23.9" y2="37.39"/><line class="cls-1" x1="19" y1="8.99" x2="23.95" y2="13.94"/><line class="cls-1" x1="29" y1="8.99" x2="24.05" y2="13.94"/><line class="cls-1" x1="28.95" y1="38.58" x2="24" y2="33.63"/><line class="cls-1" x1="18.95" y1="38.58" x2="23.9" y2="33.63"/><line class="cls-1" x1="42.33" y1="18.74" x2="37.39" y2="23.68"/><line class="cls-1" x1="42.33" y1="28.74" x2="37.39" y2="23.79"/><line class="cls-1" x1="38.69" y1="19" x2="33.74" y2="23.95"/><line class="cls-1" x1="38.69" y1="29" x2="33.74" y2="24.05"/><line class="cls-1" x1="5.67" y1="29" x2="10.61" y2="24.05"/><line class="cls-1" x1="5.67" y1="19" x2="10.61" y2="23.95"/><line class="cls-1" x1="9.54" y1="29" x2="14.49" y2="24.05"/><line class="cls-1" x1="9.54" y1="19" x2="14.49" y2="23.95"/><line class="cls-1" x1="7.49" y1="14.56" x2="14.48" y2="14.56"/><line class="cls-1" x1="14.56" y1="7.49" x2="14.56" y2="14.48"/><line class="cls-1" x1="33.48" y1="7.45" x2="33.48" y2="14.45"/><line class="cls-1" x1="40.55" y1="14.52" x2="33.55" y2="14.52"/><line class="cls-1" x1="39.75" y1="32.68" x2="32.75" y2="32.68"/><line class="cls-1" x1="32.68" y1="39.75" x2="32.68" y2="32.75"/><line class="cls-1" x1="14.52" y1="40.55" x2="14.52" y2="33.55"/><line class="cls-1" x1="7.45" y1="33.48" x2="14.45" y2="33.48"/><text class="cls-3" transform="translate(28.44 31.04)">2</text></svg>