<svg id="Ebene_1" data-name="Ebene 1" xmlns="http://www.w3.org/2000/svg" viewBox="0 0 48 48"><defs><style>.cls-1,.cls-3{fill:none;}.cls-1{stroke:#999;stroke-linecap:round;stroke-width:2px;}.cls-1,.cls-2,.cls-3{stroke-miterlimit:10;}.cls-2{stroke:#000;}.cls-2,.cls-3{stroke-width:0.25px;}.cls-3{stroke:#fff;}</style></defs><title>cooling-air_cooling</title><line class="cls-1" x1="24" y1="24" x2="24" y2="5.67"/><line class="cls-1" x1="24" y1="42.33" x2="24" y2="24"/><line class="cls-1" x1="24" y1="24" x2="36.96" y2="36.96"/><line class="cls-1" x1="11.04" y1="11.04" x2="24" y2="24"/><line class="cls-1" x1="24" y1="24" x2="11.04" y2="36.96"/><line class="cls-1" x1="36.96" y1="11.04" x2="24" y2="24"/><line class="cls-1" x1="24" y1="24" x2="42.33" y2="24"/><line class="cls-1" x1="5.67" y1="24" x2="24" y2="24"/><line class="cls-1" x1="19" y1="5.67" x2="23.95" y2="10.61"/><line class="cls-1" x1="29" y1="5.67" x2="24.05" y2="10.61"/><line class="cls-1" x1="28.95" y1="42.33" x2="24" y2="37.39"/><line class="cls-1" x1="18.95" y1="42.33" x2="23.9" y2="37.39"/><line class="cls-1" x1="19" y1="8.99" x2="23.95" y2="13.94"/><line class="cls-1" x1="29" y1="8.99" x2="24.05" y2="13.94"/><line class="cls-1" x1="28.95" y1="38.58" x2="24" y2="33.63"/><line class="cls-1" x1="18.95" y1="38.58" x2="23.9" y2="33.63"/><line class="cls-1" x1="42.33" y1="18.74" x2="37.39" y2="23.68"/><line class="cls-1" x1="42.33" y1="28.74" x2="37.39" y2="23.79"/><line class="cls-1" x1="38.69" y1="19" x2="33.74" y2="23.95"/><line class="cls-1" x1="38.69" y1="29" x2="33.74" y2="24.05"/><line class="cls-1" x1="5.67" y1="29" x2="10.61" y2="24.05"/><line class="cls-1" x1="5.67" y1="19" x2="10.61" y2="23.95"/><line class="cls-1" x1="9.54" y1="29" x2="14.49" y2="24.05"/><line class="cls-1" x1="9.54" y1="19" x2="14.49" y2="23.95"/><line class="cls-1" x1="7.49" y1="14.56" x2="14.48" y2="14.56"/><line class="cls-1" x1="14.56" y1="7.49" x2="14.56" y2="14.48"/><line class="cls-1" x1="33.48" y1="7.45" x2="33.48" y2="14.45"/><line class="cls-1" x1="40.55" y1="14.52" x2="33.55" y2="14.52"/><line class="cls-1" x1="39.75" y1="32.68" x2="32.75" y2="32.68"/><line class="cls-1" x1="32.68" y1="39.75" x2="32.68" y2="32.75"/><line class="cls-1" x1="14.52" y1="40.55" x2="14.52" y2="33.55"/><line class="cls-1" x1="7.45" y1="33.48" x2="14.45" y2="33.48"/><path class="cls-2" d="M21.88,27.23l.21.15a9.92,9.92,0,0,0-1.33,2.95c-.71,2.43,1.06,5.08,1.93,5.33s.52-2,1.23-4.42A10.59,10.59,0,0,0,24.36,28a3.09,3.09,0,0,0,.61-.08,9.66,9.66,0,0,0,1.17,3.16c1.22,2.22,4.34,2.84,5.14,2.4s-1-1.77-2.26-4a9.7,9.7,0,0,0-2.08-2.68,3.47,3.47,0,0,0,.25-.29A9.72,9.72,0,0,0,30.25,28c2.43.71,5.07-1.06,5.32-1.93s-2-.52-4.41-1.23A10.23,10.23,0,0,0,28,24.35a2.57,2.57,0,0,0,0-.48,9.55,9.55,0,0,0,3.23-1.16c2.21-1.22,2.84-4.34,2.39-5.14s-1.77,1-4,2.26A9.94,9.94,0,0,0,27,21.77a3.9,3.9,0,0,0-.68-.6,10,10,0,0,0,1.31-2.91c.7-2.42-1.06-5.08-1.93-5.33s-.53,2-1.23,4.42a9.83,9.83,0,0,0-.43,3.16,2.61,2.61,0,0,0-.48,0,10.08,10.08,0,0,0-1.09-2.86c-1.22-2.21-4.34-2.84-5.14-2.4s1,1.78,2.25,4a10.26,10.26,0,0,0,1.82,2.45,5,5,0,0,0-.34.43A10.32,10.32,0,0,0,18.35,21C15.92,20.27,13.27,22,13,22.91s2,.53,4.42,1.23a10.32,10.32,0,0,0,3,.44,4.68,4.68,0,0,0,.09.54,10.52,10.52,0,0,0-2.72,1.07c-2.22,1.22-2.84,4.34-2.4,5.14s1.77-1,4-2.26A10,10,0,0,0,21.88,27.23Z"/><path class="cls-3" d="M26.53,25A2.29,2.29,0,1,1,25,22.14,2.29,2.29,0,0,1,26.53,25Z"/></svg>