<svg id="Ebene_1" data-name="Ebene 1" xmlns="http://www.w3.org/2000/svg" viewBox="0 0 48 48"><defs><style>.cls-1{fill:none;stroke:#000;stroke-width:0.25px;}</style></defs><title>data-digital</title><polygon points="19.85 38.33 21.07 39.66 19.76 40.97 7.54 40.98 6.18 39.54 7.53 38.23 19.75 38.22 19.85 38.33"/><polygon points="43.42 10.24 43.43 22.45 41.99 23.77 40.68 22.46 40.67 10.24 42.11 8.88 43.42 10.24"/><polygon points="4.69 10.11 6.13 8.75 7.44 10.1 7.45 22.32 6.01 23.64 4.7 22.32 4.69 10.11"/><polygon points="22.88 25.85 22.89 38.07 21.45 39.39 20.13 38.08 20.12 25.86 21.56 24.5 22.88 25.85"/><polygon points="20.07 7.02 21.39 8.46 20.07 9.77 7.85 9.78 6.49 8.34 7.85 7.03 20.07 7.02"/><polygon points="43.3 25.88 43.31 38.1 41.87 39.42 40.55 38.1 40.54 25.88 41.98 24.52 43.3 25.88"/><polygon points="23.01 22.43 21.57 23.75 20.26 22.43 20.25 10.21 20.37 10.09 21.69 8.85 23 10.21 23.01 22.43"/><polygon points="7.32 25.59 7.33 37.81 7.23 37.9 5.89 39.12 4.58 37.81 4.57 25.59 6.01 24.23 7.32 25.59"/><polygon class="cls-1" points="7.85 9.78 6.49 8.34 7.85 7.03 20.07 7.02 21.39 8.46 20.07 9.77 7.85 9.78"/><polygon class="cls-1" points="20.37 10.09 21.69 8.85 23 10.21 23.01 22.43 21.57 23.75 20.26 22.43 20.25 10.21 20.37 10.09"/><polygon class="cls-1" points="7.44 10.1 7.45 22.32 6.01 23.64 4.7 22.32 4.69 10.11 6.13 8.75 7.44 10.1"/><polygon class="cls-1" points="7.53 38.23 19.75 38.22 19.85 38.33 21.07 39.66 19.76 40.97 7.54 40.98 6.18 39.54 7.53 38.23"/><polygon class="cls-1" points="6.01 24.23 7.32 25.59 7.33 37.81 7.23 37.9 5.89 39.12 4.58 37.81 4.57 25.59 6.01 24.23"/><polygon class="cls-1" points="21.56 24.5 22.88 25.85 22.89 38.07 21.45 39.39 20.13 38.08 20.12 25.86 21.56 24.5"/><polygon class="cls-1" points="43.43 22.45 41.99 23.77 40.68 22.46 40.67 10.24 42.11 8.88 43.42 10.24 43.43 22.45"/><polygon class="cls-1" points="43.31 38.1 41.87 39.42 40.55 38.1 40.54 25.88 41.98 24.52 43.3 25.88 43.31 38.1"/></svg>