<svg id="Ebene_1" data-name="Ebene 1" xmlns="http://www.w3.org/2000/svg" viewBox="0 0 48 48"><defs><style>.cls-1{fill:none;stroke:#000;stroke-miterlimit:10;stroke-width:0.25px;}</style></defs><title>mode-semi_automatic</title><path d="M37.31,15.87a14.9,14.9,0,0,1,1.85,4.51A3.62,3.62,0,0,0,36,24H34.06a10,10,0,0,0-10-10V12.11a3.62,3.62,0,0,0,3.59-3.2,15.2,15.2,0,0,1,4.51,1.87,3.63,3.63,0,0,0,5.11,5.09Z"/><path d="M39.16,27.58a15.08,15.08,0,0,1-2,4.67,3.62,3.62,0,0,0-5.15,5,15.19,15.19,0,0,1-4.53,1.81,3.66,3.66,0,0,0-3.62-3.24l0-1.91h.16a10,10,0,0,0,10-10H36A3.62,3.62,0,0,0,39.16,27.58Z"/><path d="M24.1,12.11V14a10,10,0,0,0-10,10H12.23A3.62,3.62,0,0,0,9,20.38a14.94,14.94,0,0,1,1.87-4.51A3.62,3.62,0,0,0,16,10.78a15.31,15.31,0,0,1,4.51-1.87A3.63,3.63,0,0,0,24.1,12.11Z"/><path d="M23.94,33.94l0,1.91A3.62,3.62,0,0,0,20.31,39,15.38,15.38,0,0,1,16,37.18a3.62,3.62,0,0,0-5.09-5.09A14.94,14.94,0,0,1,9,27.58,3.62,3.62,0,0,0,12.23,24h1.91A10,10,0,0,0,23.94,33.94Z"/><path class="cls-1" d="M34.06,24a10,10,0,0,1-10,10h-.16A10,10,0,1,1,34.06,24Z"/><path class="cls-1" d="M24.1,12.11a3.62,3.62,0,0,0,3.59-3.2,15.2,15.2,0,0,1,4.51,1.87,3.63,3.63,0,0,0,5.11,5.09,14.9,14.9,0,0,1,1.85,4.51,3.63,3.63,0,0,0,0,7.2,15.08,15.08,0,0,1-2,4.67,3.62,3.62,0,0,0-5.15,5,15.19,15.19,0,0,1-4.53,1.81A3.63,3.63,0,0,0,20.31,39,15.38,15.38,0,0,1,16,37.18a3.62,3.62,0,0,0-5.09-5.09A14.94,14.94,0,0,1,9,27.58a3.62,3.62,0,0,0,0-7.2,14.94,14.94,0,0,1,1.87-4.51A3.62,3.62,0,0,0,16,10.78a15.31,15.31,0,0,1,4.51-1.87A3.63,3.63,0,0,0,24.1,12.11Z"/><g id="Ebene_2" data-name="Ebene 2"><path d="M21.42,27.3l6.25-5.92,0,0A2.18,2.18,0,0,0,30.06,21a2.5,2.5,0,0,0,.67-2.06l-1.59,1.47c-.18.16-.39.27-.56.09l-1-1a.44.44,0,0,1,0-.63l1.57-1.49a2.16,2.16,0,0,0-2.63,2.89l0,0L20.29,26.1a2.16,2.16,0,0,0-3,2.4L18.83,27a.44.44,0,0,1,.62,0l1,1a.43.43,0,0,1,0,.62l-1.54,1.46a2.17,2.17,0,0,0,2.56-2.87Z"/></g></svg>