<svg id="Ebene_1" data-name="Ebene 1" xmlns="http://www.w3.org/2000/svg" viewBox="0 0 48 48"><defs><style>.cls-1,.cls-2{fill:none;}.cls-1,.cls-2,.cls-3{stroke:#000;stroke-miterlimit:10;}.cls-2{stroke-width:0.75px;}.cls-3{stroke-width:0.25px;}</style></defs><title>operation_milling_maschine</title><polyline class="cls-1" points="2.23 36.69 8.59 36.69 8.59 43.25 37.33 43.25 37.33 35.86 45.77 35.86"/><path class="cls-2" d="M21.13,35.44a.11.11,0,0,1,.11.1.11.11,0,0,1-.11.11.11.11,0,0,1-.1-.11A.11.11,0,0,1,21.13,35.44Z"/><path class="cls-2" d="M20,32.49a.1.1,0,0,1,.1.11.1.1,0,0,1-.1.1.11.11,0,0,1-.11-.1A.11.11,0,0,1,20,32.49Z"/><path class="cls-2" d="M18.56,29.92a.11.11,0,0,1,.11.1.11.11,0,0,1-.11.11.1.1,0,0,1-.1-.11A.1.1,0,0,1,18.56,29.92Z"/><circle class="cls-2" cx="17.1" cy="27.73" r="0.1"/><path class="cls-2" d="M15.62,25.2a.11.11,0,0,1,.1.11.11.11,0,0,1-.1.1.11.11,0,0,1-.11-.1A.11.11,0,0,1,15.62,25.2Z"/><path class="cls-2" d="M19.14,37.48a.11.11,0,0,1,.1.11.11.11,0,0,1-.1.1.11.11,0,0,1-.11-.1A.11.11,0,0,1,19.14,37.48Z"/><path class="cls-2" d="M16.79,35.35a.1.1,0,1,1,0,.2.1.1,0,0,1,0-.2Z"/><path class="cls-2" d="M14.4,33.64a.1.1,0,0,1,.1.1.11.11,0,0,1-.1.11.11.11,0,0,1-.11-.11A.1.1,0,0,1,14.4,33.64Z"/><path class="cls-2" d="M12.1,32.21a.11.11,0,0,1,.1.11.11.11,0,0,1-.1.1.11.11,0,0,1-.11-.1A.11.11,0,0,1,12.1,32.21Z"/><path class="cls-2" d="M9.69,30.68a.1.1,0,0,1,.1.1.1.1,0,1,1-.2,0A.1.1,0,0,1,9.69,30.68Z"/><path class="cls-2" d="M43.12,27.24a.1.1,0,0,1,.1.11.09.09,0,0,1-.1.1.1.1,0,0,1-.11-.1A.11.11,0,0,1,43.12,27.24Z"/><path class="cls-2" d="M40.94,29.55a.1.1,0,1,1,0,.2.1.1,0,0,1,0-.2Z"/><path class="cls-2" d="M38.69,31.44a.11.11,0,0,1,.11.11.11.11,0,0,1-.11.1.1.1,0,0,1-.1-.1A.1.1,0,0,1,38.69,31.44Z"/><path class="cls-2" d="M36.51,33a.11.11,0,0,1,.1.11.1.1,0,0,1-.1.1.1.1,0,0,1-.11-.1A.11.11,0,0,1,36.51,33Z"/><path class="cls-2" d="M34.22,34.75a.11.11,0,0,1,.11.11.11.11,0,0,1-.11.1.11.11,0,0,1-.1-.1A.11.11,0,0,1,34.22,34.75Z"/><polygon class="cls-3" points="37.69 6.75 19.57 6.75 19.57 16.43 22.18 16.43 22.18 23.2 26.86 23.2 26.86 38.72 30.4 38.72 30.4 23.2 35.09 23.2 35.09 16.43 37.69 16.43 37.69 6.75"/><polygon class="cls-3" points="34.72 38.9 34.72 42.17 33.82 42.17 33.81 41.15 32.61 41.86 32.09 42.17 31.05 42.17 31.04 41.15 29.83 41.86 29.31 42.17 28.25 42.17 28.23 41.04 27.03 41.76 26.34 42.17 25.46 42.17 25.45 41.15 24.25 41.86 23.73 42.17 22.55 42.17 22.55 38.9 34.72 38.9"/></svg>