<svg id="Ebene_1" data-name="Ebene 1" xmlns="http://www.w3.org/2000/svg" viewBox="0 0 48 48"><defs><style>.cls-1{fill:#7e7e7e;stroke:#000;stroke-miterlimit:10;stroke-width:0.5px;}</style></defs><title>protection-wind_protection</title><path class="cls-1" d="M23.42,46.38c3.06-1.94,9.3-5.5,13-11.6,7.15-11.67,2.9-31.89,2.9-31.89a5.73,5.73,0,0,1-2.9,1.45,23.5,23.5,0,0,1-13-2.9,23.56,23.56,0,0,1-13.05,2.9,5.73,5.73,0,0,1-2.9-1.45s-4.25,20.22,2.9,31.89C14.11,40.88,20.35,44.44,23.42,46.38Z"/><path d="M38.75,20.18c-1,2.67-2.82,3.64-5.64,3.6-7.84-.12-15.69,0-23.54-.05-.5,0-1,0-1.49-.06v-2c.5,0,1-.1,1.48-.1H33.07c.41,0,.83,0,1.24,0a2.34,2.34,0,0,0,2.17-2,2.42,2.42,0,0,0-1.58-2.42,2.34,2.34,0,0,0-2.68,1.06c-.78,1.24-.78,1.24-2.4.94-.35-1.62,1.44-3.77,3.21-4.15a4.53,4.53,0,0,1,5.28,2.48c.16.34.29.68.44,1Z"/><path d="M19.63,14.61A4,4,0,0,1,22,10.7a4.62,4.62,0,0,1,4.91.59,4.51,4.51,0,0,1,1.36,4.86,4.24,4.24,0,0,1-4.11,3c-4.52,0-9,0-13.66,0V17H12c3.94,0,7.89,0,11.84,0,1.86,0,3.09-1.71,2.21-3.16a2.83,2.83,0,0,0-1.9-1.29,2.46,2.46,0,0,0-2,1.06C21.53,15,20.64,14.76,19.63,14.61Z"/><path d="M27.59,29.51c.94,0,1.87-.34,2.43.79.11.24.87.37,1.2.23a1.37,1.37,0,0,0,.69-1,1.34,1.34,0,0,0-.69-1,4,4,0,0,0-1.59-.18H15V26.13h4.24c3.81,0,7.63,0,11.44,0a3.37,3.37,0,1,1-.59,6.67A3.08,3.08,0,0,1,27.59,29.51Z"/></svg>