<svg id="Ebene_1" data-name="Ebene 1" xmlns="http://www.w3.org/2000/svg" viewBox="0 0 48 48"><defs><style>.cls-1{fill:#7e7e7e;stroke-width:0.5px;}.cls-1,.cls-2,.cls-3{stroke:#000;stroke-miterlimit:10;}.cls-2{fill:none;stroke-width:2px;}.cls-2,.cls-3{stroke-linecap:round;}.cls-3{stroke-width:0.25px;}</style></defs><title>protection-explosive_protection</title><path class="cls-1" d="M25,47.24C28,45.31,34.26,41.75,38,35.65,45.15,24,40.9,3.76,40.9,3.76A5.78,5.78,0,0,1,38,5.21a23.54,23.54,0,0,1-13-2.9,23.54,23.54,0,0,1-13,2.9A5.78,5.78,0,0,1,9,3.76S4.75,24,11.9,35.65C15.64,41.75,21.88,45.31,25,47.24Z"/><line class="cls-2" x1="14.79" y1="31.19" x2="33.56" y2="31.19"/><polygon class="cls-3" points="17.37 29.89 15.82 27.02 19.28 28.66 18.02 22.45 21.57 27.16 24.4 20.81 24.99 26.25 30.03 22.16 26.77 27.23 32.82 25.93 29.43 29.89 32.85 29.89 39.65 21.97 30.44 24.32 37.6 13.7 26.53 22.26 25.1 12.82 20.94 24.26 14.9 15.69 17.42 26.14 11.88 23.38 15.41 29.89 17.37 29.89"/></svg>