<svg id="Ebene_1" data-name="Ebene 1" xmlns="http://www.w3.org/2000/svg" viewBox="0 0 48 48"><defs><style>.cls-1{fill:#fff;}.cls-2,.cls-3,.cls-4{fill:none;stroke-miterlimit:10;stroke-width:0.25px;}.cls-2,.cls-3{stroke:#fff;}.cls-3{stroke-linecap:square;}.cls-4{stroke:#000;}</style></defs><title>3_jaw_power_chuck</title><path d="M25,13.07h0V11.23h14.4v1.84H25Zm13.15-.92c0-.37-.66-.67-1.47-.67s-1.46.3-1.46.67.66.67,1.46.67S38.14,12.52,38.14,12.15Zm-4.23,0c0-.37-.66-.67-1.46-.67s-1.47.3-1.47.67.66.67,1.47.67S33.91,12.52,33.91,12.15Z"/><path d="M39.35,15.45v18h0c0,3.89-6.87,7-15.34,7s-15.34-3.15-15.34-7a3,3,0,0,1,0-.42V15.45H8.8c1,3.46,7.41,6.12,15.21,6.12s14.23-2.66,15.2-6.12Z"/><polygon points="39.35 14.53 39.35 15.45 39.21 15.45 29.29 15.45 27.17 15.45 24.99 15.45 24.99 13.07 39.35 13.07 39.35 14.53"/><path d="M29.29,15.45h9.92c-1,3.46-7.41,6.12-15.2,6.12S9.77,18.91,8.8,15.45h9.92c.8,1,2.86,1.68,5.29,1.68S28.49,16.43,29.29,15.45Zm.42,4.49c0-.37-.65-.67-1.46-.67s-1.46.3-1.46.67.65.67,1.46.67S29.71,20.31,29.71,19.94Zm-4.36.41c0-.37-.66-.67-1.47-.67s-1.46.3-1.46.67.66.67,1.46.67S25.35,20.72,25.35,20.35Zm-4.2-.46c0-.37-.65-.67-1.46-.67s-1.46.3-1.46.67.65.67,1.46.67S21.15,20.26,21.15,19.89Z"/><path d="M37.56,11.23H25V12c-.31,0-.63,0-1,0s-.67,0-1,0v-.84H10.56C13.17,9,18.22,7.5,24,7.5S35,9,37.56,11.23ZM29.8,9.1c0-.37-.65-.67-1.46-.67s-1.46.3-1.46.67.65.67,1.46.67S29.8,9.47,29.8,9.1Zm-4.37-.41c0-.37-.65-.67-1.46-.67s-1.46.3-1.46.67.65.67,1.46.67S25.43,9.06,25.43,8.69Zm-4.19.47c0-.37-.65-.67-1.46-.67s-1.47.3-1.47.67.66.67,1.47.67S21.24,9.53,21.24,9.16Z"/><path class="cls-1" d="M36.67,11.48c.81,0,1.47.3,1.47.67s-.66.67-1.47.67-1.46-.3-1.46-.67S35.87,11.48,36.67,11.48Z"/><path class="cls-1" d="M32.45,11.48c.8,0,1.46.3,1.46.67s-.66.67-1.46.67S31,12.52,31,12.15,31.64,11.48,32.45,11.48Z"/><path d="M27.17,15.45h2.12c-.8,1-2.86,1.68-5.28,1.68s-4.49-.7-5.29-1.68H21a5.59,5.59,0,0,0,3.11.78A5.59,5.59,0,0,0,27.17,15.45Z"/><ellipse class="cls-1" cx="28.34" cy="9.1" rx="1.46" ry="0.67"/><ellipse class="cls-1" cx="28.25" cy="19.94" rx="1.46" ry="0.67"/><path d="M25,15.45h2.18a5.59,5.59,0,0,1-3.11.78A5.59,5.59,0,0,1,21,15.45H23V12.9a7,7,0,0,1,1-.07,8.76,8.76,0,0,1,.91.05v.19h0Z"/><path d="M25,12v.9a8.76,8.76,0,0,0-.91-.05,7,7,0,0,0-1,.07V12c.32,0,.65,0,1,0S24.66,12,25,12Z"/><ellipse class="cls-1" cx="23.97" cy="8.69" rx="1.46" ry="0.67"/><path class="cls-1" d="M23.88,19.68c.81,0,1.47.3,1.47.67s-.66.67-1.47.67-1.46-.3-1.46-.67S23.08,19.68,23.88,19.68Z"/><polygon points="23.02 12.98 23.02 15.45 20.95 15.45 18.72 15.45 8.8 15.45 8.66 15.45 8.66 14.53 8.66 12.98 23.02 12.98"/><path d="M23,12.9V13H8.63V11.14H23V12.9Zm-6-.84c0-.37-.65-.67-1.46-.67s-1.46.3-1.46.67.65.67,1.46.67S17,12.43,17,12.06Zm-4.23,0c0-.37-.65-.67-1.46-.67s-1.46.3-1.46.67.65.67,1.46.67S12.78,12.43,12.78,12.06Z"/><path class="cls-1" d="M19.78,8.49c.81,0,1.46.3,1.46.67s-.65.67-1.46.67-1.47-.3-1.47-.67S19,8.49,19.78,8.49Z"/><ellipse class="cls-1" cx="19.69" cy="19.89" rx="1.46" ry="0.67"/><ellipse class="cls-1" cx="15.55" cy="12.06" rx="1.46" ry="0.67"/><ellipse class="cls-1" cx="11.32" cy="12.06" rx="1.46" ry="0.67"/><path class="cls-2" d="M10.56,11.14C13.17,9,18.22,7.5,24,7.5S35,9,37.56,11.23"/><path class="cls-2" d="M8.8,15.45c1,3.46,7.41,6.12,15.21,6.12s14.23-2.66,15.2-6.12"/><polygon class="cls-2" points="23.02 12.98 8.66 12.98 8.63 12.98 8.63 11.14 10.56 11.14 23.02 11.14 23.02 11.98 23.02 12.9 23.02 12.98"/><path class="cls-2" d="M23,12c.32,0,.65,0,1,0s.65,0,1,0"/><path class="cls-2" d="M18.72,15.45c.8,1,2.86,1.68,5.29,1.68s4.48-.7,5.28-1.68"/><path class="cls-2" d="M21,15.45a5.59,5.59,0,0,0,3.11.78,5.59,5.59,0,0,0,3.11-.78"/><path class="cls-2" d="M23,12.9a7,7,0,0,1,1-.07,8.76,8.76,0,0,1,.91.05"/><ellipse class="cls-2" cx="11.32" cy="12.06" rx="1.46" ry="0.67"/><ellipse class="cls-2" cx="15.55" cy="12.06" rx="1.46" ry="0.67"/><polygon class="cls-2" points="37.56 11.23 39.37 11.23 39.37 13.07 39.35 13.07 24.99 13.07 24.97 13.07 24.97 12.88 24.97 11.98 24.97 11.23 37.56 11.23"/><path class="cls-2" d="M35.21,12.15c0,.37.66.67,1.46.67s1.47-.3,1.47-.67-.66-.67-1.47-.67S35.21,11.78,35.21,12.15Z"/><path class="cls-2" d="M31,12.15c0,.37.66.67,1.47.67s1.46-.3,1.46-.67-.66-.67-1.46-.67S31,11.78,31,12.15Z"/><path class="cls-2" d="M22.42,20.35c0,.37.66.67,1.46.67s1.47-.3,1.47-.67-.66-.67-1.47-.67S22.42,20,22.42,20.35Z"/><ellipse class="cls-2" cx="28.25" cy="19.94" rx="1.46" ry="0.67"/><ellipse class="cls-2" cx="19.69" cy="19.89" rx="1.46" ry="0.67"/><ellipse class="cls-2" cx="23.97" cy="8.69" rx="1.46" ry="0.67"/><ellipse class="cls-2" cx="28.34" cy="9.1" rx="1.46" ry="0.67"/><path class="cls-2" d="M18.31,9.16c0-.37.66-.67,1.47-.67s1.46.3,1.46.67-.65.67-1.46.67S18.31,9.53,18.31,9.16Z"/><line class="cls-2" x1="8.66" y1="33.04" x2="8.66" y2="15.45"/><polyline class="cls-2" points="39.35 15.45 39.35 33.46 39.31 33.46"/><path class="cls-2" d="M8.66,33a3,3,0,0,0,0,.42c0,3.89,6.87,7,15.34,7s15.34-3.15,15.34-7"/><polyline class="cls-2" points="8.66 15.45 8.66 14.53 8.66 12.98"/><polyline class="cls-3" points="8.66 15.45 8.8 15.45 18.72 15.45 20.95 15.45 23.02 15.45"/><line class="cls-3" x1="23.02" y1="15.45" x2="23.02" y2="12.98"/><polyline class="cls-3" points="24.99 15.45 24.99 13.07 24.99 12.98"/><polyline class="cls-2" points="24.99 15.45 27.17 15.45 29.29 15.45 39.21 15.45 39.35 15.45"/><polyline class="cls-2" points="39.35 12.98 39.35 13.07 39.35 14.53 39.35 15.45"/><path class="cls-4" d="M17.87,19.52s1.32-.2,1.82-.2a18.41,18.41,0,0,1,1.91.2"/><path class="cls-4" d="M17.87,19.89s1.32-.2,1.82-.21,1.91.21,1.91.21"/><path class="cls-4" d="M17.87,20.25s1.32-.2,1.82-.2,1.91.2,1.91.2"/><path class="cls-4" d="M17.87,20.62s1.32-.2,1.82-.2a18.41,18.41,0,0,1,1.91.2"/><path class="cls-4" d="M22,20s1.32-.2,1.82-.21,1.91.21,1.91.21"/><path class="cls-4" d="M22,20.34s1.32-.2,1.82-.21,1.91.21,1.91.21"/><path class="cls-4" d="M22,20.7s1.32-.2,1.82-.2a18.41,18.41,0,0,1,1.91.2"/><path class="cls-4" d="M22,21.07s1.32-.2,1.82-.2a18.41,18.41,0,0,1,1.91.2"/><path class="cls-4" d="M26.39,19.57s1.32-.2,1.82-.2a18.41,18.41,0,0,1,1.91.2"/><path class="cls-4" d="M26.39,19.94s1.32-.2,1.82-.21,1.91.21,1.91.21"/><path class="cls-4" d="M26.39,20.31s1.32-.2,1.82-.21,1.91.21,1.91.21"/><path class="cls-4" d="M26.39,20.67s1.32-.2,1.82-.2a18.41,18.41,0,0,1,1.91.2"/><path class="cls-4" d="M17.92,8.79s1.32-.2,1.82-.21,1.9.21,1.9.21"/><path class="cls-4" d="M17.92,9.15S19.24,9,19.74,9s1.9.2,1.9.2"/><path class="cls-4" d="M17.92,9.52s1.32-.2,1.82-.2a18.46,18.46,0,0,1,1.9.2"/><path class="cls-4" d="M17.92,9.89s1.32-.2,1.82-.21,1.9.21,1.9.21"/><path class="cls-4" d="M22.11,8.32s1.32-.2,1.82-.21,1.9.21,1.9.21"/><path class="cls-4" d="M22.11,8.68s1.32-.2,1.82-.2a18.14,18.14,0,0,1,1.9.2"/><path class="cls-4" d="M22.11,9.05s1.32-.2,1.82-.2a18.14,18.14,0,0,1,1.9.2"/><path class="cls-4" d="M22.11,9.42s1.32-.2,1.82-.21,1.9.21,1.9.21"/><path class="cls-4" d="M26.48,8.76s1.32-.19,1.82-.2,1.9.2,1.9.2"/><path class="cls-4" d="M26.48,9.13s1.32-.2,1.82-.2a18.14,18.14,0,0,1,1.9.2"/><path class="cls-4" d="M26.48,9.5s1.32-.2,1.82-.21,1.9.21,1.9.21"/><path class="cls-4" d="M26.48,9.87s1.32-.2,1.82-.21,1.9.21,1.9.21"/><path class="cls-4" d="M9.5,11.61s1.33-.2,1.82-.2a18.41,18.41,0,0,1,1.91.2"/><path class="cls-4" d="M9.5,12s1.33-.2,1.82-.21,1.91.21,1.91.21"/><path class="cls-4" d="M9.5,12.34s1.33-.2,1.82-.2,1.91.2,1.91.2"/><path class="cls-4" d="M9.5,12.71s1.33-.2,1.82-.2a18.41,18.41,0,0,1,1.91.2"/><path class="cls-4" d="M13.69,11.61s1.32-.2,1.82-.2a18.14,18.14,0,0,1,1.9.2"/><path class="cls-4" d="M13.69,12s1.32-.2,1.82-.21,1.9.21,1.9.21"/><path class="cls-4" d="M13.69,12.34s1.32-.2,1.82-.2,1.9.2,1.9.2"/><path class="cls-4" d="M13.69,12.71s1.32-.2,1.82-.2a18.14,18.14,0,0,1,1.9.2"/><path class="cls-4" d="M30.58,11.72s1.33-.2,1.82-.2,1.91.2,1.91.2"/><path class="cls-4" d="M30.58,12.09s1.33-.2,1.82-.2a18.41,18.41,0,0,1,1.91.2"/><path class="cls-4" d="M30.58,12.46s1.33-.2,1.82-.21,1.91.21,1.91.21"/><path class="cls-4" d="M30.58,12.83s1.33-.2,1.82-.21,1.91.21,1.91.21"/><path class="cls-4" d="M34.81,11.72s1.32-.2,1.82-.2,1.91.2,1.91.2"/><path class="cls-4" d="M34.81,12.09s1.32-.2,1.82-.2a18.41,18.41,0,0,1,1.91.2"/><path class="cls-4" d="M34.81,12.46s1.32-.2,1.82-.21,1.91.21,1.91.21"/><path class="cls-4" d="M34.81,12.83s1.32-.2,1.82-.21,1.91.21,1.91.21"/></svg>