<svg id="Ebene_1" data-name="Ebene 1" xmlns="http://www.w3.org/2000/svg" viewBox="0 0 48 48"><defs><style>.cls-1{fill:#f7931e;}.cls-2{fill:#4d4d4d;}.cls-3{fill:lime;}.cls-4{fill:blue;}.cls-5,.cls-6,.cls-7{fill:none;stroke-miterlimit:10;}.cls-5{stroke:#000;stroke-width:0.25px;}.cls-6,.cls-7{stroke:red;stroke-width:2px;}.cls-7{stroke-linecap:round;}.cls-8{font-size:12px;fill:red;font-family:Arial-BoldMT, Arial;font-weight:700;}</style></defs><title>cables-3x1,0</title><path d="M36.1,24.74h0c-.93,1.08-3.65.4-6.68-1.51l0,0,2-2.42,2-2.43L37,14.19c-.15.23-.06.63.21,1.1A6.73,6.73,0,0,0,38.65,17a6.73,6.73,0,0,0,1.89,1.15c.53.19.94.21,1.14,0Z"/><path d="M41.69,18.08v0c-.2.21-.61.19-1.14,0l1-1.17C41.81,17.43,41.88,17.86,41.69,18.08Z"/><path class="cls-1" d="M41.52,16.93l-1,1.17A6.73,6.73,0,0,1,38.65,17a6.73,6.73,0,0,1-1.47-1.66l1-1.17,2.51-3c-.26.34.26,1.23,1.18,2s1.88,1.13,2.18.82Z"/><path class="cls-1" d="M44,13.93h0c-.3.31-1.26,0-2.18-.82s-1.44-1.66-1.18-2h0c.27-.32,1.24,0,2.17.82S44.31,13.61,44,13.93Z"/><path d="M37,14.19a.05.05,0,0,1,0,0c.19-.23.62-.22,1.17,0l-1,1.17C36.91,14.82,36.82,14.42,37,14.19Z"/><path class="cls-2" d="M29.38,23.22h0L29,23,33.16,18q.17.16.3.33l-2,2.43Z"/><path class="cls-3" d="M33.16,18,29,23a26.2,26.2,0,0,1-2.49-1.85A27.54,27.54,0,0,1,24.25,19l4.16-5,1.31-1.56c-.2.24-.11.67.2,1.19a6.92,6.92,0,0,0,1.47,1.65,7,7,0,0,0,1.89,1.17c.55.2,1,.22,1.2,0Z"/><path class="cls-3" d="M34.27,15.3c.3.51.4.94.21,1.17s-.65.22-1.2,0Z"/><path class="cls-1" d="M34.27,15.3l-1,1.19a7,7,0,0,1-1.89-1.17,6.92,6.92,0,0,1-1.47-1.65l1-1.19,2.49-3c-.28.33.25,1.22,1.18,2s1.9,1.15,2.17.82Z"/><path class="cls-1" d="M35.59,10.33c.92.78,1.45,1.68,1.17,2s-1.24,0-2.17-.82-1.46-1.67-1.18-2S34.66,9.55,35.59,10.33Z"/><path class="cls-3" d="M30.92,12.48l-1,1.19c-.31-.52-.4-.95-.2-1.19S30.36,12.26,30.92,12.48Z"/><path class="cls-2" d="M28.41,14l-4.16,5a3.08,3.08,0,0,1-.24-.27l4.1-4.87Z"/><path class="cls-4" d="M28.11,13.86,24,18.73s-.05-.06-.08-.08v0c-2.4-2.67-3.54-5.23-2.62-6.32l5.59-6.66c-.19.23-.1.66.2,1.18a6.71,6.71,0,0,0,1.47,1.65,6.66,6.66,0,0,0,1.89,1.16c.55.22,1,.23,1.19,0L28.1,13.85Z"/><path class="cls-4" d="M31.44,8.46c.3.51.4.94.2,1.18s-.64.22-1.19,0Z"/><path class="cls-1" d="M31.44,8.46l-1,1.18a6.66,6.66,0,0,1-1.89-1.16,6.71,6.71,0,0,1-1.47-1.65l1-1.19,2.51-3c-.27.34.26,1.23,1.18,2s1.88,1.14,2.17.82Z"/><path class="cls-1" d="M34,5.46h0c-.29.32-1.25,0-2.17-.82S30.33,3,30.6,2.65h0c.27-.32,1.25,0,2.17.82S34.23,5.14,34,5.46Z"/><path class="cls-4" d="M28.09,5.64l-1,1.19c-.3-.52-.39-1-.2-1.18S27.53,5.43,28.09,5.64Z"/><line class="cls-5" x1="28.1" y1="13.85" x2="31.64" y2="9.64"/><path class="cls-5" d="M31.44,8.46c.3.51.4.94.2,1.18s-.64.22-1.19,0a6.66,6.66,0,0,1-1.89-1.16,6.71,6.71,0,0,1-1.47-1.65c-.3-.52-.39-1-.2-1.18s.64-.22,1.2,0"/><path class="cls-5" d="M34.27,15.3c.3.51.4.94.21,1.17s-.65.22-1.2,0a7,7,0,0,1-1.89-1.17,6.92,6.92,0,0,1-1.47-1.65c-.31-.52-.4-.95-.2-1.19s.64-.22,1.2,0"/><polyline class="cls-5" points="4 33.14 3.89 33.04 21.3 12.3"/><polyline class="cls-5" points="36.09 24.75 18.69 45.47 18.59 45.39"/><path class="cls-5" d="M29.41,23.24c3,1.91,5.75,2.59,6.68,1.51"/><path class="cls-5" d="M28.1,13.85h0l.3.18"/><path class="cls-5" d="M33.46,18.37q-.14-.16-.3-.33"/><path class="cls-5" d="M21.3,12.31c-.92,1.09.22,3.65,2.62,6.32v0s.05.06.08.08a3.08,3.08,0,0,0,.24.27,27.54,27.54,0,0,0,2.26,2.14A26.2,26.2,0,0,0,29,23l.38.24h0l2-2.42"/><line class="cls-5" x1="21.3" y1="12.31" x2="26.89" y2="5.65"/><polyline class="cls-5" points="24.01 18.73 28.11 13.86 31.64 9.64"/><polyline class="cls-5" points="29.72 12.48 28.41 14.04 24.25 19"/><polyline class="cls-5" points="34.48 16.47 33.16 18.04 29 22.99"/><polyline class="cls-5" points="41.68 18.1 36.1 24.74 36.09 24.75"/><polyline class="cls-5" points="31.42 20.8 33.46 18.36 36.97 14.19 37.01 14.15"/><path class="cls-5" d="M38.17,14.12c-.55-.2-1-.21-1.17,0a.05.05,0,0,0,0,0c-.15.23-.06.63.21,1.1A6.73,6.73,0,0,0,38.65,17a6.73,6.73,0,0,0,1.89,1.15c.53.19.94.21,1.14,0v0c.19-.22.12-.65-.17-1.15"/><polyline class="cls-5" points="30.6 2.65 28.09 5.64 27.09 6.83"/><polyline class="cls-5" points="30.45 9.64 31.44 8.46 33.95 5.47"/><path class="cls-5" d="M30.6,2.65h0c.27-.32,1.25,0,2.17.82s1.46,1.68,1.19,2h0c-.29.32-1.25,0-2.17-.82S30.33,3,30.6,2.65Z"/><polyline class="cls-5" points="33.41 9.52 30.92 12.48 29.92 13.67"/><polyline class="cls-5" points="33.28 16.49 34.27 15.3 36.76 12.34"/><path class="cls-5" d="M36.76,12.34c-.27.33-1.24,0-2.17-.82s-1.46-1.67-1.18-2,1.25,0,2.18.81S37,12,36.76,12.34Z"/><polyline class="cls-5" points="40.68 11.12 38.17 14.12 37.18 15.29"/><polyline class="cls-5" points="40.54 18.1 41.52 16.93 44.03 13.94"/><path class="cls-5" d="M40.68,11.12h0c.27-.32,1.24,0,2.17.82s1.45,1.68,1.18,2h0c-.3.31-1.26,0-2.18-.82S40.42,11.46,40.68,11.12Z"/><circle class="cls-6" cx="12.41" cy="28.28" r="7.56"/><line class="cls-7" x1="20.94" y1="19.73" x2="4.14" y2="36.54"/><text class="cls-8" transform="translate(21.3 33.51)">1,0</text></svg>