<svg id="Ebene_1" data-name="Ebene 1" xmlns="http://www.w3.org/2000/svg" viewBox="0 0 48 48"><defs><style>.cls-1{fill:#f7931e;}.cls-2{fill:lime;}.cls-3{fill:blue;}.cls-4{fill:#4d4d4d;}.cls-5,.cls-6,.cls-7{fill:none;stroke-miterlimit:10;}.cls-5{stroke:#000;stroke-width:0.25px;}.cls-6,.cls-7{stroke:red;stroke-width:2px;}.cls-7{stroke-linecap:round;}.cls-8{font-size:12px;fill:red;font-family:Arial-BoldMT, Arial;font-weight:700;}</style></defs><title>cables-3x1,5</title><path class="cls-1" d="M31.44,8.45l-1,1.19a6.71,6.71,0,0,1-1.88-1.16,6.8,6.8,0,0,1-1.48-1.66l1-1.18,2.51-3c-.27.32.25,1.22,1.18,2s1.9,1.14,2.17.82Z"/><path d="M37.19,15.29A6.85,6.85,0,0,0,38.65,17a6.73,6.73,0,0,0,1.89,1.15c.53.19.94.2,1.14,0l-5.57,6.64,0,0c-.93,1.08-3.65.4-6.68-1.51l0,0,2-2.42,2-2.44L37,14.19C36.83,14.42,36.91,14.82,37.19,15.29Z"/><path class="cls-2" d="M34.28,15.3c.3.51.39.94.2,1.17s-.64.22-1.2,0Z"/><path class="cls-1" d="M34.28,15.3l-1,1.18a6.49,6.49,0,0,1-1.88-1.16,6.71,6.71,0,0,1-1.47-1.65l1-1.19,2.49-3c-.28.33.25,1.22,1.18,2s1.9,1.14,2.18.81Z"/><path class="cls-3" d="M28.09,5.64l-1,1.18c-.3-.51-.39-.94-.2-1.17S27.53,5.43,28.09,5.64Z"/><path class="cls-1" d="M42.86,11.93c.93.78,1.45,1.68,1.18,2s-1.25,0-2.17-.82-1.46-1.68-1.19-2S41.94,11.15,42.86,11.93Z"/><path class="cls-1" d="M41.52,16.93l-1,1.17A6.73,6.73,0,0,1,38.65,17a6.85,6.85,0,0,1-1.46-1.66l1-1.18,2.51-3c-.27.32.26,1.22,1.19,2s1.9,1.14,2.17.82Z"/><path class="cls-3" d="M28.1,13.85h0L24,18.73s-.05-.06-.08-.08v0C21.52,16,20.38,13.4,21.3,12.3l5.59-6.65c-.19.23-.1.66.2,1.17a6.8,6.8,0,0,0,1.48,1.66,6.71,6.71,0,0,0,1.88,1.16c.55.21,1,.23,1.19,0Z"/><path class="cls-4" d="M33.46,18.36l-2,2.44-2,2.42h0L29,23l4.16-5Z"/><path class="cls-1" d="M32.78,3.46c.92.78,1.45,1.68,1.17,2s-1.24,0-2.17-.82S30.33,3,30.6,2.65,31.85,2.68,32.78,3.46Z"/><path class="cls-4" d="M28.41,14l-4.16,5c-.09-.09-.16-.18-.24-.27l4.1-4.88Z"/><path class="cls-2" d="M28.41,14l1.31-1.56c-.2.24-.1.67.21,1.19a6.71,6.71,0,0,0,1.47,1.65,6.49,6.49,0,0,0,1.88,1.16c.56.21,1,.23,1.2,0L33.17,18,29,23a23.65,23.65,0,0,1-2.49-1.86A24.68,24.68,0,0,1,24.25,19Z"/><path class="cls-1" d="M36.77,12.33c-.28.33-1.26,0-2.18-.81s-1.46-1.67-1.18-2,1.25,0,2.17.82S37,12,36.77,12.33Z"/><path d="M37,14.19a.09.09,0,0,1,0,0c.19-.23.62-.23,1.17,0l-1,1.18C36.91,14.82,36.83,14.42,37,14.19Z"/><path d="M41.69,18.08h0c-.2.21-.61.2-1.14,0l1-1.17C41.81,17.43,41.88,17.86,41.69,18.08Z"/><path class="cls-2" d="M29.72,12.48c.2-.23.64-.22,1.2,0l-1,1.19C29.62,13.15,29.52,12.72,29.72,12.48Z"/><path class="cls-3" d="M31.64,9.64c-.19.23-.64.21-1.19,0l1-1.19C31.75,9,31.84,9.4,31.64,9.64Z"/><line class="cls-5" x1="28.1" y1="13.85" x2="31.64" y2="9.64"/><path class="cls-5" d="M31.44,8.45c.31.52.4,1,.2,1.19s-.64.21-1.19,0a6.71,6.71,0,0,1-1.88-1.16,6.8,6.8,0,0,1-1.48-1.66c-.3-.51-.39-.94-.2-1.17s.64-.22,1.2,0"/><path class="cls-5" d="M34.28,15.3c.3.51.39.94.2,1.17s-.64.22-1.2,0a6.49,6.49,0,0,1-1.88-1.16,6.71,6.71,0,0,1-1.47-1.65c-.31-.52-.41-.95-.21-1.19s.64-.22,1.2,0"/><polyline class="cls-5" points="4 33.14 3.89 33.04 21.3 12.3"/><polyline class="cls-5" points="36.09 24.75 18.69 45.47 18.59 45.39"/><path class="cls-5" d="M29.41,23.24c3,1.91,5.75,2.59,6.68,1.51"/><path class="cls-5" d="M28.1,13.85h0l.3.19"/><path class="cls-5" d="M33.46,18.36,33.17,18"/><path class="cls-5" d="M21.3,12.3c-.92,1.1.22,3.66,2.63,6.33v0s.05.06.08.08.15.18.24.27a24.68,24.68,0,0,0,2.27,2.13A23.65,23.65,0,0,0,29,23l.37.24h0l2-2.42"/><line class="cls-5" x1="21.3" y1="12.3" x2="26.89" y2="5.65"/><polyline class="cls-5" points="24.01 18.73 28.11 13.85 31.65 9.64"/><polyline class="cls-5" points="29.72 12.48 28.41 14.04 24.25 19"/><polyline class="cls-5" points="34.48 16.47 33.17 18.03 29.01 22.99"/><polyline class="cls-5" points="41.68 18.09 36.11 24.73 36.09 24.75"/><polyline class="cls-5" points="31.42 20.8 33.47 18.36 36.97 14.19 37.01 14.14"/><path class="cls-5" d="M38.17,14.11c-.55-.2-1-.2-1.17,0a.09.09,0,0,0,0,0c-.14.23-.06.63.22,1.1A6.85,6.85,0,0,0,38.65,17a6.73,6.73,0,0,0,1.89,1.15c.53.19.94.2,1.14,0h0c.19-.22.12-.65-.17-1.15"/><polyline class="cls-5" points="30.6 2.65 28.09 5.64 27.09 6.82"/><polyline class="cls-5" points="30.45 9.64 31.45 8.45 33.95 5.47"/><path class="cls-5" d="M34,5.47c-.27.32-1.24,0-2.17-.82S30.33,3,30.6,2.65s1.25,0,2.18.81S34.23,5.14,34,5.47Z"/><polyline class="cls-5" points="33.41 9.52 30.92 12.48 29.93 13.67"/><polyline class="cls-5" points="33.28 16.48 34.28 15.3 36.77 12.33"/><path class="cls-5" d="M36.77,12.33c-.28.33-1.26,0-2.18-.81s-1.46-1.67-1.18-2,1.25,0,2.17.82S37,12,36.77,12.33Z"/><polyline class="cls-5" points="40.68 11.12 38.17 14.11 37.19 15.29"/><polyline class="cls-5" points="40.54 18.1 41.52 16.93 44.04 13.94"/><path class="cls-5" d="M44,13.94c-.27.32-1.25,0-2.17-.82s-1.46-1.68-1.19-2,1.26,0,2.18.81S44.31,13.61,44,13.94Z"/><circle class="cls-6" cx="12.16" cy="27.28" r="7.56"/><line class="cls-7" x1="20.69" y1="18.73" x2="3.89" y2="35.54"/><text class="cls-8" transform="translate(21.06 32.51)">1,5</text></svg>