<svg id="Ebene_1" data-name="Ebene 1" xmlns="http://www.w3.org/2000/svg" viewBox="0 0 48 48"><defs><style>.cls-1{fill:#f7931e;}.cls-2{fill:#999;}.cls-3{fill:#c1272d;}.cls-4{fill:lime;}.cls-5{fill:blue;}.cls-6,.cls-7,.cls-8{fill:none;stroke-miterlimit:10;}.cls-6{stroke:#000;stroke-width:0.25px;}.cls-7,.cls-8{stroke:red;stroke-width:2px;}.cls-8{stroke-linecap:round;}.cls-9{font-size:12px;fill:red;font-family:Arial-BoldMT, Arial;font-weight:700;}</style></defs><title>cables-5x1,5</title><path class="cls-1" d="M44.75,14.32c.42.38.69.77.6.86s-.5-.13-.91-.51-.69-.77-.6-.87S44.34,13.94,44.75,14.32Z"/><path class="cls-1" d="M45.35,15.18l-.85.93-.5.56a7,7,0,0,1-.8-.64,6,6,0,0,1-.71-.75l.5-.55.85-.93c-.09.1.18.49.6.87S45.26,15.28,45.35,15.18Z"/><path class="cls-2" d="M44.5,16.11c.36.42.54.77.43.89s-.48,0-.93-.33Z"/><path class="cls-2" d="M44.93,17l-4,4.43c-.42.46-1.9-.16-3.9-1.48l2.07-2.26,3-3.3c-.1.11.06.46.43.89a6,6,0,0,0,.71.75,7,7,0,0,0,.8.64C44.45,17,44.82,17.12,44.93,17Z"/><path class="cls-2" d="M43,14.73l-.5.55c-.37-.43-.53-.78-.43-.89h0C42.19,14.28,42.54,14.41,43,14.73Z"/><path class="cls-1" d="M41.15,11.81c.41.38.67.75.59.86h0s0,0,0,0-.5-.18-.89-.53-.66-.73-.61-.84l0,0C40.34,11.21,40.74,11.44,41.15,11.81Z"/><path class="cls-1" d="M41.72,12.69l-.74.83-.51.55a6,6,0,0,1-.8-.64A7.91,7.91,0,0,1,39,12.7l.51-.56.75-.82c0,.11.21.48.61.84S41.6,12.74,41.72,12.69Z"/><path class="cls-3" d="M41,13.52c.35.43.52.78.41.9l0,0c-.14.05-.47-.09-.89-.38Z"/><path class="cls-3" d="M41.36,14.45l-2.62,2.87-2.15,2.36c-1-.65-2-1.46-3.09-2.38l2.6-2.84,2.43-2.66h0c-.11.11.06.45.42.89a7.91,7.91,0,0,0,.71.73,6,6,0,0,0,.8.64C40.89,14.36,41.22,14.5,41.36,14.45Z"/><path class="cls-3" d="M39.47,12.14,39,12.7c-.36-.44-.53-.78-.42-.89S39,11.82,39.47,12.14Z"/><path class="cls-1" d="M37.78,9.06c.41.37.68.75.6.86h0c-.1.08-.5-.15-.91-.52s-.65-.73-.6-.85h0C37,8.45,37.36,8.68,37.78,9.06Z"/><path class="cls-1" d="M37.46,9.41c.41.37.81.6.91.52l-.75.82-.51.56A7.81,7.81,0,0,1,35.6,9.93l.5-.54.76-.83C36.81,8.68,37.07,9.05,37.46,9.41Z"/><path d="M37.62,10.75c.34.43.52.77.43.9h0c-.12.1-.47-.05-.92-.36Z"/><path d="M38,11.67l-2.26,2.47L33.16,17c-.48-.4-1-.84-1.47-1.28s-1-.9-1.4-1.34l2.62-2.86,2.27-2.48c-.1.13.08.47.42.88a7.81,7.81,0,0,0,1.51,1.38C37.56,11.62,37.91,11.77,38,11.67Z"/><path d="M36.1,9.39l-.5.54c-.34-.41-.52-.75-.42-.88h0C35.31,8.94,35.67,9.08,36.1,9.39Z"/><path class="cls-1" d="M34.91,5.8c.41.38.68.76.59.86s-.49-.13-.91-.52-.69-.76-.6-.86S34.49,5.41,34.91,5.8Z"/><path class="cls-1" d="M35.51,6.66,34.43,7.84l-.51.56a9.31,9.31,0,0,1-.8-.64A6.06,6.06,0,0,1,32.41,7l.49-.53L34,5.28c-.09.1.18.48.6.86s.83.62.91.52Z"/><path class="cls-4" d="M34.43,7.84c.34.42.51.76.42.89h0l0,0c-.13.06-.47-.09-.89-.37Z"/><path class="cls-4" d="M34.81,8.77l-2.24,2.46L30,14.08c-1-1-1.91-2-2.64-2.86l2.15-2.36L32,6.12c-.11.12.07.46.43.88a6.06,6.06,0,0,0,.71.76,9.31,9.31,0,0,0,.8.64C34.34,8.68,34.68,8.83,34.81,8.77Z"/><path class="cls-4" d="M32.9,6.47,32.41,7c-.36-.42-.54-.76-.43-.88h0C32.11,6,32.47,6.16,32.9,6.47Z"/><path class="cls-1" d="M32.09,2.41c.41.38.68.77.59.86s-.49-.13-.91-.51-.69-.77-.6-.87S31.67,2,32.09,2.41Z"/><path class="cls-1" d="M32.68,3.27l-.95,1.05-.51.55a7.7,7.7,0,0,1-.8-.64,5.4,5.4,0,0,1-.71-.75l.49-.54,1-1c-.09.1.18.49.6.87S32.6,3.37,32.68,3.27Z"/><path class="cls-5" d="M31.73,4.32c.36.43.53.77.42.89s-.47,0-.93-.34Z"/><path class="cls-5" d="M29.07,8.58l.41.28-2.15,2.36c-1.7-2-2.58-3.6-2.16-4.11v0l4.11-4.5c-.11.12.06.47.42.89a5.4,5.4,0,0,0,.71.75,7.7,7.7,0,0,0,.8.64c.46.32.83.45.93.34Z"/><path class="cls-5" d="M30.2,2.94l-.49.54c-.36-.42-.53-.77-.42-.89S29.75,2.62,30.2,2.94Z"/><line class="cls-6" x1="2.63" y1="31.78" x2="24.2" y2="8.17"/><line class="cls-6" x1="18.33" y1="46.12" x2="39.84" y2="22.57"/><path class="cls-6" d="M25.17,7.11c-.42.51.46,2.08,2.16,4.11.73.88,1.63,1.86,2.64,2.86.1.11.21.21.32.31.44.44.91.89,1.4,1.34s1,.88,1.47,1.28a2.28,2.28,0,0,0,.34.29c1.1.92,2.14,1.73,3.09,2.38L37,20c2,1.32,3.48,1.94,3.9,1.48"/><path class="cls-6" d="M36.1,14.46c-.1-.11-.21-.21-.33-.32"/><path class="cls-6" d="M39.05,17.69c-.1-.13-.21-.24-.31-.37"/><path class="cls-6" d="M29.48,8.86l-.41-.28"/><path class="cls-6" d="M32.91,11.53l-.34-.3"/><polyline class="cls-6" points="24.2 8.17 25.17 7.11 25.18 7.09 29.29 2.59"/><polyline class="cls-6" points="27.06 10.79 29.07 8.58 32.15 5.21"/><path class="cls-6" d="M31.73,4.32c.36.43.53.77.42.89s-.47,0-.93-.34a7.7,7.7,0,0,1-.8-.64,5.4,5.4,0,0,1-.71-.75c-.36-.42-.53-.77-.42-.89s.46,0,.91.35"/><polyline class="cls-6" points="36.97 19.96 36.98 19.95 39.05 17.69 42.06 14.39"/><polyline class="cls-6" points="39.84 22.57 40.88 21.43 44.93 17"/><path class="cls-6" d="M44.5,16.11c.36.42.54.77.43.89s-.48,0-.93-.33a7,7,0,0,1-.8-.64,6,6,0,0,1-.71-.75c-.37-.43-.53-.78-.43-.89h0c.12-.1.47,0,.92.35"/><polyline class="cls-6" points="33.5 17.3 36.1 14.46 38.53 11.8"/><polyline class="cls-6" points="36.59 19.68 38.74 17.32 41.36 14.45"/><path class="cls-6" d="M41,13.52c.35.43.52.78.41.9l0,0c-.14.05-.47-.09-.89-.38a6,6,0,0,1-.8-.64A7.91,7.91,0,0,1,39,12.7c-.36-.44-.53-.78-.42-.89s.47,0,.93.33"/><polyline class="cls-6" points="27.33 11.22 29.48 8.86 31.98 6.12"/><polyline class="cls-6" points="29.97 14.08 32.57 11.23 34.81 8.77"/><path class="cls-6" d="M32.9,6.47c-.43-.31-.79-.46-.91-.36h0c-.11.12.07.46.43.88a6.06,6.06,0,0,0,.71.76,9.31,9.31,0,0,0,.8.64c.42.28.76.43.89.37l0,0h0c.09-.13-.08-.47-.42-.89"/><polyline class="cls-6" points="35.18 9.05 32.91 11.53 30.29 14.39"/><polyline class="cls-6" points="38.03 11.67 35.77 14.14 33.16 17.01"/><path class="cls-6" d="M36.1,9.39c-.43-.31-.79-.45-.91-.36h0c-.1.13.08.47.42.88a7.81,7.81,0,0,0,1.51,1.38c.45.31.8.46.92.36h0c.09-.13-.09-.47-.43-.9"/><polyline class="cls-6" points="31.17 1.89 30.2 2.94 29.71 3.48"/><polyline class="cls-6" points="32.68 3.27 31.73 4.32 31.22 4.87"/><path class="cls-6" d="M32.68,3.27c-.08.1-.49-.13-.91-.51s-.69-.77-.6-.87.5.14.92.52S32.77,3.18,32.68,3.27Z"/><polyline class="cls-6" points="33.99 5.27 33.99 5.28 32.9 6.47 32.41 7"/><polyline class="cls-6" points="35.51 6.66 34.43 7.84 33.92 8.4"/><path class="cls-6" d="M35.5,6.66c-.08.1-.49-.13-.91-.52s-.69-.76-.6-.86.5.13.92.52S35.59,6.56,35.5,6.66Z"/><polyline class="cls-6" points="36.86 8.56 36.1 9.39 35.6 9.93"/><polyline class="cls-6" points="38.37 9.93 37.62 10.75 37.11 11.31"/><path class="cls-6" d="M38.38,9.92h0c-.1.08-.5-.15-.91-.52s-.65-.73-.6-.85h0c.08-.09.49.14.91.52S38.46,9.81,38.38,9.92Z"/><polyline class="cls-6" points="40.24 11.3 40.22 11.32 39.47 12.14 38.96 12.7"/><polyline class="cls-6" points="41.72 12.69 40.98 13.52 40.47 14.07"/><path class="cls-6" d="M41.74,12.67h0s0,0,0,0-.5-.18-.89-.53-.66-.73-.61-.84v0s0,0,0,0,.5.14.91.51S41.82,12.56,41.74,12.67Z"/><polyline class="cls-6" points="43.84 13.8 42.99 14.73 42.49 15.28"/><polyline class="cls-6" points="45.35 15.18 44.5 16.11 44 16.67"/><path class="cls-6" d="M45.35,15.18c-.09.1-.5-.13-.91-.51s-.69-.77-.6-.87.5.14.91.52S45.44,15.09,45.35,15.18Z"/><circle class="cls-7" cx="15.31" cy="25.03" r="7.56"/><line class="cls-8" x1="23.84" y1="16.48" x2="7.03" y2="33.29"/><text class="cls-9" transform="translate(24.2 30.26)">1,5</text></svg>