<svg id="Ebene_1" data-name="Ebene 1" xmlns="http://www.w3.org/2000/svg" viewBox="0 0 48 48"><defs><style>.cls-1{stroke:#000;stroke-miterlimit:10;stroke-width:0.5px;}</style></defs><title>cradridge_mandrel</title><path d="M19.82,30.79,6,44.57a1.44,1.44,0,0,1-2,0L3.43,44a1.42,1.42,0,0,1,0-2L17.21,28.18Z"/><path d="M44.57,6,31.85,18.75a.36.36,0,0,0-.12-.29l-2.18-2.19a.33.33,0,0,0-.33-.1L42,3.43a1.41,1.41,0,0,1,2,0l.62.62A1.42,1.42,0,0,1,44.57,6Z"/><rect x="13.92" y="28.32" width="6.56" height="4.88" transform="translate(-16.71 21.17) rotate(-45)"/><polygon points="17.79 26.72 13.16 31.36 12.4 30.6 17.36 25.64 17.4 25.68 18.12 26.4 17.79 26.72"/><polygon points="22.32 30.6 17.36 35.57 16.61 34.8 21.24 30.17 21.57 29.85 22.32 30.6"/><polygon points="21.57 29.85 21.24 30.17 17.79 26.72 18.12 26.4 21.57 29.85"/><polygon points="19.82 24.72 23.25 28.16 21.57 29.85 18.12 26.4 19.82 24.72"/><polygon class="cls-1" points="24.53 26.88 24.02 27.41 20.57 23.96 21.1 23.44 24.53 26.88"/><polygon class="cls-1" points="25.81 25.61 25.29 26.12 21.85 22.69 22.36 22.16 25.81 25.61"/><rect class="cls-1" x="24.74" y="20.44" width="0.73" height="4.86" transform="translate(-8.82 24.45) rotate(-45)"/><rect class="cls-1" x="26.02" y="19.15" width="0.73" height="4.88" transform="translate(-7.54 24.98) rotate(-45)"/><polygon class="cls-1" points="26.2 18.33 29.64 21.78 29.12 22.29 25.68 18.86 26.2 18.33"/><rect class="cls-1" x="28.57" y="16.61" width="0.73" height="4.86" transform="translate(-4.98 26.04) rotate(-45)"/><path d="M32.51,18.9l-.83.84-3.45-3.45.81-.8a.44.44,0,0,1,.43.13l2.88,2.89A.53.53,0,0,1,32.51,18.9Z"/><path d="M19.17,24.08l.65.64-1.7,1.68-.33.32-.35-.36a.5.5,0,0,1,0-.69.1.1,0,0,1,.05-.07Z"/><polygon class="cls-1" points="21.1 23.44 20.57 23.96 19.97 23.36 20.53 22.87 21.1 23.44"/><polygon class="cls-1" points="22.36 22.16 21.85 22.69 21.32 22.16 21.88 21.67 22.36 22.16"/><polygon class="cls-1" points="23.24 20.48 23.65 20.89 23.13 21.41 22.68 20.96 23.24 20.48"/><polygon class="cls-1" points="24.6 19.28 24.91 19.61 24.4 20.13 24.04 19.77 24.6 19.28"/><polygon class="cls-1" points="25.95 18.09 26.2 18.33 25.68 18.86 25.39 18.57 25.95 18.09"/><polygon class="cls-1" points="27.31 16.89 27.48 17.06 26.96 17.58 26.75 17.36 27.31 16.89"/><path d="M29,15.49l-.81.8-.12-.11.64-.57A.42.42,0,0,1,29,15.49Z"/><path d="M23.25,28.16l.63.63-1.52,1.72a.1.1,0,0,1-.07,0,.5.5,0,0,1-.69,0l-.36-.35.33-.32Z"/><polygon class="cls-1" points="25.1 27.45 24.6 27.99 24.02 27.41 24.53 26.88 25.1 27.45"/><polygon class="cls-1" points="26.29 26.08 25.8 26.64 25.29 26.12 25.81 25.61 26.29 26.08"/><polygon class="cls-1" points="27.08 24.33 27.49 24.74 27 25.28 26.57 24.84 27.08 24.33"/><polygon class="cls-1" points="28.36 23.06 28.69 23.39 28.2 23.93 27.85 23.57 28.36 23.06"/><polygon class="cls-1" points="29.64 21.78 29.89 22.03 29.41 22.58 29.12 22.29 29.64 21.78"/><polygon class="cls-1" points="30.91 20.5 31.1 20.68 30.61 21.22 30.4 21.01 30.91 20.5"/><path d="M32.51,18.9a.5.5,0,0,1-.13.34l-.57.64-.13-.14Z"/></svg>