<svg id="Ebene_1" data-name="Ebene 1" xmlns="http://www.w3.org/2000/svg" viewBox="0 0 48 48"><defs><style>.cls-1,.cls-2{fill:none;}.cls-1,.cls-2,.cls-3{stroke:#000;}.cls-1{stroke-width:0.88px;}.cls-2{stroke-width:0.92px;}.cls-3{stroke-width:0.26px;}</style></defs><title>drill_bits-metal_drill</title><g id="layer1"><path id="path815" class="cls-1" d="M32.59,1.75V39.94l6.32,6.31,6.2-6.2V1.75"/><path id="path819" class="cls-2" d="M32.9,29.94c-1.13-1-1.41,0-.19.94S49.54,41.68,45.06,38"/><path id="path819-1" class="cls-2" d="M33,22.7c-1.13-1-1.41.05-.18.95s16.82,10.79,12.35,7.07"/><path id="path819-6" class="cls-2" d="M32.89,15.15c-1.13-1-1.41,0-.19.94s16.83,10.8,12.35,7.07"/><path id="path819-64" class="cls-2" d="M32.94,7c-1.13-1-1.41.05-.19.94S49.58,18.76,45.1,15"/></g><path id="path927" class="cls-3" d="M30.72,13.69H11.19v.87H2a7.09,7.09,0,0,0,3.57,4.16,9.07,9.07,0,0,0,3.54.67,6.23,6.23,0,0,1,3.57,1c.1.11,2,1,1.22,4s-4.38,2.78-4.79,2.82v1.38H26.62V27.2s-3.06-.51-4.17-2.59-1.64-4.48.56-6.89,7.69-2.83,7.69-2.83Z"/></svg>