<svg id="Ebene_1" data-name="Ebene 1" xmlns="http://www.w3.org/2000/svg" viewBox="0 0 48 48"><defs><style>.cls-1,.cls-2,.cls-3,.cls-4,.cls-5,.cls-6,.cls-7,.cls-8,.cls-9{fill:none;stroke:#000;}.cls-1{stroke-width:0.88px;}.cls-2{stroke-width:0.92px;}.cls-3,.cls-4,.cls-7,.cls-8,.cls-9{stroke-linecap:round;}.cls-3{stroke-width:1.16px;}.cls-4{stroke-width:1.26px;}.cls-5,.cls-8{stroke-linejoin:round;}.cls-5{stroke-width:1.38px;}.cls-6{stroke-width:1.37px;}.cls-7{stroke-width:0.96px;}.cls-8{stroke-width:1.21px;}.cls-9{stroke-width:1.2px;}</style></defs><title>drill_bits-wood_drill</title><path id="path815" class="cls-1" d="M29.73,3V39.47l6,6,5.93-5.92V3"/><path id="path819" class="cls-2" d="M30,29.92c-1.07-1-1.34,0-.18.9S45.88,41.13,41.6,37.57"/><path id="path819-1" class="cls-2" d="M30.08,23c-1.08-1-1.35,0-.18.9S46,34.22,41.69,30.66"/><path id="path819-6" class="cls-2" d="M30,15.8c-1.08-1-1.35,0-.18.9S45.87,27,41.59,23.45"/><path id="path819-64" class="cls-2" d="M30,8c-1.08-1-1.35.05-.18.9s16.07,10.3,11.79,6.75"/><path id="path850" class="cls-3" d="M9.16,5.92V19"/><path id="path854" class="cls-4" d="M25.28,6.2V42.9"/><path id="path856" class="cls-5" d="M25.34,6.13C26,7,22.89,7.8,18.44,7.92S9.86,7.45,9.21,6.58s2.43-1.66,6.88-1.79,8.58.47,9.24,1.33"/><path id="path858" class="cls-6" d="M9.11,42.9s6.3,4.92,16.23,0"/><path id="path860" class="cls-7" d="M10.91,20.22l-5.4-3.13"/><path id="path862" class="cls-7" d="M9.11,28.16,3.6,21.78"/><path id="path864" class="cls-8" d="M6.44,19.94c-.35,1.31-1.36,2.22-2.25,2s-1.35-1.42-1-2.73,1.35-2.23,2.25-2,1.34,1.41,1,2.72"/><path id="path850-1" class="cls-9" d="M9.16,28.16V42.9"/></svg>