<svg id="Ebene_1" data-name="Ebene 1" xmlns="http://www.w3.org/2000/svg" viewBox="0 0 48 48"><defs><style>.cls-1,.cls-2{fill:none;}.cls-1,.cls-2,.cls-3,.cls-4{stroke:#000;}.cls-1{stroke-width:0.88px;}.cls-2{stroke-width:0.92px;}.cls-3{stroke-width:0.26px;}.cls-4{stroke-width:0.06px;}</style></defs><title>drill_bits--concrete_drill</title><g id="layer1"><path id="path815" class="cls-1" d="M27.23,3.24v36l6,6,5.86-5.86V3"/><path id="path819" class="cls-2" d="M27.51,29.82c-1.07-1-1.33,0-.18.89S43.21,40.9,39,37.38"/><path id="path819-1" class="cls-2" d="M27.6,23c-1.07-1-1.34,0-.18.89S43.3,34.07,39.08,30.55"/><path id="path819-6" class="cls-2" d="M27.5,15.86c-1.07-1-1.33,0-.18.89S43.2,26.94,39,23.42"/><path id="path819-64" class="cls-2" d="M27.55,8.19c-1.07-1-1.33,0-.18.89S43.25,19.26,39,15.75"/><path id="path899" class="cls-3" d="M15.4,2.9c-.44-.1-2.58-.59-3.15,1.62S10.12,13,10.12,13a2.34,2.34,0,0,0,1.46,2.71L11,18a.29.29,0,0,0,.07.22l3.68,4.35-.16,1.05a1.34,1.34,0,0,1,1,.37l.24-1.51a.51.51,0,0,0-.1-.38c-.13-.18-3.57-4.24-3.57-4.24l.51-2s1.85-.07,2.26-1.58,1.54-5.89,2.26-8.77A2.29,2.29,0,0,0,15.4,2.9Z"/><path id="path910" class="cls-4" d="M15.75,24l7.35-1.62L11.91,40.31l-.37-2.13s.79.06,1.58-2.43c.72-2.27.93-1.79,1.54-2.58,1.75-2.29,4.73-7,4.73-7s.87-1.37.36-1.78a1.45,1.45,0,0,0-1.06-.32l-2,.1s-.83.09-.94-.16Z"/><path id="path914" class="cls-3" d="M14.57,24.7s-.07-.32-.64,0a4.93,4.93,0,0,1-2.06.46,2.85,2.85,0,0,0-2.51,1.22,2.11,2.11,0,0,0-.16,2c0,.2.87,1,.47,2a26.87,26.87,0,0,0-1.35,3.75c0,.53-.8,3.75,1.29,3.88a2.54,2.54,0,0,0,2.77-2.46,6.87,6.87,0,0,1,1.37-2.36c.64-.57,4.3-6.14,4.3-6.14s1.8-2.26.18-2a9,9,0,0,1-3.68-.45Z"/></g></svg>