<svg id="Ebene_1" data-name="Ebene 1" xmlns="http://www.w3.org/2000/svg" viewBox="0 0 48 48"><title>hammers-rubber_mallet</title><path d="M31.63,1.23,23.11,9.74a3.68,3.68,0,0,1,1.07-2.48l4.95-4.95A3.61,3.61,0,0,1,31.63,1.23Z"/><path d="M46.25,15l-9.42,9.43a3.64,3.64,0,0,1-1.78-1L24.18,12.52a3.72,3.72,0,0,1-1-1.9l9.32-9.33a3.66,3.66,0,0,1,1.9,1L45.26,13.18A3.61,3.61,0,0,1,46.25,15Z"/><path d="M46.35,15.78a3.71,3.71,0,0,1-1.09,2.66l-4.95,4.95a3.7,3.7,0,0,1-2.66,1.09Z"/><path d="M42,9.45,43.72,7.7a.37.37,0,0,0,0-.5L40.11,3.71a.4.4,0,0,0-.56,0L37.88,5.45Z"/><path d="M28.09,16.93l-26,25.8a1.38,1.38,0,0,0,0,2L3.7,46.34a1.45,1.45,0,0,0,2.06,0l26-25.76Z"/></svg>