<svg id="Ebene_1" data-name="Ebene 1" xmlns="http://www.w3.org/2000/svg" viewBox="0 0 48 48"><defs><style>.cls-1,.cls-4{fill:none;stroke-width:0.25px;}.cls-1,.cls-2{stroke:#fff;}.cls-1,.cls-2,.cls-4{stroke-miterlimit:10;}.cls-2{stroke-width:0.75px;}.cls-3{fill:#fff;}.cls-4{stroke:#000;}</style></defs><title>hydro_centering_chuck</title><path d="M39.42,16.44c0,2.38-3.05,4.45-7.61,5.57v-.52l-1.65-5Z"/><path d="M38.83,14.66l-6-3.5C35.71,12,37.84,13.23,38.83,14.66Z"/><polygon points="30.16 16.44 31.81 21.49 30.21 21.49 26.47 10.07 26.21 9.27 27.81 9.28 30.16 16.44"/><path d="M26.47,10.07l3.74,11.42h0v.84l-4-3.74V10.05Z"/><path d="M30.21,21.49h1.6v2.79H30.18V22.36h0l0,0v-.84Z"/><path d="M30.18,22.33v0A34.18,34.18,0,0,1,24,22.9a34.26,34.26,0,0,1-5.41-.41l4-3.94V10q.71,0,1.44,0c.75,0,1.49,0,2.21.06v8.54Z"/><polygon points="39.42 15.01 39.42 16.44 30.16 16.44 27.81 9.28 26.21 9.27 26.21 8.23 27.86 8.23 32.85 11.16 32.86 11.16 38.83 14.66 38.83 14.67 39.42 15.01"/><path d="M22.56,10v8.53l-4,3.94V21.32h0L22.31,10Z"/><polygon points="22.56 9.27 22.31 10.03 18.56 21.32 16.96 21.32 18.58 16.44 20.96 9.28 22.56 9.27"/><path d="M18.59,22.49A34.26,34.26,0,0,0,24,22.9a34.18,34.18,0,0,0,6.18-.54v1.92h1.63V22c4.56-1.12,7.61-3.19,7.61-5.57V33.32c0,3.57-6.9,6.46-15.42,6.46S8.59,36.89,8.59,33.32V16.44C8.59,19,12,21.12,17,22.18v2.1h1.63Z"/><polygon points="16.96 22.18 16.96 21.32 18.56 21.32 18.59 21.32 18.59 22.49 18.59 24.28 16.96 24.28 16.96 22.18"/><path d="M17,21.32v.86C12,21.12,8.59,19,8.59,16.44h10Z"/><path d="M15.84,11,9.27,14.55C10.36,13.05,12.73,11.78,15.84,11Z"/><polygon points="15.88 10.96 20.89 8.23 22.56 8.23 22.56 9.27 20.96 9.28 18.58 16.44 8.59 16.44 8.59 14.92 9.26 14.56 9.27 14.55 15.84 10.97 15.88 10.96"/><path class="cls-1" d="M38.83,14.66c-1-1.43-3.12-2.66-6-3.5"/><path class="cls-1" d="M31.81,22c4.56-1.12,7.61-3.19,7.61-5.57"/><path class="cls-1" d="M8.59,16.44C8.59,19,12,21.12,17,22.18"/><path class="cls-1" d="M9.27,14.55c1.09-1.5,3.46-2.77,6.57-3.58"/><path class="cls-1" d="M22.31,10h.25q.71,0,1.44,0c.75,0,1.49,0,2.21.06l.26,0"/><path class="cls-1" d="M30.2,22.35h0A34.18,34.18,0,0,1,24,22.9a34.26,34.26,0,0,1-5.41-.41"/><polyline class="cls-1" points="18.58 16.44 8.59 16.44 8.59 33.32"/><polyline class="cls-1" points="30.16 16.44 39.42 16.44 39.42 33.32"/><path class="cls-1" d="M8.59,33.32c0,3.57,6.9,6.46,15.41,6.46s15.42-2.89,15.42-6.46"/><polyline class="cls-1" points="18.56 21.32 18.59 21.32 18.59 22.49 18.59 24.28 16.96 24.28 16.96 22.18 16.96 21.32"/><polygon class="cls-1" points="18.56 21.32 16.96 21.32 18.58 16.44 20.96 9.28 22.56 9.27 22.31 10.03 18.56 21.32"/><polyline class="cls-1" points="8.59 16.44 8.59 14.92 9.26 14.56 9.27 14.55 15.84 10.97 15.88 10.96 20.89 8.23 22.56 8.23 22.56 9.27 22.56 10.02 22.56 18.55 18.59 22.49"/><polyline class="cls-1" points="30.21 21.49 30.18 21.49 30.18 22.33 30.18 22.36 30.18 24.28 31.81 24.28 31.81 22.01 31.81 21.49"/><polygon class="cls-1" points="30.21 21.49 31.81 21.49 30.16 16.44 27.81 9.28 26.21 9.27 26.47 10.07 30.21 21.49"/><polyline class="cls-1" points="30.21 22.36 30.2 22.35 30.18 22.33 26.21 18.59 26.21 10.05 26.21 9.27 26.21 8.23 27.86 8.23 32.85 11.16 32.86 11.16 38.83 14.66 38.83 14.67 39.42 15.01 39.42 16.44"/><circle class="cls-2" cx="24.06" cy="30.3" r="3.02"/><circle class="cls-3" cx="24" cy="30.3" r="1.41"/><path class="cls-4" d="M22.7,28.86a.7.7,0,0,0-.08.2.86.86,0,0,0-.06.23h0a1.22,1.22,0,0,0,0,.44,1.46,1.46,0,0,0,2.89,0,1.22,1.22,0,0,0,0-.44h0a.86.86,0,0,0-.06-.23.7.7,0,0,0-.08-.2"/><path class="cls-4" d="M22.84,29.08a.86.86,0,0,0-.13.2.85.85,0,0,0-.09.22h0a.86.86,0,0,0-.06.23h0a.75.75,0,0,0,0,.21,1.47,1.47,0,1,0,2.93,0,.75.75,0,0,0,0-.21h0a.86.86,0,0,0-.06-.23h0a.85.85,0,0,0-.09-.22.86.86,0,0,0-.13-.2"/><path class="cls-4" d="M22.61,28.62a.65.65,0,0,0-.05.2h0a1.64,1.64,0,0,0,0,.22,1.94,1.94,0,0,0,0,.24.9.9,0,0,0,.06.22,1.45,1.45,0,0,0,2.77,0,.9.9,0,0,0,.06-.22,1.94,1.94,0,0,0,0-.24,1.64,1.64,0,0,0,0-.22h0a.65.65,0,0,0-.05-.2"/><path class="cls-4" d="M22.56,28.39a.68.68,0,0,0,0,.2,1.64,1.64,0,0,0,0,.23,1.05,1.05,0,0,0,.06.24.85.85,0,0,0,.09.22,1.47,1.47,0,0,0,2.59,0,.85.85,0,0,0,.09-.22,1.05,1.05,0,0,0,.06-.24,1.64,1.64,0,0,0,0-.23.68.68,0,0,0,0-.2"/><path class="cls-4" d="M22.56,28.39a.59.59,0,0,0,.05.23.85.85,0,0,0,.09.24,1.18,1.18,0,0,0,.14.22,1.46,1.46,0,0,0,2.33,0,1.18,1.18,0,0,0,.14-.22.85.85,0,0,0,.09-.24.59.59,0,0,0,.05-.23"/></svg>