<svg id="Ebene_1" data-name="Ebene 1" xmlns="http://www.w3.org/2000/svg" viewBox="0 0 48 48"><defs><style>.cls-1,.cls-2{fill:none;stroke:#fff;stroke-miterlimit:10;stroke-width:0.25px;}.cls-1{stroke-linecap:round;}.cls-3{fill:#fff;}</style></defs><title>hydraulic_chuck</title><path d="M23.72,41.86a8.11,8.11,0,0,0,5.33-1.58c-.51,1.17-2.71,2.06-5.34,2.06s-4.9-.91-5.36-2.11C19.29,41.19,21.34,41.86,23.72,41.86Z"/><path d="M29.05,40.28a8.11,8.11,0,0,1-5.33,1.58c-2.38,0-4.43-.67-5.37-1.63h0a1.22,1.22,0,0,1-.09-.46.55.55,0,0,1,0-.18,9,9,0,0,0,5.45,1.5,9,9,0,0,0,5.43-1.49,2.6,2.6,0,0,0,.49-.51,1.74,1.74,0,0,1-.57,1.18h0S29.05,40.27,29.05,40.28Z"/><path d="M30,32v6.08a1.61,1.61,0,0,1-.34,1,2.6,2.6,0,0,1-.49.51,9,9,0,0,1-5.43,1.49,9,9,0,0,1-5.45-1.5,2.43,2.43,0,0,1-.47-.5,1.61,1.61,0,0,1-.34-1V32a14.08,14.08,0,0,0,6.26,1.31A14.08,14.08,0,0,0,30,32Z"/><path d="M32.19,29.32v0c0,1-.84,2-2.21,2.7a14.08,14.08,0,0,1-6.26,1.31A14.08,14.08,0,0,1,17.46,32c-1.37-.71-2.21-1.67-2.21-2.7v0a1.92,1.92,0,0,1,.19-.81,2.75,2.75,0,0,0,.56.81c1.31,1.39,4.28,2.37,7.72,2.37s6.41-1,7.72-2.37a3,3,0,0,0,.57-.81A2.08,2.08,0,0,1,32.19,29.32Z"/><path d="M23.72,30.87a13.41,13.41,0,0,0,6.69-1.55,4.59,4.59,0,0,0,1.37-1.22,2.65,2.65,0,0,0,.37-.83,1.9,1.9,0,0,1,0,.41,2,2,0,0,1-.18.83,3,3,0,0,1-.57.81c-1.31,1.39-4.28,2.37-7.72,2.37s-6.41-1-7.72-2.37a2.75,2.75,0,0,1-.56-.81,1.87,1.87,0,0,1-.19-.83,1.9,1.9,0,0,1,0-.41,2.65,2.65,0,0,0,.37.83A4.59,4.59,0,0,0,17,29.32,13.41,13.41,0,0,0,23.72,30.87Z"/><path d="M30.41,29.32a13.41,13.41,0,0,1-6.69,1.55A13.41,13.41,0,0,1,17,29.32a4.59,4.59,0,0,1-1.37-1.22,2.65,2.65,0,0,1-.37-.83,1.9,1.9,0,0,1,0-.41,2.2,2.2,0,0,1,.45-1.29,3.86,3.86,0,0,1,.69-.72l0,.16v0a1,1,0,0,0-.07.29h0l-.06.24h0v0a.62.62,0,0,0,0,.19,2.05,2.05,0,0,0,.6,1.21c1.14,1.26,3.77,2.13,6.84,2.13s5.73-.88,6.86-2.15a2.07,2.07,0,0,0,.58-1.22.44.44,0,0,0,0-.16v0h.07l-.18-.72a3.86,3.86,0,0,1,.69.72,2.2,2.2,0,0,1,.45,1.29,1.9,1.9,0,0,1,0,.41,2.65,2.65,0,0,1-.37.83A4.59,4.59,0,0,1,30.41,29.32Z"/><ellipse cx="23.72" cy="8" rx="3.15" ry="1.49"/><path d="M23.72,9.49c1.74,0,3.15-.67,3.15-1.49l4.18,16.85.18.72h-.07v0a.44.44,0,0,1,0,.16A2.07,2.07,0,0,1,30.56,27c-1.13,1.27-3.78,2.15-6.86,2.15S18,28.25,16.86,27a2.05,2.05,0,0,1-.6-1.21.62.62,0,0,1,0-.19v0a1,1,0,0,1,0-.24h0l.07-.29v0a.67.67,0,0,1,.07-.18l0,0L20.57,8C20.57,8.82,22,9.49,23.72,9.49Z"/><path class="cls-1" d="M16.27,25.33a1,1,0,0,0,0,.24v0a.62.62,0,0,0,0,.19,2.05,2.05,0,0,0,.6,1.21c1.14,1.26,3.77,2.13,6.84,2.13s5.73-.88,6.86-2.15a2.07,2.07,0,0,0,.58-1.22.44.44,0,0,0,0-.16v0"/><path class="cls-1" d="M16.34,25a1,1,0,0,0-.07.29"/><path class="cls-1" d="M16.42,24.83a.67.67,0,0,0-.07.18"/><line class="cls-1" x1="16.24" y1="25.57" x2="16.21" y2="25.57"/><line class="cls-1" x1="31.23" y1="25.57" x2="31.16" y2="25.57"/><path class="cls-1" d="M15.44,28.51a1.92,1.92,0,0,0-.19.81v0c0,1,.84,2,2.21,2.7a14.08,14.08,0,0,0,6.26,1.31A14.08,14.08,0,0,0,30,32c1.37-.71,2.21-1.67,2.21-2.7v0a2.08,2.08,0,0,0-.18-.81"/><path class="cls-1" d="M16.42,24.83l0,0a3.86,3.86,0,0,0-.69.72,2.2,2.2,0,0,0-.45,1.29,1.9,1.9,0,0,0,0,.41,2.65,2.65,0,0,0,.37.83A4.59,4.59,0,0,0,17,29.32a13.41,13.41,0,0,0,6.69,1.55,13.41,13.41,0,0,0,6.69-1.55,4.59,4.59,0,0,0,1.37-1.22,2.65,2.65,0,0,0,.37-.83,1.9,1.9,0,0,0,0-.41,2.2,2.2,0,0,0-.45-1.29,3.86,3.86,0,0,0-.69-.72"/><path class="cls-1" d="M15.29,27.27a1.9,1.9,0,0,0,0,.41,1.87,1.87,0,0,0,.19.83,2.75,2.75,0,0,0,.56.81c1.31,1.39,4.28,2.37,7.72,2.37s6.41-1,7.72-2.37a3,3,0,0,0,.57-.81,2,2,0,0,0,.18-.83,1.9,1.9,0,0,0,0-.41"/><ellipse class="cls-2" cx="23.72" cy="8" rx="3.15" ry="1.49"/><polyline class="cls-1" points="20.57 8 16.39 24.85 16.35 25.01 16.34 25.03 16.27 25.32 16.27 25.33 16.21 25.57"/><polyline class="cls-1" points="31.23 25.57 31.05 24.85 26.87 8"/><line class="cls-1" x1="29.98" y1="38.12" x2="29.98" y2="32.04"/><line class="cls-1" x1="17.46" y1="38.12" x2="17.46" y2="32.04"/><path class="cls-1" d="M17.46,38.12a1.61,1.61,0,0,0,.34,1,2.43,2.43,0,0,0,.47.5,9,9,0,0,0,5.45,1.5,9,9,0,0,0,5.43-1.49,2.6,2.6,0,0,0,.49-.51,1.61,1.61,0,0,0,.34-1"/><path class="cls-1" d="M29.07,40.26a1.74,1.74,0,0,0,.57-1.18"/><path class="cls-1" d="M18.35,40.23c.94,1,3,1.63,5.37,1.63a8.11,8.11,0,0,0,5.33-1.58"/><path class="cls-1" d="M17.8,39.08a1.69,1.69,0,0,0,.54,1.14"/><path class="cls-1" d="M29.07,40.26h0s0,0,0,0c-.51,1.17-2.71,2.06-5.34,2.06s-4.9-.91-5.36-2.11h0a1.22,1.22,0,0,1-.09-.46.55.55,0,0,1,0-.18"/><ellipse class="cls-3" cx="23.72" cy="8" rx="1.44" ry="0.68"/><circle class="cls-3" cx="23.7" cy="34.31" r="0.61"/></svg>