<svg id="Ebene_1" data-name="Ebene 1" xmlns="http://www.w3.org/2000/svg" viewBox="0 0 48 48"><defs><style>.cls-1{stroke:#000;stroke-miterlimit:10;}.cls-2{fill:none;}.cls-3{isolation:isolate;font-size:7.72px;font-family:Arial-BoldMT, Arial;font-weight:700;letter-spacing:-0.07em;}.cls-4{letter-spacing:-0.04em;}</style></defs><title>materials-polyamide</title><g id="Zeichenfläche"><path class="cls-1" d="M13.19,20.05l-10.13.1,3.71,2.31c-.7,1.3-2.61,4.31-2.31,5.81a5.94,5.94,0,0,0,.7,2.11c2.91,4.61,5.5,8.46,6.12,8.83,1,.6,12,.3,12,.3l.2-8.23-10.63-.1a8.21,8.21,0,0,1,.5-2.4c.24-.48,1.1-1.81,1.1-1.81l3.91,1.81Z"/><path class="cls-1" d="M33,16.87,38.42,8.3l-4,1.86c-.71-1.29-2.2-4.53-3.64-5.09a5.92,5.92,0,0,0-2.14-.55c-5.46-.06-10.08,0-10.74.35-1.05.51-6.78,10-6.78,10L18,19.45l5.85-8.87a8.24,8.24,0,0,1,1.76,1.72c.27.45.92,1.91.92,1.91l-3.64,2.3Z"/><path class="cls-1" d="M27,35.25,32.09,44l.16-4.36c1.48,0,5,.13,6.2-.89a6.12,6.12,0,0,0,1.48-1.65c2.57-4.82,4.62-9,4.64-9.69,0-1.18-5.71-10.6-5.71-10.6l-7.24,3.9L36.8,30a8.19,8.19,0,0,1-2.34.76c-.53,0-2.11-.06-2.11-.06L32,26.4Z"/><rect class="cls-2" x="19.8" y="20.5" width="11.03" height="5.62"/><text class="cls-3" transform="translate(19.79 26)">P<tspan class="cls-4" x="4.58" y="0">A</tspan></text></g></svg>