<svg id="Ebene_1" data-name="Ebene 1" xmlns="http://www.w3.org/2000/svg" viewBox="0 0 48 48"><defs><style>.cls-1{fill:#7e7e7e;stroke-width:3px;}.cls-1,.cls-2{stroke:#000;stroke-miterlimit:10;}.cls-2{fill:#fff;}</style></defs><title>materials-stainless_steel</title><path class="cls-1" d="M31,20.21v7.13a3.12,3.12,0,0,0,3.12,3.12H45.07V38.7H3.57V30.46H15.65A2.33,2.33,0,0,0,18,28.11V19.05a2.3,2.3,0,0,0-2.32-2.3H3.57V8.86h41.5v8.23H34.13A3.12,3.12,0,0,0,31,20.21Z"/><polygon class="cls-2" points="19.68 19.41 13.06 15.06 6.13 19.69 10.45 12.79 5.86 6.14 13.09 10.53 19.4 5.87 15.08 12.79 19.68 19.41"/></svg>