<svg id="Ebene_1" data-name="Ebene 1" xmlns="http://www.w3.org/2000/svg" viewBox="0 0 48 48"><defs><style>.cls-1,.cls-2{fill:none;stroke-miterlimit:10;stroke-width:0.25px;}.cls-1{stroke:#000;}.cls-2{stroke:#fff;}</style></defs><title>mechanical_chuck</title><path d="M24,19.16c5.07,0,9.17-2.1,9.17-4.69V31.35a2.5,2.5,0,0,1-.09.66c-.62,2.29-4.45,4-9.08,4s-8.45-1.75-9.07-4a2.18,2.18,0,0,1-.1-.67V14.47C14.83,17.06,18.94,19.16,24,19.16Zm3,1.32-.57.06-.6,0a5.49,5.49,0,0,1-.58,0l-.61,0H23.4l-.55,0a5.12,5.12,0,0,1-.56,0l-.59,0-.58-.06-.63-.08-.56-.1-.59-.11-.56-.14-.54-.15-.59-.21a4.56,4.56,0,0,1-.54-.25,2.85,2.85,0,0,1-.53-.33,1.1,1.1,0,0,1-.52-.84V29.88a1.21,1.21,0,0,0,.08.46,1.79,1.79,0,0,0,.38.62,3,3,0,0,0,.58.52,5.74,5.74,0,0,0,.55.34,5,5,0,0,0,.57.27,4.08,4.08,0,0,0,.56.22c.17.07.36.13.56.19l.59.16.56.12.63.12.58.08.59.06.56.05.55,0h1.2l.61,0,.58-.05.59-.06L27,32.9l.63-.12.56-.12.59-.16.56-.18a6,6,0,0,0,.56-.22,6.27,6.27,0,0,0,.58-.28,5.74,5.74,0,0,0,.55-.34,3.64,3.64,0,0,0,.54-.47h0a1.84,1.84,0,0,0,.42-.66,1.48,1.48,0,0,0,.08-.46V18.27a1.1,1.1,0,0,1-.52.84,2.78,2.78,0,0,1-.54.34,5.65,5.65,0,0,1-.55.25l-.58.21-.54.14a4.75,4.75,0,0,1-.57.14l-.59.12-.56.09Z"/><path d="M21.7,31.49V33h0l-.58-.08h0V20.48l.58.06v11Z"/><path d="M36.89,35c.9,0,1.63-.37,1.63-.83s-.73-.83-1.63-.83-1.62.37-1.62.83S36,35,36.89,35ZM32.22,39.5a2.8,2.8,0,0,0,2.3,0c.64-.32.64-.85,0-1.17a2.8,2.8,0,0,0-2.3,0C31.59,38.65,31.59,39.18,32.22,39.5Zm7.34-5.28c0,4.4-7,8-15.56,8v-.38c.9,0,1.63-.37,1.63-.83s-.73-.83-1.63-.83v-.93c5.51,0,10-2.28,10-5.1V31.35a3,3,0,0,0-.27-1.2,2.16,2.16,0,0,0,.47-.16c.63-.33.63-.86,0-1.18a2.3,2.3,0,0,0-1-.24v-.79C37,29.23,39.56,31.57,39.56,34.22Z"/><path d="M24.6,32.11v1H24V20.64h.59V32.11Z"/><path d="M28.74,31.59V20.19a4.75,4.75,0,0,0,.57-.14V32.32l-.56.18v-.91Z"/><path d="M17.1,30.63v.85a3,3,0,0,1-.58-.52l0,0V19.16l0-.05a2.85,2.85,0,0,0,.53.33h0V30.63Z"/><path d="M24,36.05c4.63,0,8.46-1.75,9.08-4a2.5,2.5,0,0,0,.09-.66v-2a4,4,0,0,1,.53.81,3,3,0,0,1,.27,1.2,2.89,2.89,0,0,1-.37,1.39c-1.18,2.14-5,3.72-9.6,3.72s-8.41-1.58-9.59-3.72A3,3,0,0,1,14,31.39v0a2.86,2.86,0,0,1,.28-1.21,3.79,3.79,0,0,1,.51-.79v2a2.18,2.18,0,0,0,.1.67C15.55,34.3,19.38,36.05,24,36.05Z"/><path d="M28.15,30v-9.7l.59-.12V32.5l-.59.16V30Z"/><path d="M18.78,31.44v.87a4.08,4.08,0,0,1-.56-.22h0V19.9l.54.15V31.44Z"/><path d="M29.31,31.41V20.05l.54-.14V32.05l0,.05a6,6,0,0,1-.56.22v-.91Z"/><path d="M18.23,29.51v2.57h0a5,5,0,0,1-.57-.27V19.69l.59.21v9.61Z"/><path d="M28.16,32.66l-.56.12V20.4l.56-.09V32.66Z"/><path d="M26.38,30.3V20.54l.57-.06V32.9l-.59.08V30.3Z"/><path d="M25.21,20.64V33.09l-.61,0V20.63l.61,0Z"/><path d="M20.49,31.31v1.47l-.56-.12V20.3l.56.1V31.31Z"/><path d="M17.65,19.69V31.82a5.74,5.74,0,0,1-.55-.34v-12h0A4.56,4.56,0,0,0,17.65,19.69Z"/><path d="M16.54,30.1v.84l0,0a1.79,1.79,0,0,1-.38-.62,1.21,1.21,0,0,1-.08-.46V18.27a1.1,1.1,0,0,0,.52.84l0,.05V30.1Z"/><path d="M10.89,33.29c-.9,0-1.62.37-1.62.83S10,35,10.89,35s1.63-.37,1.63-.83S11.79,33.29,10.89,33.29Zm4.89,6.11c.63-.33.63-.85,0-1.18a2.88,2.88,0,0,0-2.3,0c-.63.33-.63.85,0,1.18A2.88,2.88,0,0,0,15.78,39.4ZM14,34.12c0,2.82,4.46,5.1,10,5.1v.93c-.9,0-1.62.37-1.62.83s.72.83,1.62.83v.38c-8.59,0-15.56-3.57-15.56-8,0-2.64,2.52-5,6.39-6.44v.73a2.69,2.69,0,0,0-1.32.23c-.64.33-.64.85,0,1.18a2.25,2.25,0,0,0,.81.22A2.86,2.86,0,0,0,14,31.35v2.77Z"/><path d="M19.93,20.3V32.66l-.59-.16V20.2h0Z"/><path d="M21.12,31.42v1.47h0l-.63-.12V20.4l.63.08V31.42Z"/><path d="M26.39,20.54V33l-.59.06V20.58Z"/><path d="M32,30.34a1.84,1.84,0,0,1-.42.66V19.13l0,0a1.1,1.1,0,0,0,.52-.84V29.88A1.48,1.48,0,0,1,32,30.34Z"/><path d="M19.34,32.5c-.2-.06-.39-.12-.56-.19V20.05l.56.14h0V32.5Z"/><path d="M31,28.91V19.45a2.78,2.78,0,0,0,.54-.34l0,0V31h0a3.64,3.64,0,0,1-.54.47l0,0V28.91Z"/><path d="M23.4,32.28v.83l-.55,0V20.61l.55,0h0V32.28Z"/><path d="M24,36.46c4.57,0,8.42-1.58,9.6-3.72A2.89,2.89,0,0,0,34,31.35v2.77c0,2.82-4.46,5.1-10,5.1s-10-2.28-10-5.1V31.39a3,3,0,0,0,.37,1.35C15.59,34.88,19.44,36.46,24,36.46Z"/><path d="M24,9.77c2.14,0,3.87-.88,3.87-2a1.24,1.24,0,0,0-.3-.77l4.67,5.38.26.3a2.85,2.85,0,0,1,.67,1.77c0,2.59-4.1,4.69-9.17,4.69s-9.17-2.1-9.17-4.69a3,3,0,0,1,.83-2l4.73-5.43a1.15,1.15,0,0,0-.26.71C20.13,8.89,21.86,9.77,24,9.77Z"/><path d="M29.85,31.19V19.91l.58-.21V31.79l0,0a6.27,6.27,0,0,1-.58.28l0-.05Z"/><path d="M25.13,7.79c0-.32-.51-.58-1.13-.58s-1.12.26-1.12.58.5.58,1.12.58S25.13,8.11,25.13,7.79ZM24,5.81A4.85,4.85,0,0,1,27.57,7a1.24,1.24,0,0,1,.3.77c0,1.1-1.73,2-3.87,2s-3.87-.88-3.87-2a1.15,1.15,0,0,1,.26-.71l.17-.2A5.11,5.11,0,0,1,24,5.81Z"/><path d="M25.79,31.52V33l-.58.05V20.61a5.49,5.49,0,0,0,.58,0V31.52Z"/><path d="M30.43,29.22V19.7a5.65,5.65,0,0,0,.55-.25v12l0,0a5.74,5.74,0,0,1-.55.34l0,0V29.22Z"/><path d="M24,30.52v2.6H23.4V20.64H24Z"/><path d="M27,30.24V20.48l.63-.08V32.78L27,32.9V30.24Z"/><path d="M22.85,33.09,22.29,33h0V20.58a5.12,5.12,0,0,0,.56,0V33.09Z"/><path d="M22.29,33,21.7,33h0V20.54l.59,0V33Z"/><path class="cls-1" d="M33.17,27.78c3.87,1.45,6.39,3.79,6.39,6.44,0,4.4-7,8-15.56,8s-15.56-3.57-15.56-8c0-2.64,2.52-5,6.39-6.44"/><path class="cls-2" d="M12.52,34.12c0,.46-.73.83-1.63.83s-1.62-.37-1.62-.83.72-.83,1.62-.83S12.52,33.66,12.52,34.12Z"/><path class="cls-2" d="M38.52,34.12c0,.46-.73.83-1.63.83s-1.62-.37-1.62-.83.72-.83,1.62-.83S38.52,33.66,38.52,34.12Z"/><path class="cls-2" d="M24,40.15c.9,0,1.63.37,1.63.83s-.73.83-1.63.83-1.62-.37-1.62-.83S23.1,40.15,24,40.15Z"/><path class="cls-2" d="M15.78,38.22c.63.33.63.85,0,1.18a2.88,2.88,0,0,1-2.3,0c-.63-.33-.63-.85,0-1.18A2.88,2.88,0,0,1,15.78,38.22Z"/><path class="cls-2" d="M33.17,28.57a2.3,2.3,0,0,1,1,.24c.63.32.63.85,0,1.18a2.16,2.16,0,0,1-.47.16"/><ellipse class="cls-2" cx="33.37" cy="38.91" rx="1.62" ry="0.83"/><path class="cls-2" d="M14.32,30.14a2.25,2.25,0,0,1-.81-.22c-.64-.33-.64-.85,0-1.18a2.69,2.69,0,0,1,1.32-.23"/><path class="cls-2" d="M14,34.12c0,2.82,4.46,5.1,10,5.1s10-2.28,10-5.1"/><path class="cls-2" d="M33.17,31.35a2.5,2.5,0,0,1-.09.66c-.62,2.29-4.45,4-9.08,4s-8.45-1.75-9.07-4"/><path class="cls-2" d="M14.93,32a2.18,2.18,0,0,1-.1-.67"/><path class="cls-2" d="M14,31.35a2.86,2.86,0,0,1,.28-1.21,3.79,3.79,0,0,1,.51-.79"/><path class="cls-2" d="M33.17,29.34a4,4,0,0,1,.53.81,3,3,0,0,1,.27,1.2,2.89,2.89,0,0,1-.37,1.39c-1.18,2.14-5,3.72-9.6,3.72s-8.41-1.58-9.59-3.72A3,3,0,0,1,14,31.39"/><polyline class="cls-2" points="14.04 34.12 14.04 31.39 14.04 31.35"/><line class="cls-2" x1="33.97" y1="34.12" x2="33.97" y2="31.35"/><path class="cls-2" d="M32.5,12.7a2.85,2.85,0,0,1,.67,1.77c0,2.59-4.1,4.69-9.17,4.69s-9.17-2.1-9.17-4.69a3,3,0,0,1,.83-2"/><polyline class="cls-2" points="33.17 31.35 33.17 30.23 33.17 29.34 33.17 28.57 33.17 27.78 33.17 14.47"/><polyline class="cls-2" points="14.83 14.47 14.83 27.78 14.83 28.51 14.83 29.35 14.83 30.15 14.83 31.35"/><path class="cls-2" d="M20.56,6.88A5.11,5.11,0,0,1,24,5.81,4.85,4.85,0,0,1,27.57,7a1.24,1.24,0,0,1,.3.77c0,1.1-1.73,2-3.87,2s-3.87-.88-3.87-2a1.15,1.15,0,0,1,.26-.71"/><polyline class="cls-2" points="15.66 12.51 20.39 7.08 20.56 6.88"/><polyline class="cls-2" points="32.5 12.7 32.24 12.4 27.57 7.02 27.45 6.88"/><path class="cls-2" d="M25.13,7.79c0,.32-.51.58-1.13.58s-1.12-.26-1.12-.58.5-.58,1.12-.58S25.13,7.47,25.13,7.79Z"/><path class="cls-2" d="M31.54,31a3.64,3.64,0,0,1-.54.47,5.74,5.74,0,0,1-.55.34,6.27,6.27,0,0,1-.58.28,6,6,0,0,1-.56.22l-.56.18-.59.16-.56.12L27,32.9l-.59.08-.59.06-.58.05-.61,0H23.4l-.55,0L22.29,33,21.7,33l-.58-.08-.63-.12-.56-.12-.59-.16c-.2-.06-.39-.12-.56-.19a4.08,4.08,0,0,1-.56-.22,5,5,0,0,1-.57-.27,5.74,5.74,0,0,1-.55-.34,3,3,0,0,1-.58-.52,1.79,1.79,0,0,1-.38-.62"/><path class="cls-2" d="M32,29.88a1.48,1.48,0,0,1-.08.46,1.84,1.84,0,0,1-.42.66"/><path class="cls-2" d="M16.14,30.34a1.21,1.21,0,0,1-.08-.46"/><path class="cls-2" d="M16.06,18.27a1.1,1.1,0,0,0,.52.84,2.85,2.85,0,0,0,.53.33,4.56,4.56,0,0,0,.54.25l.59.21.54.15.56.14.59.11.56.1.63.08.58.06.59,0a5.12,5.12,0,0,0,.56,0l.55,0h1.2l.61,0a5.49,5.49,0,0,0,.58,0l.6,0,.57-.06.63-.08.56-.09.59-.12a4.75,4.75,0,0,0,.57-.14l.54-.14.58-.21a5.65,5.65,0,0,0,.55-.25,2.78,2.78,0,0,0,.54-.34,1.1,1.1,0,0,0,.52-.84"/><polyline class="cls-2" points="32.04 29.88 32.04 29.11 32.04 28.5 32.04 27.97 32.04 27.43 32.04 18.27"/><polyline class="cls-2" points="16.06 18.27 16.06 27.43 16.06 27.93 16.06 28.51 16.06 29.06 16.06 29.88"/><polyline class="cls-2" points="16.54 19.16 16.54 28.45 16.54 28.96 16.54 29.54 16.54 30.1 16.54 30.94"/><polyline class="cls-2" points="17.1 19.45 17.1 28.94 17.1 29.46 17.1 30.06 17.1 30.63 17.1 31.48"/><polyline class="cls-2" points="17.65 19.66 17.65 19.69 17.65 29.25 17.65 29.78 17.65 30.38 17.65 30.96 17.65 31.82"/><polyline class="cls-2" points="18.23 19.93 18.23 29.51 18.23 30.04 18.23 30.64 18.23 31.22 18.23 32.08"/><polyline class="cls-2" points="18.78 20 18.78 20.05 18.78 29.71 18.78 30.24 18.78 30.86 18.78 31.44 18.78 32.31"/><polyline class="cls-2" points="19.34 20.2 19.34 29.9 19.34 30.43 19.34 31.04 19.34 31.62 19.34 32.5"/><polyline class="cls-2" points="19.93 20.27 19.93 20.3 19.93 30.04 19.93 30.57 19.93 31.19 19.93 31.78 19.93 32.66"/><polyline class="cls-2" points="20.49 20.39 20.49 20.4 20.49 30.16 20.49 30.7 20.49 31.31 20.49 31.9 20.49 32.78"/><polyline class="cls-2" points="21.12 20.47 21.12 20.48 21.12 30.26 21.12 30.8 21.12 31.42 21.12 32.01 21.12 32.89"/><polyline class="cls-2" points="21.7 20.47 21.7 20.54 21.7 30.33 21.7 30.87 21.7 31.49 21.7 32.09 21.7 32.97"/><polyline class="cls-2" points="22.29 20.51 22.29 20.58 22.29 30.38 22.29 30.92 22.29 31.55 22.29 32.14 22.29 33.03"/><polyline class="cls-2" points="31.54 31.01 31.54 31 31.54 30.17 31.54 29.6 31.54 29.01 31.54 28.5 31.54 19.13"/><polyline class="cls-2" points="30.98 31.46 30.98 30.6 30.98 30.03 30.98 29.43 30.98 28.91 30.98 19.45 30.98 19.42"/><polyline class="cls-2" points="30.43 31.79 30.43 30.93 30.43 30.35 30.43 29.75 30.43 29.22 30.43 19.7 30.43 19.63"/><polyline class="cls-2" points="29.85 32.05 29.85 31.19 29.85 30.61 29.85 30.01 29.85 29.48 29.85 19.91"/><polyline class="cls-2" points="29.31 32.29 29.31 31.41 29.31 30.83 29.31 30.22 29.31 29.68 29.31 20.05 29.31 19.98"/><polyline class="cls-2" points="28.74 32.47 28.74 31.59 28.74 31.01 28.74 30.4 28.74 29.87 28.74 20.19 28.74 20.17"/><polyline class="cls-2" points="28.15 32.63 28.15 31.75 28.15 31.16 28.15 30.54 28.15 30.01 28.15 20.31 28.15 20.24"/><polyline class="cls-2" points="27.59 32.75 27.59 31.87 27.59 31.28 27.59 30.67 27.59 30.13 27.59 20.4 27.59 20.36"/><polyline class="cls-2" points="26.96 32.87 26.96 31.98 26.96 31.39 26.96 30.77 26.96 30.24 26.96 20.48 26.96 20.44"/><polyline class="cls-2" points="26.38 32.95 26.38 32.06 26.38 31.47 26.38 30.84 26.38 30.3 26.39 20.54 26.39 20.44"/><polyline class="cls-2" points="25.79 33.01 25.79 32.11 25.79 31.52 25.79 30.9 25.79 30.36 25.79 20.58 25.79 20.48"/><polyline class="cls-2" points="22.85 20.64 22.85 30.52 22.85 31.06 22.85 31.68 22.85 32.28 22.85 33.09 22.85 33.17"/><polyline class="cls-2" points="25.21 20.64 25.21 30.52 25.21 31.06 25.21 31.68 25.21 32.28 25.21 33.09 25.21 33.17"/><polyline class="cls-2" points="23.4 20.64 23.4 30.52 23.4 31.06 23.4 31.68 23.4 32.28 23.4 33.11 23.4 33.17"/><polyline class="cls-2" points="24.6 20.48 24.6 20.63 24.6 30.36 24.6 30.9 24.6 31.52 24.6 32.11 24.6 33.01"/><polyline class="cls-2" points="24.01 20.64 24.01 30.52 24.01 31.06 24.01 31.68 24.01 32.28 24.01 33.12 24.01 33.17"/></svg>