<svg id="Ebene_1" data-name="Ebene 1" xmlns="http://www.w3.org/2000/svg" viewBox="0 0 48 48"><defs><style>.cls-1,.cls-2,.cls-4{fill:none;}.cls-1,.cls-2,.cls-3,.cls-4{stroke:#000;stroke-miterlimit:10;}.cls-1{stroke-linecap:square;}.cls-2{stroke-width:0.75px;}.cls-3,.cls-4{stroke-width:0.5px;}</style></defs><title>millingheads-cotter_mill</title><polyline class="cls-1" points="32.12 36.66 37.87 36.66 37.87 29 46.5 29"/><polyline class="cls-1" points="1.5 29.86 8.08 29.86 8.08 36.66 24.69 36.66"/><circle class="cls-2" cx="24.39" cy="32.38" r="0.11"/><circle class="cls-2" cx="23.17" cy="29.33" r="0.11"/><circle class="cls-2" cx="21.73" cy="26.66" r="0.11"/><circle class="cls-2" cx="20.22" cy="24.29" r="0.11"/><circle class="cls-2" cx="18.67" cy="21.77" r="0.11"/><circle class="cls-2" cx="22.32" cy="34.5" r="0.11"/><circle class="cls-2" cx="19.89" cy="32.28" r="0.11"/><circle class="cls-2" cx="17.41" cy="30.51" r="0.11"/><circle class="cls-2" cx="15.03" cy="29.04" r="0.11"/><circle class="cls-2" cx="12.53" cy="27.45" r="0.11"/><circle class="cls-2" cx="40.94" cy="23.67" r="0.11"/><path class="cls-2" d="M38.69,25.94a.11.11,0,1,1-.11.11A.11.11,0,0,1,38.69,25.94Z"/><circle class="cls-2" cx="36.36" cy="28.02" r="0.11"/><circle class="cls-2" cx="34.09" cy="29.67" r="0.11"/><circle class="cls-2" cx="31.73" cy="31.45" r="0.11"/><polyline class="cls-3" points="30.22 34.85 30.22 33.34 30.22 31.79 26.55 35.45 26.55 35.49 26.55 35.92"/><polygon class="cls-3" points="37.77 2.79 37.77 12.83 34.97 12.83 34.97 19.84 30.22 19.84 30.22 30.37 26.55 34.04 26.55 19.84 21.69 19.84 21.69 12.83 19 12.83 19 2.79 37.77 2.79"/><line class="cls-4" x1="26.55" y1="34.05" x2="26.55" y2="33.34"/><polyline class="cls-3" points="26.55 35.49 26.55 35.92 26.55 38.48 26.55 38.56 30.22 34.9 30.22 34.85 30.22 33.34"/><polygon class="cls-3" points="27.24 43.69 30.22 40.71 30.22 43.69 27.24 43.69"/><polygon class="cls-3" points="30.16 36.23 26.51 39.88 26.51 39.88 26.55 42.99 30.22 39.33 30.16 36.23"/><line class="cls-4" x1="30.18" y1="34.86" x2="30.16" y2="34.88"/><line class="cls-4" x1="26.55" y1="38.48" x2="26.51" y2="38.52"/><line class="cls-1" x1="24.69" y1="36.66" x2="24.69" y2="45.21"/><line class="cls-1" x1="32.13" y1="45.21" x2="24.69" y2="45.21"/><line class="cls-1" x1="32.13" y1="36.66" x2="32.13" y2="45.21"/></svg>