<svg id="Ebene_1" data-name="Ebene 1" xmlns="http://www.w3.org/2000/svg" viewBox="0 0 48 48"><defs><style>.cls-1,.cls-2{fill:none;}.cls-1,.cls-2,.cls-3{stroke:#000;stroke-miterlimit:10;}.cls-2{stroke-width:0.75px;}.cls-3{stroke-width:0.25px;}</style></defs><title>millingheads-plain_cutter</title><polyline class="cls-1" points="2.23 35.69 8.59 35.69 8.59 42.25 37.33 42.25 37.33 34.86 45.77 34.86"/><circle class="cls-2" cx="21.13" cy="34.54" r="0.1"/><circle class="cls-2" cx="19.96" cy="31.6" r="0.1"/><circle class="cls-2" cx="18.56" cy="29.02" r="0.1"/><circle class="cls-2" cx="17.1" cy="26.73" r="0.1"/><circle class="cls-2" cx="15.62" cy="24.31" r="0.1"/><circle class="cls-2" cx="19.14" cy="36.58" r="0.1"/><circle class="cls-2" cx="16.79" cy="34.45" r="0.1"/><circle class="cls-2" cx="14.4" cy="32.74" r="0.1"/><circle class="cls-2" cx="12.1" cy="31.32" r="0.1"/><circle class="cls-2" cx="9.69" cy="29.78" r="0.1"/><circle class="cls-2" cx="43.12" cy="26.35" r="0.1"/><circle class="cls-2" cx="40.94" cy="28.65" r="0.1"/><circle class="cls-2" cx="38.69" cy="30.55" r="0.1"/><circle class="cls-2" cx="36.51" cy="32.14" r="0.1"/><circle class="cls-2" cx="34.22" cy="33.86" r="0.1"/><polygon class="cls-3" points="37.69 5.75 19.57 5.75 19.57 15.44 22.18 15.44 22.18 22.2 26.86 22.2 26.86 37.72 30.4 37.72 30.4 22.2 35.09 22.2 35.09 15.44 37.69 15.44 37.69 5.75"/><polygon class="cls-3" points="34.72 37.9 34.72 41.17 33.82 41.17 33.81 40.15 32.61 40.86 32.09 41.17 31.05 41.17 31.04 40.15 29.83 40.86 29.31 41.17 28.25 41.17 28.23 40.04 27.03 40.76 26.34 41.17 25.46 41.17 25.45 40.15 24.25 40.86 23.73 41.17 22.55 41.17 22.55 37.9 34.72 37.9"/></svg>