<svg id="Ebene_1" data-name="Ebene 1" xmlns="http://www.w3.org/2000/svg" viewBox="0 0 48 48"><defs><style>.cls-1,.cls-2{fill:none;}.cls-1,.cls-2,.cls-3{stroke:#000;stroke-miterlimit:10;}.cls-2{stroke-width:0.75px;}.cls-3{stroke-width:0.25px;}</style></defs><title>millingheads-slitting_cutter</title><polyline class="cls-1" points="37.8 37.61 37.8 34.71 46.5 34.71"/><polyline class="cls-1" points="37.8 39.76 37.8 42.34 8.16 42.34 8.16 35.57 1.5 35.57"/><circle class="cls-2" cx="23.89" cy="34.86" r="0.11"/><circle class="cls-2" cx="22.69" cy="31.82" r="0.11"/><circle class="cls-2" cx="21.24" cy="29.17" r="0.11"/><circle class="cls-2" cx="19.74" cy="26.81" r="0.11"/><circle class="cls-2" cx="18.2" cy="24.3" r="0.11"/><circle class="cls-2" cx="21.83" cy="36.97" r="0.11"/><circle class="cls-2" cx="19.41" cy="34.76" r="0.11"/><circle class="cls-2" cx="16.94" cy="33" r="0.11"/><circle class="cls-2" cx="14.58" cy="31.53" r="0.11"/><circle class="cls-2" cx="12.09" cy="29.95" r="0.11"/><circle class="cls-2" cx="42.35" cy="28.06" r="0.11"/><circle class="cls-2" cx="40.11" cy="30.44" r="0.11"/><circle class="cls-2" cx="37.79" cy="32.39" r="0.11"/><circle class="cls-2" cx="35.54" cy="34.03" r="0.11"/><circle class="cls-2" cx="33.18" cy="35.81" r="0.11"/><polygon class="cls-3" points="39.25 5.66 20.67 5.66 20.67 15.65 23.25 15.65 23.25 22.63 28.08 22.63 28.08 38.63 31.73 38.63 31.73 22.63 36.57 22.63 36.57 15.65 39.25 15.65 39.25 5.66"/><path class="cls-3" d="M36.14,38.74V39h0l-.38,0a.66.66,0,0,0-.35,0l-.61.31h-.4L33.8,39a1.21,1.21,0,0,0-.33,0l-.34,0c-.14,0-.22,0-.18,0l.52.24H32.14l.51-.24c.05,0,0,0-.17,0l-.34,0a.79.79,0,0,0-.34,0l-.59.28h-.38l-.6-.28a1.21,1.21,0,0,0-.33,0l-.34,0c-.14,0-.22,0-.17,0l.51.24H28.42l.51-.24c.05,0,0,0-.17,0l-.34,0a.79.79,0,0,0-.34,0l-.59.28h-.38L26.52,39a1.35,1.35,0,0,0-.34,0l-.34,0c-.14,0-.22,0-.17,0l.51.24H24.76l.52-.24s0,0-.17,0l-.35,0a.72.72,0,0,0-.33,0l-.59.28h-.05v-.54Z"/><polyline class="cls-1" points="37.3 39.87 46.11 39.87 46.11 37.61 37.3 37.61"/></svg>