<svg id="Ebene_1" data-name="Ebene 1" xmlns="http://www.w3.org/2000/svg" viewBox="0 0 48 48"><defs><style>.cls-1,.cls-3{fill:none;}.cls-1,.cls-2,.cls-3{stroke:#000;stroke-miterlimit:10;}.cls-1{stroke-width:0.75px;}.cls-2{stroke-width:0.25px;}</style></defs><title>millingheads-angular_milling_cutter</title><circle class="cls-1" cx="21.13" cy="34.61" r="0.11"/><circle class="cls-1" cx="19.94" cy="31.63" r="0.11"/><circle class="cls-1" cx="18.53" cy="29.03" r="0.11"/><circle class="cls-1" cx="17.05" cy="26.71" r="0.11"/><circle class="cls-1" cx="15.55" cy="24.26" r="0.11"/><circle class="cls-1" cx="19.11" cy="36.67" r="0.11"/><circle class="cls-1" cx="16.74" cy="34.51" r="0.11"/><circle class="cls-1" cx="14.32" cy="32.79" r="0.11"/><circle class="cls-1" cx="11.99" cy="31.34" r="0.11"/><circle class="cls-1" cx="9.56" cy="29.8" r="0.11"/><circle class="cls-1" cx="43.35" cy="26.32" r="0.11"/><circle class="cls-1" cx="41.15" cy="28.65" r="0.11"/><circle class="cls-1" cx="38.88" cy="30.56" r="0.11"/><circle class="cls-1" cx="36.67" cy="32.18" r="0.11"/><circle class="cls-1" cx="34.36" cy="33.91" r="0.11"/><polygon class="cls-2" points="37.84 5.55 19.63 5.55 19.63 15.34 22.16 15.34 22.16 22.08 26.89 22.08 26.89 37.77 30.47 37.77 30.47 22.08 35.21 22.08 35.21 15.34 37.84 15.34 37.84 5.55"/><path class="cls-2" d="M36.23,37.34l-1.27,2-.68-1.16a.31.31,0,0,0-.43-.11l-.43.25a.3.3,0,0,0-.11.42l1,1.68-.31.49H32.87a.52.52,0,0,0,0-.36l-1.27-2.21a.46.46,0,0,0-.64-.16l-.18.1a.46.46,0,0,0-.17.64l1.2,2.1H30.43a.47.47,0,0,0,0-.42l-1.33-2.32a.41.41,0,0,0-.56-.15l-.29.17a.4.4,0,0,0-.14.56l1.23,2.05h-1.4c.06-.05.06-.2,0-.33l-1.31-2.27a.44.44,0,0,0-.6-.16l-.22.13a.44.44,0,0,0-.16.6L26.83,41H25.52a.5.5,0,0,0,0-.46l-1.27-2.2a.49.49,0,0,0-.68-.18l-.13.07a.51.51,0,0,0-.18.69L24.43,41h-.86l-2.19-3.69Z"/><polyline class="cls-3" points="46 34.98 39.23 34.98 34.55 42.45 8.53 42.45 8.53 35.82 2 35.82"/></svg>