<svg id="Ebene_1" data-name="Ebene 1" xmlns="http://www.w3.org/2000/svg" viewBox="0 0 48 48"><defs><style>.cls-1,.cls-2,.cls-4{fill:none;}.cls-1,.cls-2,.cls-3,.cls-4{stroke:#000;stroke-miterlimit:10;}.cls-2{stroke-width:0.75px;}.cls-3,.cls-4{stroke-width:0.5px;}</style></defs><title>millingheads-end_mill</title><polyline class="cls-1" points="30.67 39.78 35.65 39.78 35.65 33.32 43.02 33.32"/><polyline class="cls-1" points="4.98 34.05 10.53 34.05 10.53 39.78 25.67 39.78"/><circle class="cls-2" cx="24.28" cy="35.46" r="0.09"/><circle class="cls-2" cx="23.26" cy="32.88" r="0.09"/><circle class="cls-2" cx="22.04" cy="30.63" r="0.09"/><circle class="cls-2" cx="20.76" cy="28.63" r="0.09"/><circle class="cls-2" cx="19.46" cy="26.51" r="0.09"/><circle class="cls-2" cx="22.54" cy="37.24" r="0.09"/><circle class="cls-2" cx="20.49" cy="35.37" r="0.09"/><circle class="cls-2" cx="18.4" cy="33.88" r="0.09"/><circle class="cls-2" cx="16.38" cy="32.63" r="0.09"/><circle class="cls-2" cx="14.28" cy="31.3" r="0.09"/><circle class="cls-2" cx="39.78" cy="28.01" r="0.09"/><circle class="cls-2" cx="37.88" cy="30.02" r="0.09"/><circle class="cls-2" cx="35.91" cy="31.68" r="0.09"/><circle class="cls-2" cx="34" cy="33.07" r="0.09"/><circle class="cls-2" cx="32.01" cy="34.57" r="0.09"/><polygon class="cls-3" points="35.87 3.97 20.13 3.97 20.13 12.43 22.4 12.43 22.4 18.35 26.5 18.35 26.5 31.91 29.5 31.91 29.5 18.35 33.59 18.35 33.59 12.43 35.87 12.43 35.87 3.97"/><polygon class="cls-3" points="29.5 29 29.5 35.73 26.49 36.56 26.49 29 29.5 29"/><polygon class="cls-3" points="29.5 36.36 29.5 36.69 26.49 37.51 26.49 37.18 29.5 36.36"/><line class="cls-4" x1="29.45" y1="35.71" x2="26.45" y2="36.54"/><polygon class="cls-3" points="29.5 37.33 29.5 37.66 26.49 38.49 26.49 38.15 29.5 37.33"/><polyline class="cls-1" points="31.04 39.28 31.04 44.03 25.22 44.03 25.22 39.28"/></svg>