<svg id="Ebene_1" data-name="Ebene 1" xmlns="http://www.w3.org/2000/svg" viewBox="0 0 48 48"><defs><style>.cls-1,.cls-2{fill:none;}.cls-1,.cls-2,.cls-3{stroke:#000;stroke-miterlimit:10;}.cls-2{stroke-width:0.75px;}.cls-3{stroke-width:0.25px;}</style></defs><title>millingheads-t_slot_cutter</title><polyline class="cls-1" points="2.23 35.69 8.59 35.69 8.59 42.25 37.33 42.25 37.33 34.86 45.77 34.86"/><circle class="cls-2" cx="21.13" cy="34.54" r="0.1"/><circle class="cls-2" cx="19.96" cy="31.6" r="0.1"/><circle class="cls-2" cx="18.56" cy="29.02" r="0.1"/><circle class="cls-2" cx="17.1" cy="26.73" r="0.1"/><circle class="cls-2" cx="15.62" cy="24.31" r="0.1"/><circle class="cls-2" cx="19.14" cy="36.58" r="0.1"/><circle class="cls-2" cx="16.79" cy="34.45" r="0.1"/><circle class="cls-2" cx="14.4" cy="32.74" r="0.1"/><circle class="cls-2" cx="12.1" cy="31.32" r="0.1"/><circle class="cls-2" cx="9.69" cy="29.78" r="0.1"/><circle class="cls-2" cx="43.12" cy="26.35" r="0.1"/><circle class="cls-2" cx="40.94" cy="28.65" r="0.1"/><circle class="cls-2" cx="38.69" cy="30.55" r="0.1"/><circle class="cls-2" cx="36.51" cy="32.14" r="0.1"/><circle class="cls-2" cx="34.22" cy="33.86" r="0.1"/><polygon class="cls-3" points="37.69 5.75 19.57 5.75 19.57 15.44 22.18 15.44 22.18 22.2 26.86 22.2 26.86 37.72 30.4 37.72 30.4 22.2 35.09 22.2 35.09 15.44 37.69 15.44 37.69 5.75"/><path class="cls-3" d="M34.67,37.72V39.3h0l-.36-.1a.28.28,0,0,0-.34.16l-.62,1.79v0h-.38a.13.13,0,0,0,0,0l-.57-1.78a.26.26,0,0,0-.32-.16l-.34.1a.26.26,0,0,0-.16.32l.5,1.57H30.75l.5-1.57a.26.26,0,0,0-.17-.32l-.33-.1a.27.27,0,0,0-.33.16l-.54,1.78v0h-.41v0l-.57-1.78a.25.25,0,0,0-.32-.16l-.33.1a.26.26,0,0,0-.17.32l.5,1.57H27.14l.5-1.54a.26.26,0,0,0-.17-.33l-.33-.1a.27.27,0,0,0-.33.16l-.57,1.79v0h-.37v0l-.57-1.79a.26.26,0,0,0-.33-.16l-.33.1a.26.26,0,0,0-.17.33l.5,1.54H23.6l.5-1.54a.26.26,0,0,0-.17-.33l-.33-.1a.26.26,0,0,0-.33.16l-.57,1.79v0h0V37.72Z"/><polygon class="cls-3" points="34.22 41.16 34.57 40.04 34.57 41.16 34.22 41.16"/></svg>