<svg id="Ebene_1" data-name="Ebene 1" xmlns="http://www.w3.org/2000/svg" viewBox="0 0 48 48"><defs><style>.cls-1,.cls-3{stroke:#fff;}.cls-1,.cls-2,.cls-3,.cls-4,.cls-5{stroke-miterlimit:10;}.cls-1{stroke-width:0.25px;}.cls-2,.cls-4,.cls-5{stroke:#000;}.cls-2,.cls-3,.cls-4,.cls-5{stroke-width:0.5px;}.cls-4{fill:#fff;}.cls-5{fill:none;}</style></defs><title>nuts-drive_in_nuts</title><path class="cls-1" d="M23.38,12.28,27.26,5,21.87,7.52a.91.91,0,0,0-.41,1.27Z"/><polygon class="cls-2" points="9.47 38.05 20.1 42.62 23.97 35.31 41.24 36.91 46.09 28.14 36.9 24.73 38.18 9.94 27.55 5.37 23.67 12.66 6.43 11.08 1.58 19.83 10.42 23.5 9.47 38.05"/><path class="cls-3" d="M35.88,12.2l-.21,1.88L33.84,30.23c-.19,1.6-4.81,2.6-10.31,2.23s-9.84-2-9.65-3.58l1.83-16.15.21-1.88c-.19,1.6,4.13,3.2,9.66,3.57S35.7,13.8,35.88,12.2Z"/><path class="cls-4" d="M36,12.26c-.19,1.68-4.8,2.74-10.35,2.35s-9.87-2.07-9.68-3.76,4.8-2.74,10.35-2.35S36.14,10.57,36,12.26Z"/><path class="cls-5" d="M16.11,11.5c1.53-1.12,4.15-1.58,7-1.65C28.31,9.71,34.56,11.1,36,12.68"/><path class="cls-5" d="M16.15,13.73c1.46-1.07,4-1.51,6.73-1.58,5-.12,10.88,1.13,12.23,2.63"/><path class="cls-5" d="M15.92,14.84c1.49-1.07,4-1.53,6.8-1.6,5-.12,10.5,1,11.87,2.52"/><path class="cls-1" d="M10,23.48,1.35,20,7.7,12.7a.4.4,0,0,1,.7.2Z"/><path class="cls-1" d="M24,35.71,20.15,43l-.91-5.89a.9.9,0,0,1,.82-1.05Z"/><path class="cls-1" d="M46.65,28l-9.27-3.44,6-7.08a.58.58,0,0,1,1,.25Z"/><path class="cls-5" d="M16.23,12.54c1.46-1,4-1.47,6.73-1.53,5-.12,10.88,1.09,12.23,2.56"/></svg>