<svg id="Ebene_1" data-name="Ebene 1" xmlns="http://www.w3.org/2000/svg" viewBox="0 0 48 48"><defs><style>.cls-1{stroke:#000;stroke-miterlimit:10;}.cls-2{fill:none;stroke:#fff;stroke-linejoin:bevel;stroke-width:0.5px;}</style></defs><title>nuts-press_nuts</title><g id="Ebene_2" data-name="Ebene 2"><path class="cls-1" d="M34.83,4.64H12.74L1.7,23.77l11,19.13H34.83L45.88,23.77Zm-11,28.08a9,9,0,1,1,9-8.95A8.95,8.95,0,0,1,23.79,32.72Z"/></g><path class="cls-2" d="M10.78,23.49l.24,0a1.42,1.42,0,0,1,.73.34A1.43,1.43,0,0,1,12.23,25a1.41,1.41,0,0,1-1,1.35l-.23.08"/><path class="cls-2" d="M10.94,23.12H11a1.44,1.44,0,0,0,1-2.39,1.34,1.34,0,0,0-.5-.36l-.24-.1a3.37,3.37,0,0,1,.1-.34l.25,0a1.46,1.46,0,0,0,.76-.07A1.48,1.48,0,0,0,13.19,18a1.56,1.56,0,0,0-.46-.58l-.2-.16a2.38,2.38,0,0,1,.18-.3l.23.1a1.51,1.51,0,0,0,.6.13,1.45,1.45,0,0,0,1.13-2.33l-.07-.09-.09-.12.25-.24.21.16a1.44,1.44,0,0,0,2.22-1.7l-.1-.24.3-.18.16.21a1.44,1.44,0,0,0,2.57-1.09l0-.26.34-.1.1.25A1.44,1.44,0,0,0,23.28,11l0-.26h.35l0,.26a1.44,1.44,0,0,0,2.78.28l.09-.24.35.08,0,.25a1.44,1.44,0,0,0,2.62,1l.14-.2.31.16-.08.23a1.44,1.44,0,0,0,2.3,1.59l.18-.15.27.23-.14.2a1.44,1.44,0,0,0,1.84,2.1l.2-.1.2.31-.17.14a1.44,1.44,0,0,0,1.25,2.5L36,19.3c0,.12.09.23.12.35l-.19.09a1.44,1.44,0,0,0,.59,2.73h.2a2.22,2.22,0,0,1,0,.37l-.19,0a1.44,1.44,0,0,0-.11,2.79l.19.06-.06.36h-.19a1.44,1.44,0,0,0-.8,2.68l.17.1a2.52,2.52,0,0,0-.15.34l-.19-.06A1.45,1.45,0,0,0,34,31.55l.13.13a3,3,0,0,1-.22.28l-.16-.09a1.45,1.45,0,0,0-2,2l.09.15-.29.23-.13-.13A1.45,1.45,0,0,0,29,35.5l0,.18-.34.14-.09-.16a1.44,1.44,0,0,0-2.69.77v.18l-.37,0,0-.17a1.45,1.45,0,0,0-2.8.07l0,.18-.37,0v-.18a1.44,1.44,0,0,0-2.72-.63l-.09.18-.35-.13.05-.19a1.45,1.45,0,0,0-2.49-1.29l-.14.16-.29-.21.09-.18a1.44,1.44,0,0,0-2.08-1.87l-.19.13a3.11,3.11,0,0,1-.23-.28l.14-.16a1.44,1.44,0,0,0-1.55-2.32l-.22.08c-.05-.11-.11-.21-.16-.32l.19-.13a1.45,1.45,0,0,0-.93-2.64l-.24,0c0-.12,0-.24-.08-.35l.23-.08a1.41,1.41,0,0,0,1-1.35,1.43,1.43,0,0,0-.48-1.09,1.42,1.42,0,0,0-.73-.34l-.24,0c0-.12,0-.24,0-.36h.15"/></svg>