<svg id="Ebene_1" data-name="Ebene 1" xmlns="http://www.w3.org/2000/svg" viewBox="0 0 48 48"><defs><style>.cls-1,.cls-3,.cls-4{stroke:#000;stroke-width:0.75px;}.cls-1,.cls-2,.cls-3,.cls-4{stroke-miterlimit:10;}.cls-2{stroke:#fff;stroke-width:0.5px;}.cls-3{fill:#fff;}.cls-4{fill:none;}</style></defs><title>nuts-welding_nuts</title><path class="cls-1" d="M39.62,23.31l-10-.67L28.55,32c-.1.92-2.77,1.51-5.94,1.29S17,32.11,17.05,31.19l1.06-9.32-5.47-.37a3.92,3.92,0,0,0-3.93,2.36L6.13,31.74c-.47,1.42.54,2.67,2.25,2.77l27,1.81A3.92,3.92,0,0,0,39.3,34l2.58-7.88C42.33,24.66,41.33,23.42,39.62,23.31Zm-28.1,7.47a2.24,2.24,0,0,1-2.26,1.35c-1-.06-1.57-.78-1.3-1.59a2.27,2.27,0,0,1,2.26-1.34C11.21,29.28,11.78,30,11.52,30.78Zm1.75-5.31A2.27,2.27,0,0,1,11,26.82c-1-.07-1.57-.78-1.3-1.59A2.26,2.26,0,0,1,12,23.88C13,24,13.53,24.66,13.27,25.47ZM38.1,32.76a2.29,2.29,0,0,1-2.26,1.34c-1-.06-1.57-.77-1.28-1.59a2.26,2.26,0,0,1,2.25-1.34C37.79,31.23,38.36,31.94,38.1,32.76Zm2-6a2.26,2.26,0,0,1-2.26,1.35c-1-.06-1.57-.78-1.28-1.59a2.25,2.25,0,0,1,2.26-1.34C39.77,25.19,40.34,25.9,40.07,26.71Z"/><path class="cls-2" d="M35.08,14.32l-.2,1.75L33.19,31c-.16,1.48-4.41,2.4-9.5,2.05s-9.06-1.81-8.9-3.29l1.69-14.9.21-1.75c-.17,1.48,3.8,3,8.89,3.3S34.92,15.78,35.08,14.32Z"/><path class="cls-3" d="M34.4,15c-.16,1.47-4.16,2.4-9,2.06s-8.54-1.81-8.38-3.3,4.16-2.4,9-2.06S34.56,13.56,34.4,15Z"/><path class="cls-4" d="M16.93,14.41c1.35-1,3.65-1.38,6.15-1.44,4.56-.13,10,1.09,11.25,2.48"/><path class="cls-4" d="M16.93,15.66c1.35-1,3.65-1.39,6.15-1.45,4.56-.12,10,1.1,11.25,2.48"/><path class="cls-4" d="M16.75,16.9c1.34-1,3.64-1.38,6.14-1.44,4.56-.12,10,1.1,11.26,2.48"/></svg>