<svg id="Ebene_1" data-name="Ebene 1" xmlns="http://www.w3.org/2000/svg" viewBox="0 0 48 48"><defs><style>.cls-1{fill:none;stroke:#fff;stroke-miterlimit:10;stroke-width:0.25px;}</style></defs><title>nuts-wing_nuts</title><path d="M19.38,29.79l.64-.61a.43.43,0,0,0,.1-.5L13.94,15.9a.44.44,0,0,0-.63-.17L9.17,18.39a.43.43,0,0,0-.08.65l9.67,10.72A.44.44,0,0,0,19.38,29.79Z"/><path d="M30.88,29.28l-.64-.61a.43.43,0,0,1-.1-.5L36.32,15.4a.43.43,0,0,1,.62-.18l4.15,2.66a.43.43,0,0,1,.08.65L31.5,29.26A.43.43,0,0,1,30.88,29.28Z"/><path d="M25.07,24.53a7.54,7.54,0,0,1,3.75.84,4.09,4.09,0,0,1-.84.39,9.63,9.63,0,0,0-5.82,0,4.09,4.09,0,0,1-.84-.39A7.54,7.54,0,0,1,25.07,24.53Z"/><path d="M29.29,25a6.37,6.37,0,0,0-4.22-1.21A6.37,6.37,0,0,0,20.85,25a1.41,1.41,0,0,1-.27-.36c.43-.9,2.28-1.57,4.49-1.57s4.06.67,4.49,1.57A1.41,1.41,0,0,1,29.29,25Z"/><path d="M25.07,23.07c-2.21,0-4.06.67-4.49,1.57a.93.93,0,0,1-.09-.4c0-1.09,2.05-2,4.58-2s4.58.88,4.58,2a.93.93,0,0,1-.09.4C29.13,23.74,27.28,23.07,25.07,23.07Z"/><path d="M20.49,24.24a.93.93,0,0,0,.09.4,1.41,1.41,0,0,0,.27.36h0a2.24,2.24,0,0,0,.47.36,4.09,4.09,0,0,0,.84.39,7.06,7.06,0,0,0,1.37.33,0,0,0,0,0,0,0,9.18,9.18,0,0,0,1.52.12,9.09,9.09,0,0,0,1.41-.1h0A6.79,6.79,0,0,0,28,25.76a4.09,4.09,0,0,0,.84-.39,2.24,2.24,0,0,0,.47-.36h0a1.41,1.41,0,0,0,.27-.36.93.93,0,0,0,.09-.4c0-1.09-2-2-4.58-2S20.49,23.15,20.49,24.24Zm9.14,2.07c-.13.05-.27.11-.41.15a3.4,3.4,0,0,1-.34.12,14.21,14.21,0,0,1-7.9,0l-.14,0a2,2,0,0,1-.34-.12c-1.41-.52-2.3-1.3-2.3-2.17,0-1.6,3-2.9,6.73-2.9s6.73,1.3,6.73,2.9C31.66,25.05,30.89,25.79,29.63,26.31Z"/><path d="M29.22,26.46c.14,0,.28-.1.41-.15,1.26-.52,2-1.26,2-2.07v4.69a1.64,1.64,0,0,1,0,.22c-.26,1.5-3.16,2.67-6.71,2.67S18.34,30.59,18.21,29a.41.41,0,0,1,0-.11V24.24c0,.87.89,1.65,2.3,2.17a2,2,0,0,0,.34.12l.14,0a14.21,14.21,0,0,0,7.9,0A3.4,3.4,0,0,0,29.22,26.46Z"/><path d="M20.85,25h0a6.37,6.37,0,0,1,4.22-1.21A6.37,6.37,0,0,1,29.29,25h0a2.24,2.24,0,0,1-.47.36,7.54,7.54,0,0,0-3.75-.84,7.54,7.54,0,0,0-3.75.84A2.24,2.24,0,0,1,20.85,25Z"/><path d="M25.07,25.31a8.94,8.94,0,0,1,2.91.45,6.79,6.79,0,0,1-1.49.35h0a9.09,9.09,0,0,1-1.41.1,9.18,9.18,0,0,1-1.52-.12,0,0,0,0,1,0,0,7.06,7.06,0,0,1-1.37-.33A8.94,8.94,0,0,1,25.07,25.31Z"/><path class="cls-1" d="M31.66,24.24c0,.81-.77,1.55-2,2.07-.13.05-.27.11-.41.15a3.4,3.4,0,0,1-.34.12,14.21,14.21,0,0,1-7.9,0l-.14,0a2,2,0,0,1-.34-.12c-1.41-.52-2.3-1.3-2.3-2.17,0-1.6,3-2.9,6.73-2.9S31.66,22.64,31.66,24.24Z"/><path class="cls-1" d="M18.2,28.93a.41.41,0,0,0,0,.11c.13,1.55,3.09,2.78,6.72,2.78s6.45-1.17,6.71-2.67a1.64,1.64,0,0,0,0-.22"/><polyline class="cls-1" points="31.66 28.93 31.66 26.5 31.66 24.24"/><polyline class="cls-1" points="18.2 24.24 18.2 26.37 18.2 28.93"/><path class="cls-1" d="M20.85,25a1.41,1.41,0,0,1-.27-.36.93.93,0,0,1-.09-.4c0-1.09,2.05-2,4.58-2s4.58.88,4.58,2a.93.93,0,0,1-.09.4,1.41,1.41,0,0,1-.27.36"/><path class="cls-1" d="M29.29,25a2.24,2.24,0,0,1-.47.36,4.09,4.09,0,0,1-.84.39,6.79,6.79,0,0,1-1.49.35h0a9.09,9.09,0,0,1-1.41.1,9.18,9.18,0,0,1-1.52-.12,0,0,0,0,1,0,0,7.06,7.06,0,0,1-1.37-.33,4.09,4.09,0,0,1-.84-.39,2.24,2.24,0,0,1-.47-.36"/><path class="cls-1" d="M25.07,23.07c2.21,0,4.06.67,4.49,1.57"/><path class="cls-1" d="M20.58,24.64c.43-.9,2.28-1.57,4.49-1.57"/><path class="cls-1" d="M29.29,25h0a6.37,6.37,0,0,0-4.22-1.21"/><path class="cls-1" d="M25.07,23.79A6.37,6.37,0,0,0,20.85,25h0"/><path class="cls-1" d="M25.07,24.53a7.54,7.54,0,0,1,3.75.84"/><path class="cls-1" d="M21.32,25.37a7.54,7.54,0,0,1,3.75-.84"/><path class="cls-1" d="M28,25.76a8.94,8.94,0,0,0-2.91-.45"/><path class="cls-1" d="M25.07,25.31a8.94,8.94,0,0,0-2.91.45"/></svg>