<svg id="Ebene_1" data-name="Ebene 1" xmlns="http://www.w3.org/2000/svg" viewBox="0 0 48 48"><defs><style>.cls-1{fill:none;stroke:#fff;stroke-miterlimit:10;stroke-width:0.25px;}</style></defs><title>nuts-ring_nuts</title><path d="M24.18,6.08A15.09,15.09,0,0,0,8.88,21a14.24,14.24,0,0,0,8.39,13.28v3.71a.41.41,0,0,0,0,.11A18.3,18.3,0,0,1,5.34,21,18.55,18.55,0,0,1,24.14,2.75,18.55,18.55,0,0,1,42.94,21,18.32,18.32,0,0,1,30.71,38.16a1.64,1.64,0,0,0,0-.22V34.41A14.34,14.34,0,0,0,39.48,21,15.09,15.09,0,0,0,24.18,6.08Z"/><path d="M28,35.59a3.4,3.4,0,0,0,.34-.12c.14,0,.28-.1.41-.15,1.26-.52,2-1.26,2-2.07v4.69a1.64,1.64,0,0,1,0,.22c-.26,1.5-3.16,2.67-6.71,2.67s-6.59-1.23-6.72-2.78a.41.41,0,0,1,0-.11V33.25c0,.87.89,1.65,2.3,2.17a2,2,0,0,0,.34.12l.14.05a13.34,13.34,0,0,0,3.95.56A13.34,13.34,0,0,0,28,35.59Z"/><path d="M24.14,35.22a9.09,9.09,0,0,0,1.41-.1h0a6.79,6.79,0,0,0,1.49-.35,4.09,4.09,0,0,0,.84-.39,2.24,2.24,0,0,0,.47-.36h0a1.41,1.41,0,0,0,.27-.36.93.93,0,0,0,.09-.4c0-1.09-2-2-4.58-2s-4.58.88-4.58,2a.93.93,0,0,0,.09.4,1.41,1.41,0,0,0,.27.36h0a2.24,2.24,0,0,0,.47.36,4.09,4.09,0,0,0,.84.39,7.06,7.06,0,0,0,1.37.33h0A9.18,9.18,0,0,0,24.14,35.22Zm-6.87-2c0-1.6,3-2.9,6.73-2.9s6.73,1.3,6.73,2.9c0,.81-.77,1.55-2,2.07-.13,0-.27.11-.41.15a3.4,3.4,0,0,1-.34.12,13.34,13.34,0,0,1-3.95.56,13.34,13.34,0,0,1-3.95-.56l-.14-.05a2,2,0,0,1-.34-.12C18.16,34.9,17.27,34.12,17.27,33.25Z"/><path d="M19.65,33.65c.43-.9,2.28-1.57,4.49-1.57s4.06.67,4.49,1.57a1.41,1.41,0,0,1-.27.36,6.37,6.37,0,0,0-4.22-1.21A6.37,6.37,0,0,0,19.92,34,1.41,1.41,0,0,1,19.65,33.65Z"/><path d="M24.14,34.32a8.94,8.94,0,0,1,2.91.45,6.79,6.79,0,0,1-1.49.35h0a9.09,9.09,0,0,1-1.41.1,9.18,9.18,0,0,1-1.52-.12h0a7.06,7.06,0,0,1-1.37-.33A8.94,8.94,0,0,1,24.14,34.32Z"/><path d="M28.72,33.25a.93.93,0,0,1-.09.4c-.43-.9-2.28-1.57-4.49-1.57s-4.06.67-4.49,1.57a.93.93,0,0,1-.09-.4c0-1.09,2.05-2,4.58-2S28.72,32.16,28.72,33.25Z"/><path d="M28.36,34h0a2.24,2.24,0,0,1-.47.36,7.54,7.54,0,0,0-3.75-.84,7.54,7.54,0,0,0-3.75.84,2.24,2.24,0,0,1-.47-.36h0a6.37,6.37,0,0,1,4.22-1.21A6.37,6.37,0,0,1,28.36,34Z"/><path d="M27.89,34.38a4.09,4.09,0,0,1-.84.39,9.63,9.63,0,0,0-5.82,0,4.09,4.09,0,0,1-.84-.39,7.54,7.54,0,0,1,3.75-.84A7.54,7.54,0,0,1,27.89,34.38Z"/><path class="cls-1" d="M30.73,33.25c0,.81-.77,1.55-2,2.07-.13,0-.27.11-.41.15a3.4,3.4,0,0,1-.34.12,13.34,13.34,0,0,1-3.95.56,13.34,13.34,0,0,1-3.95-.56l-.14-.05a2,2,0,0,1-.34-.12c-1.41-.52-2.3-1.3-2.3-2.17,0-1.6,3-2.9,6.73-2.9S30.73,31.65,30.73,33.25Z"/><path class="cls-1" d="M17.27,37.94a.41.41,0,0,0,0,.11c.13,1.55,3.09,2.78,6.72,2.78s6.45-1.17,6.71-2.67a1.64,1.64,0,0,0,0-.22"/><polyline class="cls-1" points="30.73 37.94 30.73 35.51 30.73 34.41 30.73 33.25"/><polyline class="cls-1" points="17.27 33.25 17.27 34.23 17.27 35.38 17.27 37.94"/><path class="cls-1" d="M30.71,38.16A18.32,18.32,0,0,0,42.94,21,18.55,18.55,0,0,0,24.14,2.75,18.55,18.55,0,0,0,5.34,21a18.3,18.3,0,0,0,11.94,17"/><path class="cls-1" d="M17.33,34.26l-.06,0A14.24,14.24,0,0,1,8.88,21,15.09,15.09,0,0,1,24.18,6.08,15.09,15.09,0,0,1,39.48,21a14.34,14.34,0,0,1-8.75,13.46"/><path class="cls-1" d="M19.92,34a1.41,1.41,0,0,1-.27-.36.93.93,0,0,1-.09-.4c0-1.09,2.05-2,4.58-2s4.58.88,4.58,2a.93.93,0,0,1-.09.4,1.41,1.41,0,0,1-.27.36"/><path class="cls-1" d="M28.36,34a2.24,2.24,0,0,1-.47.36,4.09,4.09,0,0,1-.84.39,6.79,6.79,0,0,1-1.49.35h0a9.09,9.09,0,0,1-1.41.1,9.18,9.18,0,0,1-1.52-.12h0a7.06,7.06,0,0,1-1.37-.33,4.09,4.09,0,0,1-.84-.39,2.24,2.24,0,0,1-.47-.36"/><path class="cls-1" d="M24.14,32.08c2.21,0,4.06.67,4.49,1.57"/><path class="cls-1" d="M19.65,33.65c.43-.9,2.28-1.57,4.49-1.57"/><path class="cls-1" d="M28.36,34h0a6.37,6.37,0,0,0-4.22-1.21"/><path class="cls-1" d="M24.14,32.8A6.37,6.37,0,0,0,19.92,34h0"/><path class="cls-1" d="M24.14,33.54a7.54,7.54,0,0,1,3.75.84"/><path class="cls-1" d="M20.39,34.38a7.54,7.54,0,0,1,3.75-.84"/><path class="cls-1" d="M27.05,34.77a8.94,8.94,0,0,0-2.91-.45"/><path class="cls-1" d="M24.14,34.32a8.94,8.94,0,0,0-2.91.45"/></svg>