<svg id="Ebene_1" data-name="Ebene 1" xmlns="http://www.w3.org/2000/svg" viewBox="0 0 48 48"><defs><style>.cls-1,.cls-2{fill:none;stroke-linejoin:round;stroke-width:0.25px;}.cls-1{stroke:#000;}.cls-2{stroke:#fff;}</style></defs><title>seals-pipe_sealing_cord</title><path d="M37.53,2.56c1.2.57.51,4.49-1.54,8.76S31.31,18.57,30.11,18s-.5-4.49,1.55-8.75S36.34,2,37.53,2.56Z"/><path d="M12.77,37.18V31c1.16,0,1.31-2.55,1.31-3.61s-.18-3.8-1.31-3.77V18.36c0,1.95,3.85,3.53,8.56,3.53s8.56-1.6,8.56-3.56V42c0,2-3.83,3.56-8.56,3.56S12.77,43.92,12.77,42Z"/><path d="M12.94,17.62c.79-1.63,4.24-2.85,8.39-2.85,4.73,0,8.56,1.59,8.56,3.56s-3.83,3.56-8.56,3.56-8.52-1.58-8.56-3.53v0A1.65,1.65,0,0,1,12.94,17.62Zm.86.22c-.31.13-.5.3-.5.49,0,.36.7.65,1.57.65s1.57-.29,1.57-.65-.7-.66-1.57-.66a3.22,3.22,0,0,0-1.06.17S13.8,17.84,13.8,17.84Z"/><path d="M12.77,23.58c1.13,0,1.32,2.71,1.31,3.77S13.93,31,12.77,31Z"/><path class="cls-1" d="M30.11,18c-1.19-.57-.5-4.49,1.55-8.75S36.34,2,37.53,2.56,38,7.05,36,11.32,31.31,18.57,30.11,18Z"/><path class="cls-1" d="M13.81,17.84a3.22,3.22,0,0,1,1.06-.17c.87,0,1.57.3,1.57.66s-.7.65-1.57.65-1.57-.29-1.57-.65c0-.19.19-.36.5-.49"/><path class="cls-2" d="M12.94,17.62c.22.14.57.11.86.22,0,0,0,0,0,0a8,8,0,0,1,1.06.49"/><path class="cls-1" d="M12.77,23.58c-.68,0-1-2.06-1.1-3.23-.07-1,0-2.66,1-2.75a.26.26,0,0,1,.24,0"/><path class="cls-2" d="M12.77,31c1.16,0,1.31-2.55,1.31-3.61s-.18-3.8-1.31-3.77"/><path class="cls-1" d="M14.08,38.85s-1-1.18-1.31-1.67l0-.06a7.94,7.94,0,0,1-1.3-2.54c-.19-1.15.4-3.62,1.35-3.62"/></svg>