<svg id="Ebene_1" data-name="Ebene 1" xmlns="http://www.w3.org/2000/svg" viewBox="0 0 48 48"><defs><style>.cls-1{fill:none;stroke:#000;stroke-miterlimit:10;stroke-width:0.25px;}</style></defs><title>seals-radial_shaft_seals</title><path d="M15.36,27.89a2.27,2.27,0,1,1-2.26,2.27A2.27,2.27,0,0,1,15.36,27.89Zm-1.69,2.27a1.69,1.69,0,1,0,1.69-1.7A1.69,1.69,0,0,0,13.67,30.16Z"/><path d="M11,35.41v-5l1.17-1.18,1,1a2.27,2.27,0,0,0,4.53,0h.12l12.5,0,1.5-6.5L33,22.94v7.18h2.07V12.62l0-.78s0,0,0,0V11A3.46,3.46,0,0,0,33,9H17.69l-1.5-1.63H33.38a10,10,0,0,1,2.34,1A9.69,9.69,0,0,1,37,11V33.62l-2.11,2.12L37,37.82v2H35.81l-6.68-6.7-12.94,7.5Z"/><path class="cls-1" d="M17.63,30.16a2.27,2.27,0,1,1-2.27-2.27A2.27,2.27,0,0,1,17.63,30.16Z"/><path class="cls-1" d="M17.05,30.16a1.69,1.69,0,1,1-1.69-1.7A1.69,1.69,0,0,1,17.05,30.16Z"/><path class="cls-1" d="M13.1,30.16l-1-1L11,30.38v5l5.22,5.21,12.94-7.5,6.68,6.7H37v-2l-2.08-2.08L37,33.62V11a9.69,9.69,0,0,0-1.31-2.62,10,10,0,0,0-2.34-1H16.19L17.69,9H33A3.46,3.46,0,0,1,35,11v.76s0,0,0,0l0,.78v17.5H33V22.94l-1.25.68-1.5,6.5-12.5,0h-.12"/></svg>