<svg id="Ebene_1" data-name="Ebene 1" xmlns="http://www.w3.org/2000/svg" viewBox="0 0 48 48"><defs><style>.cls-1{fill:#666;}.cls-2{fill:none;stroke:#000;stroke-linejoin:round;stroke-width:0.5px;}</style></defs><title>seals-pipe_sealing_tape</title><path d="M34.22,30l.05,1.5A12.14,12.14,0,0,1,32.42,33a12.48,12.48,0,0,0,1.65-2.83Z"/><path class="cls-1" d="M16.74,25.4a5.75,5.75,0,0,1,3.6-5.34,5.59,5.59,0,0,0-.6,2.54,5.76,5.76,0,0,0,5.76,5.76,5.69,5.69,0,0,0,2.16-.42A5.75,5.75,0,0,1,16.74,25.4Z"/><path class="cls-1" d="M34.42,21.57a12.54,12.54,0,0,0-15.92-8A11.47,11.47,0,0,1,36,17.91a11.31,11.31,0,0,1,1,4.69v3.93h0v2.31l-.1,5.53-2.79,3.06.2-5.91L34.22,30v-.2A12.53,12.53,0,0,0,35,25.4a12.32,12.32,0,0,0-.6-3.82Z"/><path d="M20.34,20.06a5.76,5.76,0,1,0,7.32,7.88,5.59,5.59,0,0,0,.6-2.54,5.76,5.76,0,0,0-7.92-5.34ZM10,25.4A12.5,12.5,0,0,1,15.58,15a12.8,12.8,0,0,1,2.92-1.44,12.54,12.54,0,0,1,15.92,8h0A12.32,12.32,0,0,1,35,25.4a12.53,12.53,0,0,1-.81,4.43c-.05.13-.09.25-.14.37A12.52,12.52,0,0,1,10,25.4Z"/><path d="M15.58,15A12.52,12.52,0,0,1,37,27.64v-1.1h0V22.6a11.31,11.31,0,0,0-1-4.69A11.47,11.47,0,0,0,18.5,13.53,12.8,12.8,0,0,0,15.58,15Z"/><path class="cls-2" d="M15.58,15A12.52,12.52,0,1,0,32.42,33"/><path class="cls-2" d="M34.42,21.57a12.54,12.54,0,0,0-15.92-8"/><path class="cls-2" d="M34.07,30.2c0-.12.09-.24.14-.37A12.53,12.53,0,0,0,35,25.4a12.32,12.32,0,0,0-.6-3.82"/><path class="cls-2" d="M34.07,30.2A12.48,12.48,0,0,1,32.42,33a12.14,12.14,0,0,0,1.85-1.5"/><path class="cls-2" d="M18.5,13.53A12.8,12.8,0,0,0,15.58,15,12.52,12.52,0,0,1,37,27.64"/><path class="cls-2" d="M20.34,20.06a5.76,5.76,0,0,1,7.92,5.34,5.59,5.59,0,0,1-.6,2.54,5.76,5.76,0,1,1-7.32-7.88Z"/><path class="cls-2" d="M20.34,20.06a5.59,5.59,0,0,0-.6,2.54,5.76,5.76,0,0,0,5.76,5.76,5.69,5.69,0,0,0,2.16-.42"/><polyline class="cls-2" points="36.96 22.6 36.96 26.53 36.96 26.54 36.96 27.64 36.96 28.85 36.86 34.38 34.07 37.44 34.27 31.53 34.22 30.03 34.21 29.83"/><line class="cls-2" x1="34.42" y1="21.58" x2="34.42" y2="21.57"/><path class="cls-2" d="M34.22,30l-.15.17"/><path class="cls-2" d="M18.5,13.53A11.47,11.47,0,0,1,36,17.91a11.31,11.31,0,0,1,1,4.69"/></svg>