<svg id="Ebene_1" data-name="Ebene 1" xmlns="http://www.w3.org/2000/svg" viewBox="0 0 48 48"><defs><style>.cls-1{stroke:#000;stroke-linejoin:round;}</style></defs><title>seals-profile_seal</title><path class="cls-1" d="M25.68,18.13c3.18-1,11.41-.52,15.76-.15a1.16,1.16,0,0,0,1-1.9c-1.43-1.71-3.34-3.95-4.3-4.95-1.33-1.38-5-4.71-6.54-6.05A1.15,1.15,0,0,0,30.22,5c-2.65,1.61-12.1,6.87-19,4.58L11,9.44a1.16,1.16,0,0,0-1.5.79c-.07.23-.15.47-.24.71a8,8,0,0,0-.53,2.74,1.21,1.21,0,0,0,.22.65L13.66,21a1.16,1.16,0,0,1,.21.67v7.2a1.16,1.16,0,0,1-1.59,1.08l-7-2.8,8.05,5.34a1.16,1.16,0,0,1,.52,1v4a1.16,1.16,0,0,1-1.59,1.08l-7-2.8,11,7.32a1.17,1.17,0,0,0,1.26,0L29,35.87l-7,2.71a1.16,1.16,0,0,1-1.58-1.08V33.36a1.19,1.19,0,0,1,.54-1L29,27.3,22,30a1.16,1.16,0,0,1-1.58-1.08V22.12a1.16,1.16,0,0,1,.45-.92A21,21,0,0,1,25.68,18.13Zm-8.53,1.08A38.43,38.43,0,0,1,12.49,14a1.16,1.16,0,0,1,1.06-1.81c6.43.57,14-3.63,16.38-5.06a1.13,1.13,0,0,1,1.4.15C32.7,8.56,36,11.7,38.3,14a1.16,1.16,0,0,1-.92,2c-3.29-.3-8.25-.53-11,.36a21.14,21.14,0,0,0-7.76,3A1.15,1.15,0,0,1,17.15,19.21Z"/></svg>