<svg id="Ebene_1" data-name="Ebene 1" xmlns="http://www.w3.org/2000/svg" viewBox="0 0 48 48"><defs><style>.cls-1{fill:none;stroke:#fff;stroke-miterlimit:10;stroke-width:0.25px;}</style></defs><title>slidung_jaw_madrel</title><path d="M26,10.46v.75A7.33,7.33,0,0,0,24,11a8.41,8.41,0,0,0-1.35.1v-.94l.14-.08L16.14,7.29A27.39,27.39,0,0,1,24,6.2,23.24,23.24,0,0,1,35.5,8.85L26,10.46Z"/><path d="M26,11.22v.51a5.87,5.87,0,0,0-2-.27,7.21,7.21,0,0,0-1.35.12V11.1A8.41,8.41,0,0,1,24,11a7.33,7.33,0,0,1,2,.21Z"/><polygon points="36.87 9.84 38.01 9.64 38.01 11.11 38.01 11.26 28.61 12.91 27.67 13.08 26.82 13.23 26.82 12.09 26.82 11.52 26.84 11.54 26.97 11.52 26.98 11.52 36.87 9.84"/><path d="M22.65,11.58A7.21,7.21,0,0,1,24,11.46a5.87,5.87,0,0,1,2,.27v.54a4.73,4.73,0,0,0-2-.39,4.88,4.88,0,0,0-2,.39v0l.66-.37Z"/><path d="M26,11.73v-.51h0v-.75H26l.14.19.58.79h0l.05.07h0v1.71l-.66-.87L26,12.27Z"/><path d="M26.82,13.23c0,.68-1.06,1.24-2.44,1.32V13l.14-.34-2.41-.23-.61,1.46a.86.86,0,0,1-.32-.62c0-.37.32-.71.82-1a4.88,4.88,0,0,1,2-.39,4.73,4.73,0,0,1,2,.39l.19.09Z"/><path d="M27.72,10.5c-.33,0-.61.13-.61.29s.28.3.61.3.61-.13.61-.3S28.06,10.5,27.72,10.5Zm-1,.94-.58-.79L26,10.46,35.5,8.85l1.85-.31.8,1.08-.14,0-1.14.2L27,11.52h0l-.15-.06-.05,0Z"/><path d="M38.69,29.58v.1c0,3.88-6.58,7-14.69,7s-14.69-3.14-14.69-7V13.23c0,3.19,4.44,5.87,10.52,6.73.7.1,1.42.18,2.16.22s1.33.07,2,.07c8.11,0,14.69-3.14,14.69-7Z"/><path d="M19.84,19.87V18.18l2.15.21v1.79c-.74,0-1.46-.12-2.16-.22Z"/><path d="M19.79,18.88c0-.27-.45-.48-1-.48s-1,.21-1,.48.44.48,1,.48S19.79,19.15,19.79,18.88Zm.05-.7V20c-6.08-.86-10.52-3.54-10.52-6.73,0-1.62,1.15-3.12,3.08-4.31l0,0,7.48,3.27a1.42,1.42,0,0,0-.58,1.07c0,.69.67,1.31,1.71,1.71l-1.33,3.23Z"/><path d="M38,11.26v-.15a3.83,3.83,0,0,1,.68,2.12c0,3.88-6.58,7-14.69,7-.68,0-1.35,0-2-.07v-.13l2-4.6H24c2.57,0,4.66-1,4.66-2.22a1.19,1.19,0,0,0-.05-.32Zm-.17,1.1c0-.27-.45-.48-1-.48s-1,.21-1,.48.45.48,1,.48S37.84,12.62,37.84,12.36Z"/><path d="M28.61,12.91a1.19,1.19,0,0,1,.05.32c0,1.23-2.09,2.22-4.66,2.22h-.06l.2-.46c2,0,3.55-.81,3.55-1.76a.39.39,0,0,0,0-.15Z"/><path d="M27.67,13.08a.39.39,0,0,1,0,.15c0,.95-1.57,1.72-3.55,1.76l.18-.43h.06c1.38-.08,2.44-.64,2.44-1.32Z"/><path d="M24.38,13l-.11.27L22.13,18.4H22l-2.15-.21h-.12l1.33-3.23.22-.53.23-.56.61-1.46,2.41.23Zm-.75.27a.19.19,0,0,0,0-.07c0-.16-.27-.29-.6-.29s-.61.13-.61.29a.19.19,0,0,0,0,.07c.06.13.3.22.59.22S23.57,13.36,23.63,13.23Z"/><polygon points="24.38 13.23 24.38 14.42 24.32 14.56 24.14 14.99 23.94 15.45 21.99 20.05 21.99 18.39 22.13 18.4 24.27 13.23 24.38 13.23"/><path d="M22.65,10.16l-1.42.77-.05,0L14.21,8h0l-1.81-.76-.12,0,1.57-.86,2.3,1,6.65,2.79Zm-1.1-.08c0-.16-.27-.29-.61-.29s-.61.13-.61.29.28.29.61.29S21.55,10.24,21.55,10.08Z"/><polygon points="22.65 11.58 22.65 11.88 21.99 12.25 21.18 12.71 21.18 12.09 21.18 11.46 21.18 10.91 21.23 10.93 22.65 10.16 22.65 11.1 22.65 11.58"/><path d="M22,12.25v0c-.5.25-.82.59-.82,1a.86.86,0,0,0,.32.62l-.23.56c-.6-.31-1-.72-1-1.18a1.05,1.05,0,0,1,.35-.75l.52.23Z"/><path d="M21.27,14.41l-.22.53c-1-.4-1.71-1-1.71-1.71a1.42,1.42,0,0,1,.58-1.07l.74.32a1.05,1.05,0,0,0-.35.75C20.31,13.69,20.67,14.1,21.27,14.41Z"/><path d="M21.18,12.09v.62l-.52-.23-.74-.32L12.44,8.89l0,0V7.24L14.2,8h0l7,2.91v1.18Z"/><path class="cls-1" d="M38,11.11a3.83,3.83,0,0,1,.68,2.12c0,3.88-6.58,7-14.69,7-.68,0-1.35,0-2-.07s-1.46-.12-2.16-.22c-6.08-.86-10.52-3.54-10.52-6.73,0-1.62,1.15-3.12,3.08-4.31l0,0"/><path class="cls-1" d="M16.14,7.29A27.39,27.39,0,0,1,24,6.2,23.24,23.24,0,0,1,35.5,8.85"/><path class="cls-1" d="M19.92,12.16a1.42,1.42,0,0,0-.58,1.07c0,.69.67,1.31,1.71,1.71"/><path class="cls-1" d="M23.94,15.45H24c2.57,0,4.66-1,4.66-2.22a1.19,1.19,0,0,0-.05-.32"/><path class="cls-1" d="M27,11.52l-.15-.06-.05,0"/><path class="cls-1" d="M26,11.22h0"/><path class="cls-1" d="M22.65,11.1A8.41,8.41,0,0,1,24,11a7.33,7.33,0,0,1,2,.21"/><path class="cls-1" d="M20.66,12.48a1.05,1.05,0,0,0-.35.75c0,.46.36.87,1,1.18"/><path class="cls-1" d="M27.67,13.08a.39.39,0,0,1,0,.15c0,.95-1.57,1.72-3.55,1.76"/><path class="cls-1" d="M22.65,11.58A7.21,7.21,0,0,1,24,11.46a5.87,5.87,0,0,1,2,.27h0"/><path class="cls-1" d="M26.82,13.23c0,.68-1.06,1.24-2.44,1.32h-.06"/><path class="cls-1" d="M26.16,12.36,26,12.27a4.73,4.73,0,0,0-2-.39,4.88,4.88,0,0,0-2,.39c-.5.25-.82.59-.82,1a.86.86,0,0,0,.32.62"/><ellipse class="cls-1" cx="36.84" cy="12.36" rx="1" ry="0.48"/><ellipse class="cls-1" cx="18.79" cy="18.88" rx="1" ry="0.48"/><polygon class="cls-1" points="22.65 10.16 21.23 10.93 21.18 10.91 14.21 8 14.2 8 12.39 7.24 12.27 7.19 13.84 6.33 16.14 7.29 22.79 10.08 22.65 10.16"/><polyline class="cls-1" points="26.82 11.51 26.77 11.44 26.76 11.44 26.18 10.65 26.04 10.46 35.5 8.85 37.35 8.54 38.15 9.62 38.01 9.64 36.87 9.84 26.98 11.52 26.97 11.52 26.84 11.54 26.82 11.52"/><polygon class="cls-1" points="24.38 12.96 24.52 12.62 22.11 12.39 21.5 13.85 21.27 14.41 21.05 14.94 19.72 18.17 19.84 18.18 21.99 18.39 22.13 18.4 24.27 13.23 24.38 12.96"/><path class="cls-1" d="M22.46,13.23a.19.19,0,0,1,0-.07c0-.16.27-.29.61-.29s.6.13.6.29a.19.19,0,0,1,0,.07"/><path class="cls-1" d="M28.33,10.79c0,.17-.27.3-.61.3s-.61-.13-.61-.3.28-.29.61-.29S28.33,10.63,28.33,10.79Z"/><ellipse class="cls-1" cx="20.94" cy="10.08" rx="0.61" ry="0.29"/><path class="cls-1" d="M22.46,13.23c.06.13.3.22.59.22s.52-.09.58-.22"/><line class="cls-1" x1="9.31" y1="29.58" x2="9.31" y2="13.23"/><line class="cls-1" x1="24.38" y1="13.23" x2="24.27" y2="13.23"/><line class="cls-1" x1="38.69" y1="29.58" x2="38.69" y2="13.23"/><polyline class="cls-1" points="19.84 19.87 19.84 18.18 19.84 18.14"/><polyline class="cls-1" points="21.99 20.16 21.99 20.05 21.99 18.39 21.99 18.28"/><polyline class="cls-1" points="24.38 14.55 24.38 14.42 24.38 13.23 24.38 12.96 24.38 12.67"/><polyline class="cls-1" points="24.38 14.42 24.32 14.56 24.14 14.99 23.94 15.45 21.99 20.05"/><polyline class="cls-1" points="26.82 11.4 26.82 11.46 26.82 11.51 26.82 11.52 26.82 12.09 26.82 13.23"/><polyline class="cls-1" points="25.97 12.33 25.97 12.27 25.97 11.73 25.98 11.22 25.98 11.21 25.98 10.46 25.98 10.4"/><polyline class="cls-1" points="38.01 11.34 38.01 11.26 38.01 11.11 38.01 9.64 38.01 9.56"/><polyline class="cls-1" points="38.01 11.26 28.61 12.91 27.67 13.08 26.82 13.23"/><polyline class="cls-1" points="21.18 10.82 21.18 10.91 21.18 11.46 21.18 12.09 21.18 12.71"/><polyline class="cls-1" points="22.65 10.08 22.65 10.16 22.65 11.1 22.65 11.58 22.65 11.88 22.65 11.99"/><polyline class="cls-1" points="12.39 9.06 12.39 8.92 12.39 7.24 12.39 7.18"/><polyline class="cls-1" points="12.44 8.89 19.92 12.16 20.66 12.48 21.18 12.71"/><polyline class="cls-1" points="22.65 11.88 21.99 12.25 21.18 12.71"/><polyline class="cls-1" points="25.99 12.14 26.16 12.36 26.82 13.23"/><path class="cls-1" d="M38.69,29.58v.1c0,3.88-6.58,7-14.69,7s-14.69-3.14-14.69-7v-.1"/></svg>