<svg id="Ebene_1" data-name="Ebene 1" xmlns="http://www.w3.org/2000/svg" viewBox="0 0 48 48"><defs><style>.cls-1{stroke:#fff;stroke-miterlimit:10;stroke-width:0.25px;}</style></defs><title>wrenches-dumbbell_wrench</title><path d="M38.74,14.74a1.34,1.34,0,0,0,1.89,0l5.48-5.48a1.34,1.34,0,0,0,0-1.89L40.63,1.89a1.34,1.34,0,0,0-1.89,0L33.26,7.37a1.34,1.34,0,0,0,0,1.89l.94.93-24,24-.93-.93a1.35,1.35,0,0,0-1.9,0L1.89,38.73a1.35,1.35,0,0,0,0,1.9l5.48,5.48a1.35,1.35,0,0,0,1.9,0l5.48-5.48a1.35,1.35,0,0,0,0-1.9l-.89-.88,24-24ZM11.19,42.6a4.12,4.12,0,1,1,0-5.83A4.12,4.12,0,0,1,11.19,42.6ZM36.76,11.19a4.13,4.13,0,1,1,5.84,0A4.15,4.15,0,0,1,36.76,11.19Z"/><path class="cls-1" d="M42.52,5.22a4.12,4.12,0,1,0,0,5.83A4.12,4.12,0,0,0,42.52,5.22Zm-3.71,6.09L36.53,9l.84-3.13,3.12-.83,2.28,2.28-.83,3.12Z"/><path class="cls-1" d="M11.11,36.63a4.13,4.13,0,1,0,0,5.84A4.13,4.13,0,0,0,11.11,36.63Zm-3.76,6L5.06,40.39l.84-3.12L9,36.43l2.29,2.29-.84,3.12Z"/></svg>