<svg id="Ebene_1" data-name="Ebene 1" xmlns="http://www.w3.org/2000/svg" viewBox="0 0 48 48"><defs><style>.cls-1,.cls-2{stroke:#000;}.cls-1,.cls-2,.cls-3{stroke-miterlimit:10;}.cls-2,.cls-3{fill:none;}.cls-3{stroke:#fff;stroke-width:0.5px;}</style></defs><title>wrenches-ratchet_ring_wrench</title><g id="Ebene_2" data-name="Ebene 2"><path class="cls-1" d="M31.48,13.37,11.21,32.57a7.08,7.08,0,0,0-9.83,7.86l5-4.77a1.44,1.44,0,0,1,2,.06l3.18,3.35a1.44,1.44,0,0,1-.06,2l-5,4.77a7.08,7.08,0,0,0,8.38-9.4L35.29,17.2"/><line class="cls-2" x1="39.86" y1="14.08" x2="39.85" y2="14.09"/></g><path d="M43.88,5A7.7,7.7,0,0,0,31.2,13.09l.28.28,3.81,3.83.49.49A7.71,7.71,0,0,0,43.88,5ZM42.8,10.88a.72.72,0,0,0-.34,1.33l.2.12-.23-.06a.73.73,0,0,0-.75,1.15l.15.19-.2-.13a.72.72,0,0,0-1.08.84l.08.22-.14-.18a.69.69,0,0,0-.62-.28h0l-.48.24a.68.68,0,0,0-.18.47V15l-.07-.23a.72.72,0,0,0-1.37,0l-.08.22V14.8a.72.72,0,0,0-1.29-.44l-.15.19.08-.22a.72.72,0,0,0-1.08-.85l-.2.13.15-.18a.73.73,0,0,0-.75-1.15l-.23.06.2-.13a.72.72,0,0,0-.34-1.32l-.23,0,.22-.06a.72.72,0,0,0,.12-1.36L34,9.35l.23,0a.72.72,0,0,0,.55-1.25L34.56,8l.21.1a.73.73,0,0,0,.93-1l-.11-.21.17.16A.72.72,0,0,0,37,6.35l0-.23.11.2a.73.73,0,0,0,1.36-.22l0-.24,0,.24a.72.72,0,0,0,1.35.22l.11-.21,0,.23A.72.72,0,0,0,41.09,7l.17-.16L41.15,7a.73.73,0,0,0,.93,1l.21-.1-.17.16a.72.72,0,0,0,.55,1.25l.24,0-.22.1a.72.72,0,0,0,.11,1.36l.23.06Z"/><circle class="cls-3" cx="38.43" cy="10.45" r="5.58"/></svg>