<svg id="Ebene_1" data-name="Ebene 1" xmlns="http://www.w3.org/2000/svg" viewBox="0 0 48 48"><defs><style>.cls-1{stroke:#000;stroke-miterlimit:10;}</style></defs><title>wrenches-open_jaw_wrench</title><g id="Ebene_2" data-name="Ebene 2"><path class="cls-1" d="M15.55,35.07,36,15.66l-.1-.12a7.06,7.06,0,0,0,7.92-1.25,8.18,8.18,0,0,0,2.21-6.74l-5.22,4.81c-.58.55-1.28.89-1.83.31L35.84,9.31a1.44,1.44,0,0,1,0-2l5.16-4.88a7.08,7.08,0,0,0-8.62,9.47l-.11-.12L11.83,31.15A7.07,7.07,0,0,0,2,39l5-4.77a1.43,1.43,0,0,1,2,.06l3.17,3.35a1.44,1.44,0,0,1,0,2l-5,4.77a7.08,7.08,0,0,0,8.38-9.39Z"/></g></svg>