<svg id="Ebene_1" data-name="Ebene 1" xmlns="http://www.w3.org/2000/svg" viewBox="0 0 48 48"><defs><style>.cls-1{stroke:#000;stroke-miterlimit:10;stroke-width:0.25px;}</style></defs><title>wrenches-hook_wrench</title><path class="cls-1" d="M44,5.53a1.2,1.2,0,0,1-.25.67c-.16.23-.36.47-.36.47a.13.13,0,0,1-.2,0l-.43-.32.45-.69a8.37,8.37,0,0,0-2.95-.14,8.4,8.4,0,0,0-7.3,8c0,.13,0,.25,0,.38a7.64,7.64,0,0,0,.55,2.94,2.85,2.85,0,0,1-.57,3l-.43.45L7,45.83l-3-3L29.35,17.45a7.46,7.46,0,0,1-.74-3.36,13.14,13.14,0,0,1,4.12-8.84A10.52,10.52,0,0,1,42,2.3a2.45,2.45,0,0,1,2,2.36Z"/></svg>