<svg id="Ebene_1" data-name="Ebene 1" xmlns="http://www.w3.org/2000/svg" viewBox="0 0 48 48"><defs><style>.cls-1{stroke:#000;stroke-miterlimit:10;}</style></defs><title>wrenches-striking_face_pin</title><g id="Ebene_2" data-name="Ebene 2"><path class="cls-1" d="M20.36,38.13a6.51,6.51,0,0,1,.76.07L33.17,18.47l.11.07a5.81,5.81,0,0,1,4.8-9.34l-3,5a1.19,1.19,0,0,0,.4,1.63l3.23,2c.55.34,1-.08,1.37-.63l3.11-4.93A6.72,6.72,0,0,1,42.84,18a5.81,5.81,0,0,1-6,2.69l.11.07L25,40.41"/></g><g id="Zeichenfläche"><path d="M29.51,5.91l1-1.56A.28.28,0,0,0,30.47,4l-3.2-2.14a.31.31,0,0,0-.42.09l-1,1.53Z"/><path d="M22.34,8.7,4.93,34.82a1.19,1.19,0,0,0,.34,1.65l1.64,1.1a1.22,1.22,0,0,0,1.72-.34L26,11.16Z"/><path d="M29.33,13.14,19.27,6.45a1.54,1.54,0,0,1-.43-2.16L20.39,2a1.54,1.54,0,0,1,2.16-.43L32.62,8.21A1.55,1.55,0,0,1,33,10.37l-1.56,2.34A1.55,1.55,0,0,1,29.33,13.14Z"/></g><path class="cls-1" d="M21.57,46.66l-4.44-2.75a.6.6,0,0,1-.19-.82l3.59-5.8a.6.6,0,0,1,.82-.19l4.45,2.76a.59.59,0,0,1,.19.82l-3.6,5.79A.59.59,0,0,1,21.57,46.66Z"/></svg>