<svg id="Ebene_1" data-name="Ebene 1" xmlns="http://www.w3.org/2000/svg" viewBox="0 0 48 48"><title>wrenches-pipe_wrench</title><path d="M37.73,35.22l-.82,0-8.71-10a4.09,4.09,0,0,0,.25-2.53l10.62-9.18.74,0L44,9.84,41,6.45,36.83,10.1l-.07.66L26.15,19.94a4.12,4.12,0,0,0-2.53-.11l-8.71-10L15,9,12.05,5.65,8.41,8.81l2.91,3.36.79,0,8.7,10.05a4.06,4.06,0,0,0-.25,2.52L10,34,8.33,32.1a.6.6,0,0,0-.85,0l-3.23,2.8a.59.59,0,0,0-.09.84l1.63,1.88-.18.15,2.3,2.66.18-.15,1.66,1.92a.6.6,0,0,0,.85,0l3.23-2.79a.6.6,0,0,0,.08-.85l-1.66-1.92,10.61-9.19a4.08,4.08,0,0,0,2.54.12l8.7,10.05-.08.78L37,41.78l3.67-3.18ZM24.54,26A1.87,1.87,0,0,1,24,26a2.1,2.1,0,0,1-1.25-.7,2.2,2.2,0,0,1-.52-1.34,2.25,2.25,0,0,1,.06-.63A2.43,2.43,0,0,1,23.08,22a2.52,2.52,0,0,1,1-.51l.08,0h.16l.09,0h.17a2.57,2.57,0,0,1,.48,0,2.24,2.24,0,0,1,1.34.73A2.27,2.27,0,0,1,26.83,24,2.44,2.44,0,0,1,26,25.39,2.5,2.5,0,0,1,24.54,26Z"/></svg>