<svg id="Ebene_1" data-name="Ebene 1" xmlns="http://www.w3.org/2000/svg" viewBox="0 0 48 48"><defs><style>.cls-1,.cls-2,.cls-3{fill:none;stroke-width:0.25px;}.cls-1,.cls-3{stroke:#000;}.cls-1{stroke-miterlimit:10;}.cls-2{stroke:#fff;}.cls-2,.cls-3{stroke-linecap:round;stroke-linejoin:round;}</style></defs><title>wrenches-face_pin_wrench</title><path d="M43.76,18.72l.79-.84,0,0,.05,0a.65.65,0,0,0-.87-.88l0,0-.86.85c-.17.17-.09.53.15.77A.56.56,0,0,0,43.76,18.72ZM29.65,13c0,.77.1,3.3.14,4.41a.58.58,0,0,0,.55.55c1.11,0,3.66.15,4.41.14,2.25,0,5.74-1.58,8.29-1.74s2.08,2.08,2.08,2.08-1.31,4.79-7.25,4.37-8.75.93-8.75.93h0l-3.48,2.07L9,42.43a.57.57,0,0,1-.82,0L5.31,39.55a.57.57,0,0,1,0-.82L22,22.09,24,18.61s1.36-2.81.93-8.75,4.38-7.24,4.38-7.24,2.23-.47,2.08,2.07S29.67,10.73,29.65,13Zm3,6.37a.59.59,0,0,0-.58.74l.26.91a.59.59,0,0,0,.53.42l1.16,0a.59.59,0,0,0,.58-.74l-.26-.9a.58.58,0,0,0-.54-.43Zm-5.8-3.83.91.26a.58.58,0,0,0,.73-.58L28.45,14a.56.56,0,0,0-.41-.53l-.92-.26a.57.57,0,0,0-.72.59L26.45,15A.56.56,0,0,0,26.86,15.52ZM30.69,3.24a.56.56,0,0,0-.76-.12h0L29,4c-.17.17-.09.53.15.77a.54.54,0,0,0,.74.12l.8-.84,0,0,.06,0C31,3.82,30.93,3.48,30.69,3.24Z"/><path d="M43.88,17.69a.59.59,0,0,1-.16-.71l0,0a.65.65,0,0,1,.87.88l-.05,0,0,0A.62.62,0,0,1,43.88,17.69Z"/><path d="M30.73,4.06l-.8.84a.54.54,0,0,1-.74-.12C29,4.54,28.87,4.18,29,4l.88-.88a.58.58,0,0,0,.14.74A.66.66,0,0,0,30.73,4.06Z"/><path d="M29.93,3.12a.56.56,0,0,1,.76.12c.24.24.3.58.12.75l-.06,0,0,0a.66.66,0,0,1-.67-.19.58.58,0,0,1-.14-.74Z"/><path d="M44.55,17.88l-.79.84A.56.56,0,0,1,43,18.6c-.24-.24-.32-.6-.15-.77l.86-.85a.59.59,0,0,0,.16.71A.62.62,0,0,0,44.55,17.88Z"/><path class="cls-1" d="M29.12,23.72s2.81-1.36,8.75-.93,7.25-4.37,7.25-4.37.47-2.23-2.08-2.08-6,1.71-8.29,1.74c-.75,0-3.3-.09-4.41-.14a.58.58,0,0,1-.55-.55c0-1.11-.14-3.64-.14-4.41,0-2.25,1.58-5.73,1.75-8.29s-2.08-2.07-2.08-2.07-4.8,1.3-4.38,7.24S24,18.61,24,18.61"/><path class="cls-2" d="M30.73,4.06a.66.66,0,0,1-.67-.19.58.58,0,0,1-.14-.74"/><path class="cls-2" d="M29.93,3.12a.56.56,0,0,1,.76.12c.24.24.3.58.12.75l-.06,0"/><path class="cls-1" d="M27.77,15.78l-.91-.26a.56.56,0,0,1-.41-.53l-.05-1.15a.57.57,0,0,1,.72-.59l.92.26a.56.56,0,0,1,.41.53l.05,1.16A.58.58,0,0,1,27.77,15.78Z"/><path class="cls-1" d="M32.08,20.09l.26.91a.59.59,0,0,0,.53.42l1.16,0a.59.59,0,0,0,.58-.74l-.26-.9a.58.58,0,0,0-.54-.43l-1.15,0A.59.59,0,0,0,32.08,20.09Z"/><polyline class="cls-2" points="29.93 4.89 29.93 4.9 30.73 4.06 30.75 4.04 30.8 3.99"/><path class="cls-2" d="M29.05,4h0c-.17.17-.09.53.15.77a.54.54,0,0,0,.74.12"/><polyline class="cls-2" points="29.93 3.12 29.92 3.13 29.04 4.01"/><path class="cls-2" d="M44.55,17.88a.62.62,0,0,1-.67-.19.59.59,0,0,1-.16-.71"/><path class="cls-2" d="M43.76,16.94a.65.65,0,0,1,.87.88l-.05,0"/><polyline class="cls-2" points="43.75 18.72 43.76 18.72 44.55 17.88 44.58 17.86 44.63 17.81"/><path class="cls-2" d="M42.87,17.84h0c-.17.17-.09.53.15.77a.56.56,0,0,0,.75.12"/><polyline class="cls-2" points="43.76 16.94 43.72 16.98 42.87 17.83"/><polyline class="cls-1" points="21.95 22.09 24.01 18.61 24.11 18.7"/><polyline class="cls-1" points="29.03 23.63 29.12 23.72 29.13 23.72 25.65 25.8"/><path class="cls-3" d="M25.65,25.79,9,42.43a.57.57,0,0,1-.82,0L5.31,39.55a.57.57,0,0,1,0-.82L22,22.09"/></svg>