<svg id="Ebene_1" data-name="Ebene 1" xmlns="http://www.w3.org/2000/svg" viewBox="0 0 48 48"><title>wrenches-ring_wrench</title><polyline points="34.97 17.14 16.04 36.06 14.44 37.66 9.85 33.07 11.46 31.46 30.36 12.55"/><path d="M43,4.47a7.7,7.7,0,0,0-12.68,8.08L35,17.14A7.69,7.69,0,0,0,43,4.47Zm-1.18,6.45.21.09-.23,0a.73.73,0,0,0-.55,1.26l.18.16-.22-.1a.73.73,0,0,0-.93,1l.12.21-.18-.16a.72.72,0,0,0-1.2.65l0,.23L39,14a.72.72,0,0,0-1.35.23l0,.23,0-.23a.72.72,0,0,0-1.35-.22l-.11.2,0-.23a.73.73,0,0,0-1.21-.65l-.17.16.12-.2a.73.73,0,0,0-.93-1l-.22.09.17-.15A.72.72,0,0,0,33.35,11l-.23,0,.21-.09a.73.73,0,0,0-.11-1.37L33,9.51l.24,0a.72.72,0,0,0,.33-1.33L33.36,8l.23.06a.72.72,0,0,0,.75-1.15l-.15-.18.2.13a.72.72,0,0,0,1.08-.84l-.08-.23.15.19a.72.72,0,0,0,1.29-.45V5.33l.08.22a.72.72,0,0,0,1.37,0l.07-.22v.23a.73.73,0,0,0,1.3.45l.14-.19L39.71,6a.72.72,0,0,0,1.08.84l.2-.13-.14.19a.72.72,0,0,0,.75,1.14L41.82,8l-.19.13A.72.72,0,0,0,42,9.48l.24,0L42,9.55A.73.73,0,0,0,41.86,10.92Z"/><path d="M16,36.06l-4.58-4.6A7.72,7.72,0,1,0,16,36.06Zm-3,3.64.22.1-.23,0A.72.72,0,0,0,12.51,41l.17.16-.21-.1a.73.73,0,0,0-.93,1l.11.21-.17-.16a.72.72,0,0,0-1.2.65l0,.23-.11-.2a.73.73,0,0,0-1.36.22l0,.24,0-.24a.72.72,0,0,0-1.35-.22L7.32,43l0-.23a.72.72,0,0,0-1.21-.65L6,42.32l.11-.21a.73.73,0,0,0-.93-1L5,41.2,5.12,41a.72.72,0,0,0-.55-1.25l-.24,0,.22-.1a.72.72,0,0,0-.11-1.36l-.23-.06.23,0a.72.72,0,0,0,.34-1.33l-.2-.12.23.06a.73.73,0,0,0,.75-1.15l-.15-.19.2.13a.72.72,0,0,0,1.08-.84l-.08-.22.14.18a.72.72,0,0,0,1.3-.44v-.24l.07.23a.72.72,0,0,0,1.37,0l.08-.22v.24a.72.72,0,0,0,1.29.44L11,34.6l-.08.22a.72.72,0,0,0,1.08.85l.2-.13-.15.18a.73.73,0,0,0,.75,1.15l.23-.06-.2.13a.72.72,0,0,0,.34,1.32l.23,0-.22.06A.72.72,0,0,0,13.07,39.7Z"/></svg>