<svg id="Ebene_1" data-name="Ebene 1" xmlns="http://www.w3.org/2000/svg" viewBox="0 0 48 48"><defs><style>.cls-1,.cls-2{fill:none;stroke-miterlimit:10;stroke-width:0.25px;}.cls-1{stroke:#000;}.cls-2{stroke:#fff;}</style></defs><title>wrenches-socket_wrench</title><path d="M46.59,19.41l-4.65,4.66-8.73-8.73.59-.59-2.48-2.48-1,1L30,12.91,13.41,29.49a2.63,2.63,0,0,1-.73,1.42L5.49,38.09a2.58,2.58,0,1,1-3.65-3.65L9,27.25a2.7,2.7,0,0,1,1.4-.72L27,9.94l-.62-.63L31.76,4,35.7,7.89l-.9.9,2.48,2.48.59-.58Z"/><line class="cls-1" x1="10.42" y1="26.53" x2="27.02" y2="9.94"/><line class="cls-1" x1="13.41" y1="29.49" x2="29.99" y2="12.91"/><path class="cls-1" d="M13.41,29.49a2.63,2.63,0,0,1-.73,1.42L5.49,38.09a2.58,2.58,0,1,1-3.65-3.65L9,27.25a2.7,2.7,0,0,1,1.4-.72"/><polyline class="cls-1" points="27.02 9.94 26.4 9.31 31.76 3.96 35.7 7.89 34.8 8.79"/><polyline class="cls-1" points="31.32 12.27 30.34 13.25 29.99 12.91"/><line class="cls-1" x1="33.8" y1="14.75" x2="31.32" y2="12.27"/><line class="cls-1" x1="37.28" y1="11.27" x2="34.8" y2="8.79"/><polyline class="cls-1" points="33.8 14.75 33.21 15.34 41.94 24.07 46.59 19.41 37.87 10.69 37.28 11.27"/><path d="M46.75,19.4c.51.51-.16,2-1.51,3.37s-2.85,2-3.36,1.5.15-2,1.49-3.37S46.23,18.88,46.75,19.4Zm-.39,1.52-.23-1.32-2.05.92-1.81,2.22.23,1.32,2-.91Z"/><polygon points="46.13 19.61 46.36 20.93 44.55 23.16 42.5 24.07 42.27 22.75 44.08 20.52 46.13 19.61"/><path class="cls-2" d="M46.75,19.4c-.52-.52-2,.16-3.38,1.5s-2,2.85-1.49,3.37,2-.16,3.36-1.5S47.26,19.91,46.75,19.4Z"/><polygon class="cls-2" points="44.55 23.16 42.5 24.07 42.27 22.75 44.08 20.52 46.13 19.61 46.36 20.93 44.55 23.16"/></svg>